<?xml version="1.0" encoding="utf-8" standalone="no"?>
<!DOCTYPE svg PUBLIC "-//W3C//DTD SVG 1.1//EN"
  "http://www.w3.org/Graphics/SVG/1.1/DTD/svg11.dtd">
<svg xmlns:xlink="http://www.w3.org/1999/xlink" width="460.8pt" height="345.6pt" viewBox="0 0 460.8 345.6" xmlns="http://www.w3.org/2000/svg" version="1.1">
 <metadata>
  <rdf:RDF xmlns:dc="http://purl.org/dc/elements/1.1/" xmlns:cc="http://creativecommons.org/ns#" xmlns:rdf="http://www.w3.org/1999/02/22-rdf-syntax-ns#">
   <cc:Work>
    <dc:type rdf:resource="http://purl.org/dc/dcmitype/StillImage"/>
    <dc:date>2025-11-08T17:35:28.538959</dc:date>
    <dc:format>image/svg+xml</dc:format>
    <dc:creator>
     <cc:Agent>
      <dc:title>Matplotlib v3.9.4, https://matplotlib.org/</dc:title>
     </cc:Agent>
    </dc:creator>
   </cc:Work>
  </rdf:RDF>
 </metadata>
 <defs>
  <style type="text/css">*{stroke-linejoin: round; stroke-linecap: butt}</style>
 </defs>
 <g id="figure_1">
  <g id="patch_1">
   <path d="M 0 345.6 
L 460.8 345.6 
L 460.8 0 
L 0 0 
z
" style="fill: #ffffff"/>
  </g>
  <g id="axes_1">
   <g id="patch_2">
    <path d="M 57.6 307.584 
L 414.72 307.584 
L 414.72 41.472 
L 57.6 41.472 
z
" style="fill: #ffffff"/>
   </g>
   <g id="matplotlib.axis_1">
    <g id="xtick_1">
     <g id="line2d_1">
      <defs>
       <path id="m5e25511f89" d="M 0 0 
L 0 3.5 
" style="stroke: #000000; stroke-width: 0.8"/>
      </defs>
      <g>
       <use xlink:href="#m5e25511f89" x="73.832727" y="307.584" style="stroke: #000000; stroke-width: 0.8"/>
      </g>
     </g>
     <g id="text_1">
      <!-- 0 -->
      <g transform="translate(70.651477 322.182437) scale(0.1 -0.1)">
       <defs>
        <path id="DejaVuSans-30" d="M 2034 4250 
Q 1547 4250 1301 3770 
Q 1056 3291 1056 2328 
Q 1056 1369 1301 889 
Q 1547 409 2034 409 
Q 2525 409 2770 889 
Q 3016 1369 3016 2328 
Q 3016 3291 2770 3770 
Q 2525 4250 2034 4250 
z
M 2034 4750 
Q 2819 4750 3233 4129 
Q 3647 3509 3647 2328 
Q 3647 1150 3233 529 
Q 2819 -91 2034 -91 
Q 1250 -91 836 529 
Q 422 1150 422 2328 
Q 422 3509 836 4129 
Q 1250 4750 2034 4750 
z
" transform="scale(0.015625)"/>
       </defs>
       <use xlink:href="#DejaVuSans-30"/>
      </g>
     </g>
    </g>
    <g id="xtick_2">
     <g id="line2d_2">
      <g>
       <use xlink:href="#m5e25511f89" x="144.563565" y="307.584" style="stroke: #000000; stroke-width: 0.8"/>
      </g>
     </g>
     <g id="text_2">
      <!-- 100 -->
      <g transform="translate(135.019815 322.182437) scale(0.1 -0.1)">
       <defs>
        <path id="DejaVuSans-31" d="M 794 531 
L 1825 531 
L 1825 4091 
L 703 3866 
L 703 4441 
L 1819 4666 
L 2450 4666 
L 2450 531 
L 3481 531 
L 3481 0 
L 794 0 
L 794 531 
z
" transform="scale(0.015625)"/>
       </defs>
       <use xlink:href="#DejaVuSans-31"/>
       <use xlink:href="#DejaVuSans-30" x="63.623047"/>
       <use xlink:href="#DejaVuSans-30" x="127.246094"/>
      </g>
     </g>
    </g>
    <g id="xtick_3">
     <g id="line2d_3">
      <g>
       <use xlink:href="#m5e25511f89" x="215.294403" y="307.584" style="stroke: #000000; stroke-width: 0.8"/>
      </g>
     </g>
     <g id="text_3">
      <!-- 200 -->
      <g transform="translate(205.750653 322.182437) scale(0.1 -0.1)">
       <defs>
        <path id="DejaVuSans-32" d="M 1228 531 
L 3431 531 
L 3431 0 
L 469 0 
L 469 531 
Q 828 903 1448 1529 
Q 2069 2156 2228 2338 
Q 2531 2678 2651 2914 
Q 2772 3150 2772 3378 
Q 2772 3750 2511 3984 
Q 2250 4219 1831 4219 
Q 1534 4219 1204 4116 
Q 875 4013 500 3803 
L 500 4441 
Q 881 4594 1212 4672 
Q 1544 4750 1819 4750 
Q 2544 4750 2975 4387 
Q 3406 4025 3406 3419 
Q 3406 3131 3298 2873 
Q 3191 2616 2906 2266 
Q 2828 2175 2409 1742 
Q 1991 1309 1228 531 
z
" transform="scale(0.015625)"/>
       </defs>
       <use xlink:href="#DejaVuSans-32"/>
       <use xlink:href="#DejaVuSans-30" x="63.623047"/>
       <use xlink:href="#DejaVuSans-30" x="127.246094"/>
      </g>
     </g>
    </g>
    <g id="xtick_4">
     <g id="line2d_4">
      <g>
       <use xlink:href="#m5e25511f89" x="286.025241" y="307.584" style="stroke: #000000; stroke-width: 0.8"/>
      </g>
     </g>
     <g id="text_4">
      <!-- 300 -->
      <g transform="translate(276.481491 322.182437) scale(0.1 -0.1)">
       <defs>
        <path id="DejaVuSans-33" d="M 2597 2516 
Q 3050 2419 3304 2112 
Q 3559 1806 3559 1356 
Q 3559 666 3084 287 
Q 2609 -91 1734 -91 
Q 1441 -91 1130 -33 
Q 819 25 488 141 
L 488 750 
Q 750 597 1062 519 
Q 1375 441 1716 441 
Q 2309 441 2620 675 
Q 2931 909 2931 1356 
Q 2931 1769 2642 2001 
Q 2353 2234 1838 2234 
L 1294 2234 
L 1294 2753 
L 1863 2753 
Q 2328 2753 2575 2939 
Q 2822 3125 2822 3475 
Q 2822 3834 2567 4026 
Q 2313 4219 1838 4219 
Q 1578 4219 1281 4162 
Q 984 4106 628 3988 
L 628 4550 
Q 988 4650 1302 4700 
Q 1616 4750 1894 4750 
Q 2613 4750 3031 4423 
Q 3450 4097 3450 3541 
Q 3450 3153 3228 2886 
Q 3006 2619 2597 2516 
z
" transform="scale(0.015625)"/>
       </defs>
       <use xlink:href="#DejaVuSans-33"/>
       <use xlink:href="#DejaVuSans-30" x="63.623047"/>
       <use xlink:href="#DejaVuSans-30" x="127.246094"/>
      </g>
     </g>
    </g>
    <g id="xtick_5">
     <g id="line2d_5">
      <g>
       <use xlink:href="#m5e25511f89" x="356.756078" y="307.584" style="stroke: #000000; stroke-width: 0.8"/>
      </g>
     </g>
     <g id="text_5">
      <!-- 400 -->
      <g transform="translate(347.212328 322.182437) scale(0.1 -0.1)">
       <defs>
        <path id="DejaVuSans-34" d="M 2419 4116 
L 825 1625 
L 2419 1625 
L 2419 4116 
z
M 2253 4666 
L 3047 4666 
L 3047 1625 
L 3713 1625 
L 3713 1100 
L 3047 1100 
L 3047 0 
L 2419 0 
L 2419 1100 
L 313 1100 
L 313 1709 
L 2253 4666 
z
" transform="scale(0.015625)"/>
       </defs>
       <use xlink:href="#DejaVuSans-34"/>
       <use xlink:href="#DejaVuSans-30" x="63.623047"/>
       <use xlink:href="#DejaVuSans-30" x="127.246094"/>
      </g>
     </g>
    </g>
    <g id="text_6">
     <!-- Number of samples -->
     <g transform="translate(187.292812 335.860562) scale(0.1 -0.1)">
      <defs>
       <path id="DejaVuSans-4e" d="M 628 4666 
L 1478 4666 
L 3547 763 
L 3547 4666 
L 4159 4666 
L 4159 0 
L 3309 0 
L 1241 3903 
L 1241 0 
L 628 0 
L 628 4666 
z
" transform="scale(0.015625)"/>
       <path id="DejaVuSans-75" d="M 544 1381 
L 544 3500 
L 1119 3500 
L 1119 1403 
Q 1119 906 1312 657 
Q 1506 409 1894 409 
Q 2359 409 2629 706 
Q 2900 1003 2900 1516 
L 2900 3500 
L 3475 3500 
L 3475 0 
L 2900 0 
L 2900 538 
Q 2691 219 2414 64 
Q 2138 -91 1772 -91 
Q 1169 -91 856 284 
Q 544 659 544 1381 
z
M 1991 3584 
L 1991 3584 
z
" transform="scale(0.015625)"/>
       <path id="DejaVuSans-6d" d="M 3328 2828 
Q 3544 3216 3844 3400 
Q 4144 3584 4550 3584 
Q 5097 3584 5394 3201 
Q 5691 2819 5691 2113 
L 5691 0 
L 5113 0 
L 5113 2094 
Q 5113 2597 4934 2840 
Q 4756 3084 4391 3084 
Q 3944 3084 3684 2787 
Q 3425 2491 3425 1978 
L 3425 0 
L 2847 0 
L 2847 2094 
Q 2847 2600 2669 2842 
Q 2491 3084 2119 3084 
Q 1678 3084 1418 2786 
Q 1159 2488 1159 1978 
L 1159 0 
L 581 0 
L 581 3500 
L 1159 3500 
L 1159 2956 
Q 1356 3278 1631 3431 
Q 1906 3584 2284 3584 
Q 2666 3584 2933 3390 
Q 3200 3197 3328 2828 
z
" transform="scale(0.015625)"/>
       <path id="DejaVuSans-62" d="M 3116 1747 
Q 3116 2381 2855 2742 
Q 2594 3103 2138 3103 
Q 1681 3103 1420 2742 
Q 1159 2381 1159 1747 
Q 1159 1113 1420 752 
Q 1681 391 2138 391 
Q 2594 391 2855 752 
Q 3116 1113 3116 1747 
z
M 1159 2969 
Q 1341 3281 1617 3432 
Q 1894 3584 2278 3584 
Q 2916 3584 3314 3078 
Q 3713 2572 3713 1747 
Q 3713 922 3314 415 
Q 2916 -91 2278 -91 
Q 1894 -91 1617 61 
Q 1341 213 1159 525 
L 1159 0 
L 581 0 
L 581 4863 
L 1159 4863 
L 1159 2969 
z
" transform="scale(0.015625)"/>
       <path id="DejaVuSans-65" d="M 3597 1894 
L 3597 1613 
L 953 1613 
Q 991 1019 1311 708 
Q 1631 397 2203 397 
Q 2534 397 2845 478 
Q 3156 559 3463 722 
L 3463 178 
Q 3153 47 2828 -22 
Q 2503 -91 2169 -91 
Q 1331 -91 842 396 
Q 353 884 353 1716 
Q 353 2575 817 3079 
Q 1281 3584 2069 3584 
Q 2775 3584 3186 3129 
Q 3597 2675 3597 1894 
z
M 3022 2063 
Q 3016 2534 2758 2815 
Q 2500 3097 2075 3097 
Q 1594 3097 1305 2825 
Q 1016 2553 972 2059 
L 3022 2063 
z
" transform="scale(0.015625)"/>
       <path id="DejaVuSans-72" d="M 2631 2963 
Q 2534 3019 2420 3045 
Q 2306 3072 2169 3072 
Q 1681 3072 1420 2755 
Q 1159 2438 1159 1844 
L 1159 0 
L 581 0 
L 581 3500 
L 1159 3500 
L 1159 2956 
Q 1341 3275 1631 3429 
Q 1922 3584 2338 3584 
Q 2397 3584 2469 3576 
Q 2541 3569 2628 3553 
L 2631 2963 
z
" transform="scale(0.015625)"/>
       <path id="DejaVuSans-20" transform="scale(0.015625)"/>
       <path id="DejaVuSans-6f" d="M 1959 3097 
Q 1497 3097 1228 2736 
Q 959 2375 959 1747 
Q 959 1119 1226 758 
Q 1494 397 1959 397 
Q 2419 397 2687 759 
Q 2956 1122 2956 1747 
Q 2956 2369 2687 2733 
Q 2419 3097 1959 3097 
z
M 1959 3584 
Q 2709 3584 3137 3096 
Q 3566 2609 3566 1747 
Q 3566 888 3137 398 
Q 2709 -91 1959 -91 
Q 1206 -91 779 398 
Q 353 888 353 1747 
Q 353 2609 779 3096 
Q 1206 3584 1959 3584 
z
" transform="scale(0.015625)"/>
       <path id="DejaVuSans-66" d="M 2375 4863 
L 2375 4384 
L 1825 4384 
Q 1516 4384 1395 4259 
Q 1275 4134 1275 3809 
L 1275 3500 
L 2222 3500 
L 2222 3053 
L 1275 3053 
L 1275 0 
L 697 0 
L 697 3053 
L 147 3053 
L 147 3500 
L 697 3500 
L 697 3744 
Q 697 4328 969 4595 
Q 1241 4863 1831 4863 
L 2375 4863 
z
" transform="scale(0.015625)"/>
       <path id="DejaVuSans-73" d="M 2834 3397 
L 2834 2853 
Q 2591 2978 2328 3040 
Q 2066 3103 1784 3103 
Q 1356 3103 1142 2972 
Q 928 2841 928 2578 
Q 928 2378 1081 2264 
Q 1234 2150 1697 2047 
L 1894 2003 
Q 2506 1872 2764 1633 
Q 3022 1394 3022 966 
Q 3022 478 2636 193 
Q 2250 -91 1575 -91 
Q 1294 -91 989 -36 
Q 684 19 347 128 
L 347 722 
Q 666 556 975 473 
Q 1284 391 1588 391 
Q 1994 391 2212 530 
Q 2431 669 2431 922 
Q 2431 1156 2273 1281 
Q 2116 1406 1581 1522 
L 1381 1569 
Q 847 1681 609 1914 
Q 372 2147 372 2553 
Q 372 3047 722 3315 
Q 1072 3584 1716 3584 
Q 2034 3584 2315 3537 
Q 2597 3491 2834 3397 
z
" transform="scale(0.015625)"/>
       <path id="DejaVuSans-61" d="M 2194 1759 
Q 1497 1759 1228 1600 
Q 959 1441 959 1056 
Q 959 750 1161 570 
Q 1363 391 1709 391 
Q 2188 391 2477 730 
Q 2766 1069 2766 1631 
L 2766 1759 
L 2194 1759 
z
M 3341 1997 
L 3341 0 
L 2766 0 
L 2766 531 
Q 2569 213 2275 61 
Q 1981 -91 1556 -91 
Q 1019 -91 701 211 
Q 384 513 384 1019 
Q 384 1609 779 1909 
Q 1175 2209 1959 2209 
L 2766 2209 
L 2766 2266 
Q 2766 2663 2505 2880 
Q 2244 3097 1772 3097 
Q 1472 3097 1187 3025 
Q 903 2953 641 2809 
L 641 3341 
Q 956 3463 1253 3523 
Q 1550 3584 1831 3584 
Q 2591 3584 2966 3190 
Q 3341 2797 3341 1997 
z
" transform="scale(0.015625)"/>
       <path id="DejaVuSans-70" d="M 1159 525 
L 1159 -1331 
L 581 -1331 
L 581 3500 
L 1159 3500 
L 1159 2969 
Q 1341 3281 1617 3432 
Q 1894 3584 2278 3584 
Q 2916 3584 3314 3078 
Q 3713 2572 3713 1747 
Q 3713 922 3314 415 
Q 2916 -91 2278 -91 
Q 1894 -91 1617 61 
Q 1341 213 1159 525 
z
M 3116 1747 
Q 3116 2381 2855 2742 
Q 2594 3103 2138 3103 
Q 1681 3103 1420 2742 
Q 1159 2381 1159 1747 
Q 1159 1113 1420 752 
Q 1681 391 2138 391 
Q 2594 391 2855 752 
Q 3116 1113 3116 1747 
z
" transform="scale(0.015625)"/>
       <path id="DejaVuSans-6c" d="M 603 4863 
L 1178 4863 
L 1178 0 
L 603 0 
L 603 4863 
z
" transform="scale(0.015625)"/>
      </defs>
      <use xlink:href="#DejaVuSans-4e"/>
      <use xlink:href="#DejaVuSans-75" x="74.804688"/>
      <use xlink:href="#DejaVuSans-6d" x="138.183594"/>
      <use xlink:href="#DejaVuSans-62" x="235.595703"/>
      <use xlink:href="#DejaVuSans-65" x="299.072266"/>
      <use xlink:href="#DejaVuSans-72" x="360.595703"/>
      <use xlink:href="#DejaVuSans-20" x="401.708984"/>
      <use xlink:href="#DejaVuSans-6f" x="433.496094"/>
      <use xlink:href="#DejaVuSans-66" x="494.677734"/>
      <use xlink:href="#DejaVuSans-20" x="529.882812"/>
      <use xlink:href="#DejaVuSans-73" x="561.669922"/>
      <use xlink:href="#DejaVuSans-61" x="613.769531"/>
      <use xlink:href="#DejaVuSans-6d" x="675.048828"/>
      <use xlink:href="#DejaVuSans-70" x="772.460938"/>
      <use xlink:href="#DejaVuSans-6c" x="835.9375"/>
      <use xlink:href="#DejaVuSans-65" x="863.720703"/>
      <use xlink:href="#DejaVuSans-73" x="925.244141"/>
     </g>
    </g>
   </g>
   <g id="matplotlib.axis_2">
    <g id="ytick_1">
     <g id="line2d_6">
      <defs>
       <path id="m8528138ae3" d="M 0 0 
L -3.5 0 
" style="stroke: #000000; stroke-width: 0.8"/>
      </defs>
      <g>
       <use xlink:href="#m8528138ae3" x="57.6" y="271.41488" style="stroke: #000000; stroke-width: 0.8"/>
      </g>
     </g>
     <g id="text_7">
      <!-- 0.0000 -->
      <g transform="translate(15.609375 275.214099) scale(0.1 -0.1)">
       <defs>
        <path id="DejaVuSans-2e" d="M 684 794 
L 1344 794 
L 1344 0 
L 684 0 
L 684 794 
z
" transform="scale(0.015625)"/>
       </defs>
       <use xlink:href="#DejaVuSans-30"/>
       <use xlink:href="#DejaVuSans-2e" x="63.623047"/>
       <use xlink:href="#DejaVuSans-30" x="95.410156"/>
       <use xlink:href="#DejaVuSans-30" x="159.033203"/>
       <use xlink:href="#DejaVuSans-30" x="222.65625"/>
       <use xlink:href="#DejaVuSans-30" x="286.279297"/>
      </g>
     </g>
    </g>
    <g id="ytick_2">
     <g id="line2d_7">
      <g>
       <use xlink:href="#m8528138ae3" x="57.6" y="224.023483" style="stroke: #000000; stroke-width: 0.8"/>
      </g>
     </g>
     <g id="text_8">
      <!-- 0.0005 -->
      <g transform="translate(15.609375 227.822701) scale(0.1 -0.1)">
       <defs>
        <path id="DejaVuSans-35" d="M 691 4666 
L 3169 4666 
L 3169 4134 
L 1269 4134 
L 1269 2991 
Q 1406 3038 1543 3061 
Q 1681 3084 1819 3084 
Q 2600 3084 3056 2656 
Q 3513 2228 3513 1497 
Q 3513 744 3044 326 
Q 2575 -91 1722 -91 
Q 1428 -91 1123 -41 
Q 819 9 494 109 
L 494 744 
Q 775 591 1075 516 
Q 1375 441 1709 441 
Q 2250 441 2565 725 
Q 2881 1009 2881 1497 
Q 2881 1984 2565 2268 
Q 2250 2553 1709 2553 
Q 1456 2553 1204 2497 
Q 953 2441 691 2322 
L 691 4666 
z
" transform="scale(0.015625)"/>
       </defs>
       <use xlink:href="#DejaVuSans-30"/>
       <use xlink:href="#DejaVuSans-2e" x="63.623047"/>
       <use xlink:href="#DejaVuSans-30" x="95.410156"/>
       <use xlink:href="#DejaVuSans-30" x="159.033203"/>
       <use xlink:href="#DejaVuSans-30" x="222.65625"/>
       <use xlink:href="#DejaVuSans-35" x="286.279297"/>
      </g>
     </g>
    </g>
    <g id="ytick_3">
     <g id="line2d_8">
      <g>
       <use xlink:href="#m8528138ae3" x="57.6" y="176.632085" style="stroke: #000000; stroke-width: 0.8"/>
      </g>
     </g>
     <g id="text_9">
      <!-- 0.0010 -->
      <g transform="translate(15.609375 180.431304) scale(0.1 -0.1)">
       <use xlink:href="#DejaVuSans-30"/>
       <use xlink:href="#DejaVuSans-2e" x="63.623047"/>
       <use xlink:href="#DejaVuSans-30" x="95.410156"/>
       <use xlink:href="#DejaVuSans-30" x="159.033203"/>
       <use xlink:href="#DejaVuSans-31" x="222.65625"/>
       <use xlink:href="#DejaVuSans-30" x="286.279297"/>
      </g>
     </g>
    </g>
    <g id="ytick_4">
     <g id="line2d_9">
      <g>
       <use xlink:href="#m8528138ae3" x="57.6" y="129.240688" style="stroke: #000000; stroke-width: 0.8"/>
      </g>
     </g>
     <g id="text_10">
      <!-- 0.0015 -->
      <g transform="translate(15.609375 133.039907) scale(0.1 -0.1)">
       <use xlink:href="#DejaVuSans-30"/>
       <use xlink:href="#DejaVuSans-2e" x="63.623047"/>
       <use xlink:href="#DejaVuSans-30" x="95.410156"/>
       <use xlink:href="#DejaVuSans-30" x="159.033203"/>
       <use xlink:href="#DejaVuSans-31" x="222.65625"/>
       <use xlink:href="#DejaVuSans-35" x="286.279297"/>
      </g>
     </g>
    </g>
    <g id="ytick_5">
     <g id="line2d_10">
      <g>
       <use xlink:href="#m8528138ae3" x="57.6" y="81.849291" style="stroke: #000000; stroke-width: 0.8"/>
      </g>
     </g>
     <g id="text_11">
      <!-- 0.0020 -->
      <g transform="translate(15.609375 85.64851) scale(0.1 -0.1)">
       <use xlink:href="#DejaVuSans-30"/>
       <use xlink:href="#DejaVuSans-2e" x="63.623047"/>
       <use xlink:href="#DejaVuSans-30" x="95.410156"/>
       <use xlink:href="#DejaVuSans-30" x="159.033203"/>
       <use xlink:href="#DejaVuSans-32" x="222.65625"/>
       <use xlink:href="#DejaVuSans-30" x="286.279297"/>
      </g>
     </g>
    </g>
    <g id="text_12">
     <!-- Amplitude -->
     <g transform="translate(9.529687 200.150656) rotate(-90) scale(0.1 -0.1)">
      <defs>
       <path id="DejaVuSans-41" d="M 2188 4044 
L 1331 1722 
L 3047 1722 
L 2188 4044 
z
M 1831 4666 
L 2547 4666 
L 4325 0 
L 3669 0 
L 3244 1197 
L 1141 1197 
L 716 0 
L 50 0 
L 1831 4666 
z
" transform="scale(0.015625)"/>
       <path id="DejaVuSans-69" d="M 603 3500 
L 1178 3500 
L 1178 0 
L 603 0 
L 603 3500 
z
M 603 4863 
L 1178 4863 
L 1178 4134 
L 603 4134 
L 603 4863 
z
" transform="scale(0.015625)"/>
       <path id="DejaVuSans-74" d="M 1172 4494 
L 1172 3500 
L 2356 3500 
L 2356 3053 
L 1172 3053 
L 1172 1153 
Q 1172 725 1289 603 
Q 1406 481 1766 481 
L 2356 481 
L 2356 0 
L 1766 0 
Q 1100 0 847 248 
Q 594 497 594 1153 
L 594 3053 
L 172 3053 
L 172 3500 
L 594 3500 
L 594 4494 
L 1172 4494 
z
" transform="scale(0.015625)"/>
       <path id="DejaVuSans-64" d="M 2906 2969 
L 2906 4863 
L 3481 4863 
L 3481 0 
L 2906 0 
L 2906 525 
Q 2725 213 2448 61 
Q 2172 -91 1784 -91 
Q 1150 -91 751 415 
Q 353 922 353 1747 
Q 353 2572 751 3078 
Q 1150 3584 1784 3584 
Q 2172 3584 2448 3432 
Q 2725 3281 2906 2969 
z
M 947 1747 
Q 947 1113 1208 752 
Q 1469 391 1925 391 
Q 2381 391 2643 752 
Q 2906 1113 2906 1747 
Q 2906 2381 2643 2742 
Q 2381 3103 1925 3103 
Q 1469 3103 1208 2742 
Q 947 2381 947 1747 
z
" transform="scale(0.015625)"/>
      </defs>
      <use xlink:href="#DejaVuSans-41"/>
      <use xlink:href="#DejaVuSans-6d" x="68.408203"/>
      <use xlink:href="#DejaVuSans-70" x="165.820312"/>
      <use xlink:href="#DejaVuSans-6c" x="229.296875"/>
      <use xlink:href="#DejaVuSans-69" x="257.080078"/>
      <use xlink:href="#DejaVuSans-74" x="284.863281"/>
      <use xlink:href="#DejaVuSans-75" x="324.072266"/>
      <use xlink:href="#DejaVuSans-64" x="387.451172"/>
      <use xlink:href="#DejaVuSans-65" x="450.927734"/>
     </g>
    </g>
   </g>
   <g id="line2d_11">
    <path d="M 73.832727 283.091407 
L 74.540036 283.47503 
L 76.661961 285.150856 
L 77.369269 285.356404 
L 78.076578 285.197281 
L 78.783886 284.66609 
L 80.198503 282.845752 
L 81.613119 281.055782 
L 82.320428 280.540359 
L 83.027736 280.367604 
L 83.735045 280.506153 
L 85.85697 281.561945 
L 86.564278 281.635956 
L 87.271586 281.411294 
L 87.978895 280.899674 
L 90.10082 278.836565 
L 90.808128 278.533805 
L 91.515437 278.651562 
L 92.222745 279.223652 
L 92.930053 280.192643 
L 95.051979 283.826392 
L 95.759287 284.604053 
L 96.466595 284.907934 
L 97.173904 284.701648 
L 97.881212 284.045617 
L 100.003137 281.0677 
L 100.710446 280.420675 
L 101.417754 280.209471 
L 102.125062 280.482041 
L 102.832371 281.197183 
L 104.246988 283.436854 
L 105.661604 285.591073 
L 106.368913 286.260938 
L 107.076221 286.563742 
L 107.783529 286.510778 
L 108.490838 286.170349 
L 111.320071 284.116002 
L 112.02738 283.873569 
L 112.734688 283.799364 
L 114.149305 283.99922 
L 115.563922 284.2661 
L 116.27123 284.289917 
L 116.978538 284.200669 
L 118.393155 283.683314 
L 121.222389 282.131807 
L 121.929697 281.905738 
L 122.637005 281.843034 
L 123.344314 281.981869 
L 124.051622 282.343795 
L 124.75893 282.926415 
L 126.173547 284.59363 
L 127.588164 286.373123 
L 128.295472 287.031683 
L 129.002781 287.40061 
L 129.710089 287.419522 
L 130.417398 287.081359 
L 131.124706 286.440381 
L 133.246631 284.028922 
L 133.953939 283.621583 
L 134.661248 283.644625 
L 135.368556 284.14617 
L 136.075865 285.086896 
L 138.905098 289.882832 
L 139.612406 290.274839 
L 140.319715 290.049039 
L 141.027023 289.215651 
L 141.734332 287.892679 
L 143.856257 283.288964 
L 144.563565 282.391945 
L 145.270873 282.118176 
L 145.978182 282.502866 
L 146.68549 283.465304 
L 149.514724 288.730724 
L 150.222032 289.206044 
L 150.92934 289.063796 
L 151.636649 288.336156 
L 152.343957 287.154194 
L 154.465882 283.034462 
L 155.173191 282.183606 
L 155.880499 281.820117 
L 156.587807 281.954375 
L 157.295116 282.511202 
L 160.124349 285.771958 
L 160.831658 286.067444 
L 161.538966 286.002534 
L 162.246275 285.61681 
L 165.075508 283.252407 
L 165.782816 283.129 
L 166.490125 283.365044 
L 167.197433 283.956698 
L 167.904742 284.844606 
L 170.026667 288.089443 
L 170.733975 288.891244 
L 171.441283 289.34825 
L 172.148592 289.393987 
L 172.8559 289.016445 
L 173.563209 288.260659 
L 174.977825 286.040266 
L 176.392442 283.85522 
L 177.09975 283.128732 
L 177.807059 282.763163 
L 178.514367 282.771388 
L 179.221676 283.098947 
L 181.343601 284.681192 
L 182.050909 284.871726 
L 182.758217 284.677262 
L 183.465526 284.052905 
L 184.172834 283.028342 
L 185.587451 280.225116 
L 187.002068 277.485124 
L 187.709376 276.491454 
L 188.416684 275.830318 
L 189.123993 275.470101 
L 191.245918 274.999561 
L 191.953226 274.562627 
L 192.660535 273.825895 
L 194.075152 271.583133 
L 195.489768 269.275714 
L 196.197077 268.597364 
L 196.904385 268.466521 
L 197.611693 268.968184 
L 198.319002 270.090694 
L 199.02631 271.725135 
L 201.855544 279.285237 
L 202.562852 280.47436 
L 203.27016 281.218071 
L 203.977469 281.580221 
L 205.392086 281.689754 
L 206.099394 281.730241 
L 206.806702 281.902985 
L 207.514011 282.238191 
L 209.635936 283.619746 
L 210.343244 283.874291 
L 211.050553 283.909405 
L 211.757861 283.740656 
L 213.172478 283.182255 
L 213.879786 283.091082 
L 214.587094 283.3247 
L 215.294403 283.979043 
L 216.001711 285.076316 
L 217.416328 288.295804 
L 218.830945 291.865641 
L 219.538253 293.371215 
L 220.245561 294.527764 
L 220.95287 295.257514 
L 221.660178 295.488 
L 222.367487 295.107284 
L 223.074795 293.912416 
L 223.782103 291.568435 
L 224.489412 287.59508 
L 225.19672 281.391394 
L 225.904029 272.304575 
L 226.611337 259.741952 
L 227.318645 243.307467 
L 228.025954 222.940015 
L 229.44057 172.474519 
L 231.562496 92.838647 
L 232.269804 72.878052 
L 232.977112 59.359311 
L 233.684421 53.568 
L 234.391729 56.097303 
L 235.099037 66.743948 
L 235.806346 84.512505 
L 237.220963 134.265127 
L 238.635579 188.088995 
L 239.342888 211.329422 
L 240.050196 230.261658 
L 240.757504 244.329509 
L 241.464813 253.666453 
L 242.172121 258.988906 
L 242.87943 261.408816 
L 243.586738 262.203001 
L 244.294046 262.57991 
L 245.001355 263.484049 
L 245.708663 265.469724 
L 246.415971 268.660844 
L 249.245205 285.049908 
L 249.952513 287.174452 
L 250.659822 287.8263 
L 251.36713 287.122559 
L 252.074439 285.430443 
L 253.489055 281.238465 
L 254.196364 279.807786 
L 254.903672 279.310807 
L 255.61098 279.845233 
L 256.318289 281.277447 
L 258.440214 287.293925 
L 259.147522 288.49023 
L 259.854831 288.816988 
L 260.562139 288.249862 
L 261.269447 286.943309 
L 263.391373 281.711084 
L 264.098681 280.587767 
L 264.805989 280.076796 
L 265.513298 280.145851 
L 266.220606 280.627809 
L 267.635223 281.772309 
L 268.342531 281.89987 
L 269.04984 281.490075 
L 269.757148 280.509275 
L 270.464456 279.052763 
L 272.586381 274.089031 
L 273.29369 273.072365 
L 274.000998 272.651045 
L 274.708307 272.830956 
L 275.415615 273.502206 
L 277.53754 276.256328 
L 278.244848 276.640227 
L 278.952157 276.505769 
L 279.659465 275.850202 
L 280.366774 274.77629 
L 282.488699 271.091206 
L 283.196007 270.439394 
L 283.903316 270.317196 
L 284.610624 270.733481 
L 285.317932 271.596541 
L 287.439857 274.895612 
L 288.147166 275.480802 
L 288.854474 275.523748 
L 289.561783 274.970699 
L 290.269091 273.861214 
L 291.683708 270.520536 
L 293.098324 266.96788 
L 293.805633 265.549379 
L 294.512941 264.496159 
L 295.22025 263.809621 
L 295.927558 263.421431 
L 298.049483 262.78266 
L 298.756791 262.336682 
L 299.4641 261.669611 
L 300.878717 259.837723 
L 302.293333 258.052319 
L 303.000642 257.473478 
L 303.70795 257.199817 
L 304.415258 257.22972 
L 305.829875 257.881115 
L 306.537184 258.232366 
L 307.244492 258.402833 
L 307.9518 258.279024 
L 308.659109 257.808678 
L 309.366417 257.015037 
L 311.488342 253.959915 
L 312.195651 253.32081 
L 312.902959 253.148614 
L 313.610267 253.52939 
L 314.317576 254.468491 
L 315.024884 255.892328 
L 316.439501 259.617326 
L 317.854118 263.401603 
L 319.268734 266.353161 
L 320.683351 268.438747 
L 323.512585 271.7691 
L 324.219893 272.467162 
L 324.927201 272.990026 
L 325.63451 273.265147 
L 326.341818 273.256048 
L 327.049127 272.983586 
L 329.171052 271.715075 
L 329.87836 271.697002 
L 330.585668 272.12932 
L 331.292977 273.064647 
L 332.000285 274.456075 
L 334.12221 279.532877 
L 334.829519 280.687898 
L 335.536827 281.212573 
L 336.244135 281.023977 
L 336.951444 280.16875 
L 338.366061 277.238686 
L 339.073369 275.739526 
L 339.780677 274.612419 
L 340.487986 274.07131 
L 341.195294 274.207384 
L 341.902602 274.968788 
L 344.024528 278.754523 
L 344.731836 279.545522 
L 345.439144 279.72597 
L 346.146453 279.248152 
L 346.853761 278.21282 
L 348.268378 275.462648 
L 348.975686 274.375202 
L 349.682995 273.84679 
L 350.390303 274.019509 
L 351.097611 274.882846 
L 352.512228 277.897804 
L 353.219537 279.409031 
L 353.926845 280.46373 
L 354.634153 280.803496 
L 355.341462 280.310215 
L 356.04877 279.034399 
L 357.463387 275.101956 
L 358.170695 273.165113 
L 358.878004 271.740604 
L 359.585312 271.094811 
L 360.29262 271.343479 
L 360.999929 272.429438 
L 362.414545 276.12349 
L 363.121854 278.014428 
L 363.829162 279.452913 
L 364.536471 280.182355 
L 365.243779 280.091884 
L 365.951087 279.233659 
L 366.658396 277.807332 
L 368.073012 274.49453 
L 368.780321 273.252839 
L 369.487629 272.603673 
L 370.194938 272.630879 
L 370.902246 273.277707 
L 372.316863 275.641986 
L 373.024171 276.832575 
L 373.73148 277.70557 
L 374.438788 278.116924 
L 375.146096 278.038159 
L 375.853405 277.555372 
L 377.268021 276.134349 
L 377.97533 275.642254 
L 378.682638 275.537739 
L 379.389947 275.901601 
L 380.097255 276.71182 
L 381.511872 279.132597 
L 382.21918 280.344402 
L 382.926488 281.290733 
L 383.633797 281.831909 
L 384.341105 281.909765 
L 385.048414 281.555833 
L 385.755722 280.880011 
L 387.170339 279.222897 
L 387.877647 278.576228 
L 388.584955 278.210766 
L 389.292264 278.166738 
L 389.999572 278.414325 
L 392.828806 280.206405 
L 393.536114 280.310064 
L 394.243422 280.179406 
L 395.658039 279.420732 
L 397.072656 278.631456 
L 397.779964 278.457878 
L 398.487273 278.497266 
L 398.487273 278.497266 
" clip-path="url(#p2fd0b0034d)" style="fill: none; stroke: #1f77b4; stroke-width: 1.5; stroke-linecap: square"/>
   </g>
   <g id="line2d_12">
    <path d="M 73.832727 271.41488 
L 222.367487 271.359154 
L 223.782103 271.153371 
L 224.489412 270.882 
L 225.19672 270.372397 
L 225.904029 269.456879 
L 226.611337 267.884125 
L 227.318645 265.302093 
L 228.025954 261.253957 
L 228.733262 255.198481 
L 229.44057 246.565963 
L 230.147879 234.855715 
L 230.855187 219.770341 
L 232.269804 180.190522 
L 234.391729 113.526246 
L 235.099037 96.644807 
L 235.806346 85.661622 
L 236.513654 81.849291 
L 237.220963 85.661622 
L 237.928271 96.644807 
L 238.635579 113.526246 
L 240.050196 157.344169 
L 241.464813 201.366997 
L 242.172121 219.770341 
L 242.87943 234.855715 
L 243.586738 246.565963 
L 244.294046 255.198481 
L 245.001355 261.253957 
L 245.708663 265.302093 
L 246.415971 267.884125 
L 247.12328 269.456879 
L 247.830588 270.372397 
L 248.537897 270.882 
L 249.245205 271.153371 
L 250.659822 271.359154 
L 254.196364 271.414308 
L 398.487273 271.41488 
L 398.487273 271.41488 
" clip-path="url(#p2fd0b0034d)" style="fill: none; stroke: #ff7f0e; stroke-width: 1.5; stroke-linecap: square"/>
   </g>
   <g id="patch_3">
    <path d="M 57.6 307.584 
L 57.6 41.472 
" style="fill: none; stroke: #000000; stroke-width: 0.8; stroke-linejoin: miter; stroke-linecap: square"/>
   </g>
   <g id="patch_4">
    <path d="M 414.72 307.584 
L 414.72 41.472 
" style="fill: none; stroke: #000000; stroke-width: 0.8; stroke-linejoin: miter; stroke-linecap: square"/>
   </g>
   <g id="patch_5">
    <path d="M 57.6 307.584 
L 414.72 307.584 
" style="fill: none; stroke: #000000; stroke-width: 0.8; stroke-linejoin: miter; stroke-linecap: square"/>
   </g>
   <g id="patch_6">
    <path d="M 57.6 41.472 
L 414.72 41.472 
" style="fill: none; stroke: #000000; stroke-width: 0.8; stroke-linejoin: miter; stroke-linecap: square"/>
   </g>
   <g id="text_13">
    <!-- Example heartbeat and Wavelet used for matched filtering -->
    <g transform="translate(59.400937 35.472) scale(0.12 -0.12)">
     <defs>
      <path id="DejaVuSans-45" d="M 628 4666 
L 3578 4666 
L 3578 4134 
L 1259 4134 
L 1259 2753 
L 3481 2753 
L 3481 2222 
L 1259 2222 
L 1259 531 
L 3634 531 
L 3634 0 
L 628 0 
L 628 4666 
z
" transform="scale(0.015625)"/>
      <path id="DejaVuSans-78" d="M 3513 3500 
L 2247 1797 
L 3578 0 
L 2900 0 
L 1881 1375 
L 863 0 
L 184 0 
L 1544 1831 
L 300 3500 
L 978 3500 
L 1906 2253 
L 2834 3500 
L 3513 3500 
z
" transform="scale(0.015625)"/>
      <path id="DejaVuSans-68" d="M 3513 2113 
L 3513 0 
L 2938 0 
L 2938 2094 
Q 2938 2591 2744 2837 
Q 2550 3084 2163 3084 
Q 1697 3084 1428 2787 
Q 1159 2491 1159 1978 
L 1159 0 
L 581 0 
L 581 4863 
L 1159 4863 
L 1159 2956 
Q 1366 3272 1645 3428 
Q 1925 3584 2291 3584 
Q 2894 3584 3203 3211 
Q 3513 2838 3513 2113 
z
" transform="scale(0.015625)"/>
      <path id="DejaVuSans-6e" d="M 3513 2113 
L 3513 0 
L 2938 0 
L 2938 2094 
Q 2938 2591 2744 2837 
Q 2550 3084 2163 3084 
Q 1697 3084 1428 2787 
Q 1159 2491 1159 1978 
L 1159 0 
L 581 0 
L 581 3500 
L 1159 3500 
L 1159 2956 
Q 1366 3272 1645 3428 
Q 1925 3584 2291 3584 
Q 2894 3584 3203 3211 
Q 3513 2838 3513 2113 
z
" transform="scale(0.015625)"/>
      <path id="DejaVuSans-57" d="M 213 4666 
L 850 4666 
L 1831 722 
L 2809 4666 
L 3519 4666 
L 4500 722 
L 5478 4666 
L 6119 4666 
L 4947 0 
L 4153 0 
L 3169 4050 
L 2175 0 
L 1381 0 
L 213 4666 
z
" transform="scale(0.015625)"/>
      <path id="DejaVuSans-76" d="M 191 3500 
L 800 3500 
L 1894 563 
L 2988 3500 
L 3597 3500 
L 2284 0 
L 1503 0 
L 191 3500 
z
" transform="scale(0.015625)"/>
      <path id="DejaVuSans-63" d="M 3122 3366 
L 3122 2828 
Q 2878 2963 2633 3030 
Q 2388 3097 2138 3097 
Q 1578 3097 1268 2742 
Q 959 2388 959 1747 
Q 959 1106 1268 751 
Q 1578 397 2138 397 
Q 2388 397 2633 464 
Q 2878 531 3122 666 
L 3122 134 
Q 2881 22 2623 -34 
Q 2366 -91 2075 -91 
Q 1284 -91 818 406 
Q 353 903 353 1747 
Q 353 2603 823 3093 
Q 1294 3584 2113 3584 
Q 2378 3584 2631 3529 
Q 2884 3475 3122 3366 
z
" transform="scale(0.015625)"/>
      <path id="DejaVuSans-67" d="M 2906 1791 
Q 2906 2416 2648 2759 
Q 2391 3103 1925 3103 
Q 1463 3103 1205 2759 
Q 947 2416 947 1791 
Q 947 1169 1205 825 
Q 1463 481 1925 481 
Q 2391 481 2648 825 
Q 2906 1169 2906 1791 
z
M 3481 434 
Q 3481 -459 3084 -895 
Q 2688 -1331 1869 -1331 
Q 1566 -1331 1297 -1286 
Q 1028 -1241 775 -1147 
L 775 -588 
Q 1028 -725 1275 -790 
Q 1522 -856 1778 -856 
Q 2344 -856 2625 -561 
Q 2906 -266 2906 331 
L 2906 616 
Q 2728 306 2450 153 
Q 2172 0 1784 0 
Q 1141 0 747 490 
Q 353 981 353 1791 
Q 353 2603 747 3093 
Q 1141 3584 1784 3584 
Q 2172 3584 2450 3431 
Q 2728 3278 2906 2969 
L 2906 3500 
L 3481 3500 
L 3481 434 
z
" transform="scale(0.015625)"/>
     </defs>
     <use xlink:href="#DejaVuSans-45"/>
     <use xlink:href="#DejaVuSans-78" x="63.183594"/>
     <use xlink:href="#DejaVuSans-61" x="122.363281"/>
     <use xlink:href="#DejaVuSans-6d" x="183.642578"/>
     <use xlink:href="#DejaVuSans-70" x="281.054688"/>
     <use xlink:href="#DejaVuSans-6c" x="344.53125"/>
     <use xlink:href="#DejaVuSans-65" x="372.314453"/>
     <use xlink:href="#DejaVuSans-20" x="433.837891"/>
     <use xlink:href="#DejaVuSans-68" x="465.625"/>
     <use xlink:href="#DejaVuSans-65" x="529.003906"/>
     <use xlink:href="#DejaVuSans-61" x="590.527344"/>
     <use xlink:href="#DejaVuSans-72" x="651.806641"/>
     <use xlink:href="#DejaVuSans-74" x="692.919922"/>
     <use xlink:href="#DejaVuSans-62" x="732.128906"/>
     <use xlink:href="#DejaVuSans-65" x="795.605469"/>
     <use xlink:href="#DejaVuSans-61" x="857.128906"/>
     <use xlink:href="#DejaVuSans-74" x="918.408203"/>
     <use xlink:href="#DejaVuSans-20" x="957.617188"/>
     <use xlink:href="#DejaVuSans-61" x="989.404297"/>
     <use xlink:href="#DejaVuSans-6e" x="1050.683594"/>
     <use xlink:href="#DejaVuSans-64" x="1114.0625"/>
     <use xlink:href="#DejaVuSans-20" x="1177.539062"/>
     <use xlink:href="#DejaVuSans-57" x="1209.326172"/>
     <use xlink:href="#DejaVuSans-61" x="1301.828125"/>
     <use xlink:href="#DejaVuSans-76" x="1363.107422"/>
     <use xlink:href="#DejaVuSans-65" x="1422.287109"/>
     <use xlink:href="#DejaVuSans-6c" x="1483.810547"/>
     <use xlink:href="#DejaVuSans-65" x="1511.59375"/>
     <use xlink:href="#DejaVuSans-74" x="1573.117188"/>
     <use xlink:href="#DejaVuSans-20" x="1612.326172"/>
     <use xlink:href="#DejaVuSans-75" x="1644.113281"/>
     <use xlink:href="#DejaVuSans-73" x="1707.492188"/>
     <use xlink:href="#DejaVuSans-65" x="1759.591797"/>
     <use xlink:href="#DejaVuSans-64" x="1821.115234"/>
     <use xlink:href="#DejaVuSans-20" x="1884.591797"/>
     <use xlink:href="#DejaVuSans-66" x="1916.378906"/>
     <use xlink:href="#DejaVuSans-6f" x="1951.583984"/>
     <use xlink:href="#DejaVuSans-72" x="2012.765625"/>
     <use xlink:href="#DejaVuSans-20" x="2053.878906"/>
     <use xlink:href="#DejaVuSans-6d" x="2085.666016"/>
     <use xlink:href="#DejaVuSans-61" x="2183.078125"/>
     <use xlink:href="#DejaVuSans-74" x="2244.357422"/>
     <use xlink:href="#DejaVuSans-63" x="2283.566406"/>
     <use xlink:href="#DejaVuSans-68" x="2338.546875"/>
     <use xlink:href="#DejaVuSans-65" x="2401.925781"/>
     <use xlink:href="#DejaVuSans-64" x="2463.449219"/>
     <use xlink:href="#DejaVuSans-20" x="2526.925781"/>
     <use xlink:href="#DejaVuSans-66" x="2558.712891"/>
     <use xlink:href="#DejaVuSans-69" x="2593.917969"/>
     <use xlink:href="#DejaVuSans-6c" x="2621.701172"/>
     <use xlink:href="#DejaVuSans-74" x="2649.484375"/>
     <use xlink:href="#DejaVuSans-65" x="2688.693359"/>
     <use xlink:href="#DejaVuSans-72" x="2750.216797"/>
     <use xlink:href="#DejaVuSans-69" x="2791.330078"/>
     <use xlink:href="#DejaVuSans-6e" x="2819.113281"/>
     <use xlink:href="#DejaVuSans-67" x="2882.492188"/>
    </g>
   </g>
   <g id="legend_1">
    <g id="patch_7">
     <path d="M 286.784063 78.82825 
L 407.72 78.82825 
Q 409.72 78.82825 409.72 76.82825 
L 409.72 48.472 
Q 409.72 46.472 407.72 46.472 
L 286.784063 46.472 
Q 284.784063 46.472 284.784063 48.472 
L 284.784063 76.82825 
Q 284.784063 78.82825 286.784063 78.82825 
z
" style="fill: #ffffff; opacity: 0.8; stroke: #cccccc; stroke-linejoin: miter"/>
    </g>
    <g id="line2d_13">
     <path d="M 288.784063 54.570437 
L 298.784063 54.570437 
L 308.784063 54.570437 
" style="fill: none; stroke: #1f77b4; stroke-width: 1.5; stroke-linecap: square"/>
    </g>
    <g id="text_14">
     <!-- Pre-filtered Signal -->
     <g transform="translate(316.784063 58.070437) scale(0.1 -0.1)">
      <defs>
       <path id="DejaVuSans-50" d="M 1259 4147 
L 1259 2394 
L 2053 2394 
Q 2494 2394 2734 2622 
Q 2975 2850 2975 3272 
Q 2975 3691 2734 3919 
Q 2494 4147 2053 4147 
L 1259 4147 
z
M 628 4666 
L 2053 4666 
Q 2838 4666 3239 4311 
Q 3641 3956 3641 3272 
Q 3641 2581 3239 2228 
Q 2838 1875 2053 1875 
L 1259 1875 
L 1259 0 
L 628 0 
L 628 4666 
z
" transform="scale(0.015625)"/>
       <path id="DejaVuSans-2d" d="M 313 2009 
L 1997 2009 
L 1997 1497 
L 313 1497 
L 313 2009 
z
" transform="scale(0.015625)"/>
       <path id="DejaVuSans-53" d="M 3425 4513 
L 3425 3897 
Q 3066 4069 2747 4153 
Q 2428 4238 2131 4238 
Q 1616 4238 1336 4038 
Q 1056 3838 1056 3469 
Q 1056 3159 1242 3001 
Q 1428 2844 1947 2747 
L 2328 2669 
Q 3034 2534 3370 2195 
Q 3706 1856 3706 1288 
Q 3706 609 3251 259 
Q 2797 -91 1919 -91 
Q 1588 -91 1214 -16 
Q 841 59 441 206 
L 441 856 
Q 825 641 1194 531 
Q 1563 422 1919 422 
Q 2459 422 2753 634 
Q 3047 847 3047 1241 
Q 3047 1584 2836 1778 
Q 2625 1972 2144 2069 
L 1759 2144 
Q 1053 2284 737 2584 
Q 422 2884 422 3419 
Q 422 4038 858 4394 
Q 1294 4750 2059 4750 
Q 2388 4750 2728 4690 
Q 3069 4631 3425 4513 
z
" transform="scale(0.015625)"/>
      </defs>
      <use xlink:href="#DejaVuSans-50"/>
      <use xlink:href="#DejaVuSans-72" x="58.552734"/>
      <use xlink:href="#DejaVuSans-65" x="97.416016"/>
      <use xlink:href="#DejaVuSans-2d" x="158.939453"/>
      <use xlink:href="#DejaVuSans-66" x="195.023438"/>
      <use xlink:href="#DejaVuSans-69" x="230.228516"/>
      <use xlink:href="#DejaVuSans-6c" x="258.011719"/>
      <use xlink:href="#DejaVuSans-74" x="285.794922"/>
      <use xlink:href="#DejaVuSans-65" x="325.003906"/>
      <use xlink:href="#DejaVuSans-72" x="386.527344"/>
      <use xlink:href="#DejaVuSans-65" x="425.390625"/>
      <use xlink:href="#DejaVuSans-64" x="486.914062"/>
      <use xlink:href="#DejaVuSans-20" x="550.390625"/>
      <use xlink:href="#DejaVuSans-53" x="582.177734"/>
      <use xlink:href="#DejaVuSans-69" x="645.654297"/>
      <use xlink:href="#DejaVuSans-67" x="673.4375"/>
      <use xlink:href="#DejaVuSans-6e" x="736.914062"/>
      <use xlink:href="#DejaVuSans-61" x="800.292969"/>
      <use xlink:href="#DejaVuSans-6c" x="861.572266"/>
     </g>
    </g>
    <g id="line2d_14">
     <path d="M 288.784063 69.248562 
L 298.784063 69.248562 
L 308.784063 69.248562 
" style="fill: none; stroke: #ff7f0e; stroke-width: 1.5; stroke-linecap: square"/>
    </g>
    <g id="text_15">
     <!-- Wavelet -->
     <g transform="translate(316.784063 72.748562) scale(0.1 -0.1)">
      <use xlink:href="#DejaVuSans-57"/>
      <use xlink:href="#DejaVuSans-61" x="92.501953"/>
      <use xlink:href="#DejaVuSans-76" x="153.78125"/>
      <use xlink:href="#DejaVuSans-65" x="212.960938"/>
      <use xlink:href="#DejaVuSans-6c" x="274.484375"/>
      <use xlink:href="#DejaVuSans-65" x="302.267578"/>
      <use xlink:href="#DejaVuSans-74" x="363.791016"/>
     </g>
    </g>
   </g>
  </g>
 </g>
 <defs>
  <clipPath id="p2fd0b0034d">
   <rect x="57.6" y="41.472" width="357.12" height="266.112"/>
  </clipPath>
 </defs>
</svg>
