<?xml version="1.0" encoding="utf-8" standalone="no"?>
<!DOCTYPE svg PUBLIC "-//W3C//DTD SVG 1.1//EN"
  "http://www.w3.org/Graphics/SVG/1.1/DTD/svg11.dtd">
<svg xmlns:xlink="http://www.w3.org/1999/xlink" width="460.8pt" height="345.6pt" viewBox="0 0 460.8 345.6" xmlns="http://www.w3.org/2000/svg" version="1.1">
 <metadata>
  <rdf:RDF xmlns:dc="http://purl.org/dc/elements/1.1/" xmlns:cc="http://creativecommons.org/ns#" xmlns:rdf="http://www.w3.org/1999/02/22-rdf-syntax-ns#">
   <cc:Work>
    <dc:type rdf:resource="http://purl.org/dc/dcmitype/StillImage"/>
    <dc:date>2025-11-08T17:20:03.310627</dc:date>
    <dc:format>image/svg+xml</dc:format>
    <dc:creator>
     <cc:Agent>
      <dc:title>Matplotlib v3.9.4, https://matplotlib.org/</dc:title>
     </cc:Agent>
    </dc:creator>
   </cc:Work>
  </rdf:RDF>
 </metadata>
 <defs>
  <style type="text/css">*{stroke-linejoin: round; stroke-linecap: butt}</style>
 </defs>
 <g id="figure_1">
  <g id="patch_1">
   <path d="M 0 345.6 
L 460.8 345.6 
L 460.8 0 
L 0 0 
z
" style="fill: #ffffff"/>
  </g>
  <g id="axes_1">
   <g id="patch_2">
    <path d="M 57.6 307.584 
L 414.72 307.584 
L 414.72 41.472 
L 57.6 41.472 
z
" style="fill: #ffffff"/>
   </g>
   <g id="matplotlib.axis_1">
    <g id="xtick_1">
     <g id="line2d_1">
      <path d="M 57.6 307.584 
L 57.6 41.472 
" clip-path="url(#p87dded9205)" style="fill: none; stroke: #b0b0b0; stroke-width: 0.8; stroke-linecap: square"/>
     </g>
     <g id="line2d_2">
      <defs>
       <path id="med19659baa" d="M 0 0 
L 0 3.5 
" style="stroke: #000000; stroke-width: 0.8"/>
      </defs>
      <g>
       <use xlink:href="#med19659baa" x="57.6" y="307.584" style="stroke: #000000; stroke-width: 0.8"/>
      </g>
     </g>
     <g id="text_1">
      <!-- 10.0 -->
      <g transform="translate(46.467187 322.182437) scale(0.1 -0.1)">
       <defs>
        <path id="DejaVuSans-31" d="M 794 531 
L 1825 531 
L 1825 4091 
L 703 3866 
L 703 4441 
L 1819 4666 
L 2450 4666 
L 2450 531 
L 3481 531 
L 3481 0 
L 794 0 
L 794 531 
z
" transform="scale(0.015625)"/>
        <path id="DejaVuSans-30" d="M 2034 4250 
Q 1547 4250 1301 3770 
Q 1056 3291 1056 2328 
Q 1056 1369 1301 889 
Q 1547 409 2034 409 
Q 2525 409 2770 889 
Q 3016 1369 3016 2328 
Q 3016 3291 2770 3770 
Q 2525 4250 2034 4250 
z
M 2034 4750 
Q 2819 4750 3233 4129 
Q 3647 3509 3647 2328 
Q 3647 1150 3233 529 
Q 2819 -91 2034 -91 
Q 1250 -91 836 529 
Q 422 1150 422 2328 
Q 422 3509 836 4129 
Q 1250 4750 2034 4750 
z
" transform="scale(0.015625)"/>
        <path id="DejaVuSans-2e" d="M 684 794 
L 1344 794 
L 1344 0 
L 684 0 
L 684 794 
z
" transform="scale(0.015625)"/>
       </defs>
       <use xlink:href="#DejaVuSans-31"/>
       <use xlink:href="#DejaVuSans-30" x="63.623047"/>
       <use xlink:href="#DejaVuSans-2e" x="127.246094"/>
       <use xlink:href="#DejaVuSans-30" x="159.033203"/>
      </g>
     </g>
    </g>
    <g id="xtick_2">
     <g id="line2d_3">
      <path d="M 117.12 307.584 
L 117.12 41.472 
" clip-path="url(#p87dded9205)" style="fill: none; stroke: #b0b0b0; stroke-width: 0.8; stroke-linecap: square"/>
     </g>
     <g id="line2d_4">
      <g>
       <use xlink:href="#med19659baa" x="117.12" y="307.584" style="stroke: #000000; stroke-width: 0.8"/>
      </g>
     </g>
     <g id="text_2">
      <!-- 10.5 -->
      <g transform="translate(105.987187 322.182437) scale(0.1 -0.1)">
       <defs>
        <path id="DejaVuSans-35" d="M 691 4666 
L 3169 4666 
L 3169 4134 
L 1269 4134 
L 1269 2991 
Q 1406 3038 1543 3061 
Q 1681 3084 1819 3084 
Q 2600 3084 3056 2656 
Q 3513 2228 3513 1497 
Q 3513 744 3044 326 
Q 2575 -91 1722 -91 
Q 1428 -91 1123 -41 
Q 819 9 494 109 
L 494 744 
Q 775 591 1075 516 
Q 1375 441 1709 441 
Q 2250 441 2565 725 
Q 2881 1009 2881 1497 
Q 2881 1984 2565 2268 
Q 2250 2553 1709 2553 
Q 1456 2553 1204 2497 
Q 953 2441 691 2322 
L 691 4666 
z
" transform="scale(0.015625)"/>
       </defs>
       <use xlink:href="#DejaVuSans-31"/>
       <use xlink:href="#DejaVuSans-30" x="63.623047"/>
       <use xlink:href="#DejaVuSans-2e" x="127.246094"/>
       <use xlink:href="#DejaVuSans-35" x="159.033203"/>
      </g>
     </g>
    </g>
    <g id="xtick_3">
     <g id="line2d_5">
      <path d="M 176.64 307.584 
L 176.64 41.472 
" clip-path="url(#p87dded9205)" style="fill: none; stroke: #b0b0b0; stroke-width: 0.8; stroke-linecap: square"/>
     </g>
     <g id="line2d_6">
      <g>
       <use xlink:href="#med19659baa" x="176.64" y="307.584" style="stroke: #000000; stroke-width: 0.8"/>
      </g>
     </g>
     <g id="text_3">
      <!-- 11.0 -->
      <g transform="translate(165.507187 322.182437) scale(0.1 -0.1)">
       <use xlink:href="#DejaVuSans-31"/>
       <use xlink:href="#DejaVuSans-31" x="63.623047"/>
       <use xlink:href="#DejaVuSans-2e" x="127.246094"/>
       <use xlink:href="#DejaVuSans-30" x="159.033203"/>
      </g>
     </g>
    </g>
    <g id="xtick_4">
     <g id="line2d_7">
      <path d="M 236.16 307.584 
L 236.16 41.472 
" clip-path="url(#p87dded9205)" style="fill: none; stroke: #b0b0b0; stroke-width: 0.8; stroke-linecap: square"/>
     </g>
     <g id="line2d_8">
      <g>
       <use xlink:href="#med19659baa" x="236.16" y="307.584" style="stroke: #000000; stroke-width: 0.8"/>
      </g>
     </g>
     <g id="text_4">
      <!-- 11.5 -->
      <g transform="translate(225.027187 322.182437) scale(0.1 -0.1)">
       <use xlink:href="#DejaVuSans-31"/>
       <use xlink:href="#DejaVuSans-31" x="63.623047"/>
       <use xlink:href="#DejaVuSans-2e" x="127.246094"/>
       <use xlink:href="#DejaVuSans-35" x="159.033203"/>
      </g>
     </g>
    </g>
    <g id="xtick_5">
     <g id="line2d_9">
      <path d="M 295.68 307.584 
L 295.68 41.472 
" clip-path="url(#p87dded9205)" style="fill: none; stroke: #b0b0b0; stroke-width: 0.8; stroke-linecap: square"/>
     </g>
     <g id="line2d_10">
      <g>
       <use xlink:href="#med19659baa" x="295.68" y="307.584" style="stroke: #000000; stroke-width: 0.8"/>
      </g>
     </g>
     <g id="text_5">
      <!-- 12.0 -->
      <g transform="translate(284.547188 322.182437) scale(0.1 -0.1)">
       <defs>
        <path id="DejaVuSans-32" d="M 1228 531 
L 3431 531 
L 3431 0 
L 469 0 
L 469 531 
Q 828 903 1448 1529 
Q 2069 2156 2228 2338 
Q 2531 2678 2651 2914 
Q 2772 3150 2772 3378 
Q 2772 3750 2511 3984 
Q 2250 4219 1831 4219 
Q 1534 4219 1204 4116 
Q 875 4013 500 3803 
L 500 4441 
Q 881 4594 1212 4672 
Q 1544 4750 1819 4750 
Q 2544 4750 2975 4387 
Q 3406 4025 3406 3419 
Q 3406 3131 3298 2873 
Q 3191 2616 2906 2266 
Q 2828 2175 2409 1742 
Q 1991 1309 1228 531 
z
" transform="scale(0.015625)"/>
       </defs>
       <use xlink:href="#DejaVuSans-31"/>
       <use xlink:href="#DejaVuSans-32" x="63.623047"/>
       <use xlink:href="#DejaVuSans-2e" x="127.246094"/>
       <use xlink:href="#DejaVuSans-30" x="159.033203"/>
      </g>
     </g>
    </g>
    <g id="xtick_6">
     <g id="line2d_11">
      <path d="M 355.2 307.584 
L 355.2 41.472 
" clip-path="url(#p87dded9205)" style="fill: none; stroke: #b0b0b0; stroke-width: 0.8; stroke-linecap: square"/>
     </g>
     <g id="line2d_12">
      <g>
       <use xlink:href="#med19659baa" x="355.2" y="307.584" style="stroke: #000000; stroke-width: 0.8"/>
      </g>
     </g>
     <g id="text_6">
      <!-- 12.5 -->
      <g transform="translate(344.067188 322.182437) scale(0.1 -0.1)">
       <use xlink:href="#DejaVuSans-31"/>
       <use xlink:href="#DejaVuSans-32" x="63.623047"/>
       <use xlink:href="#DejaVuSans-2e" x="127.246094"/>
       <use xlink:href="#DejaVuSans-35" x="159.033203"/>
      </g>
     </g>
    </g>
    <g id="xtick_7">
     <g id="line2d_13">
      <path d="M 414.72 307.584 
L 414.72 41.472 
" clip-path="url(#p87dded9205)" style="fill: none; stroke: #b0b0b0; stroke-width: 0.8; stroke-linecap: square"/>
     </g>
     <g id="line2d_14">
      <g>
       <use xlink:href="#med19659baa" x="414.72" y="307.584" style="stroke: #000000; stroke-width: 0.8"/>
      </g>
     </g>
     <g id="text_7">
      <!-- 13.0 -->
      <g transform="translate(403.587188 322.182437) scale(0.1 -0.1)">
       <defs>
        <path id="DejaVuSans-33" d="M 2597 2516 
Q 3050 2419 3304 2112 
Q 3559 1806 3559 1356 
Q 3559 666 3084 287 
Q 2609 -91 1734 -91 
Q 1441 -91 1130 -33 
Q 819 25 488 141 
L 488 750 
Q 750 597 1062 519 
Q 1375 441 1716 441 
Q 2309 441 2620 675 
Q 2931 909 2931 1356 
Q 2931 1769 2642 2001 
Q 2353 2234 1838 2234 
L 1294 2234 
L 1294 2753 
L 1863 2753 
Q 2328 2753 2575 2939 
Q 2822 3125 2822 3475 
Q 2822 3834 2567 4026 
Q 2313 4219 1838 4219 
Q 1578 4219 1281 4162 
Q 984 4106 628 3988 
L 628 4550 
Q 988 4650 1302 4700 
Q 1616 4750 1894 4750 
Q 2613 4750 3031 4423 
Q 3450 4097 3450 3541 
Q 3450 3153 3228 2886 
Q 3006 2619 2597 2516 
z
" transform="scale(0.015625)"/>
       </defs>
       <use xlink:href="#DejaVuSans-31"/>
       <use xlink:href="#DejaVuSans-33" x="63.623047"/>
       <use xlink:href="#DejaVuSans-2e" x="127.246094"/>
       <use xlink:href="#DejaVuSans-30" x="159.033203"/>
      </g>
     </g>
    </g>
    <g id="text_8">
     <!-- Time (s) -->
     <g transform="translate(215.831094 335.860562) scale(0.1 -0.1)">
      <defs>
       <path id="DejaVuSans-54" d="M -19 4666 
L 3928 4666 
L 3928 4134 
L 2272 4134 
L 2272 0 
L 1638 0 
L 1638 4134 
L -19 4134 
L -19 4666 
z
" transform="scale(0.015625)"/>
       <path id="DejaVuSans-69" d="M 603 3500 
L 1178 3500 
L 1178 0 
L 603 0 
L 603 3500 
z
M 603 4863 
L 1178 4863 
L 1178 4134 
L 603 4134 
L 603 4863 
z
" transform="scale(0.015625)"/>
       <path id="DejaVuSans-6d" d="M 3328 2828 
Q 3544 3216 3844 3400 
Q 4144 3584 4550 3584 
Q 5097 3584 5394 3201 
Q 5691 2819 5691 2113 
L 5691 0 
L 5113 0 
L 5113 2094 
Q 5113 2597 4934 2840 
Q 4756 3084 4391 3084 
Q 3944 3084 3684 2787 
Q 3425 2491 3425 1978 
L 3425 0 
L 2847 0 
L 2847 2094 
Q 2847 2600 2669 2842 
Q 2491 3084 2119 3084 
Q 1678 3084 1418 2786 
Q 1159 2488 1159 1978 
L 1159 0 
L 581 0 
L 581 3500 
L 1159 3500 
L 1159 2956 
Q 1356 3278 1631 3431 
Q 1906 3584 2284 3584 
Q 2666 3584 2933 3390 
Q 3200 3197 3328 2828 
z
" transform="scale(0.015625)"/>
       <path id="DejaVuSans-65" d="M 3597 1894 
L 3597 1613 
L 953 1613 
Q 991 1019 1311 708 
Q 1631 397 2203 397 
Q 2534 397 2845 478 
Q 3156 559 3463 722 
L 3463 178 
Q 3153 47 2828 -22 
Q 2503 -91 2169 -91 
Q 1331 -91 842 396 
Q 353 884 353 1716 
Q 353 2575 817 3079 
Q 1281 3584 2069 3584 
Q 2775 3584 3186 3129 
Q 3597 2675 3597 1894 
z
M 3022 2063 
Q 3016 2534 2758 2815 
Q 2500 3097 2075 3097 
Q 1594 3097 1305 2825 
Q 1016 2553 972 2059 
L 3022 2063 
z
" transform="scale(0.015625)"/>
       <path id="DejaVuSans-20" transform="scale(0.015625)"/>
       <path id="DejaVuSans-28" d="M 1984 4856 
Q 1566 4138 1362 3434 
Q 1159 2731 1159 2009 
Q 1159 1288 1364 580 
Q 1569 -128 1984 -844 
L 1484 -844 
Q 1016 -109 783 600 
Q 550 1309 550 2009 
Q 550 2706 781 3412 
Q 1013 4119 1484 4856 
L 1984 4856 
z
" transform="scale(0.015625)"/>
       <path id="DejaVuSans-73" d="M 2834 3397 
L 2834 2853 
Q 2591 2978 2328 3040 
Q 2066 3103 1784 3103 
Q 1356 3103 1142 2972 
Q 928 2841 928 2578 
Q 928 2378 1081 2264 
Q 1234 2150 1697 2047 
L 1894 2003 
Q 2506 1872 2764 1633 
Q 3022 1394 3022 966 
Q 3022 478 2636 193 
Q 2250 -91 1575 -91 
Q 1294 -91 989 -36 
Q 684 19 347 128 
L 347 722 
Q 666 556 975 473 
Q 1284 391 1588 391 
Q 1994 391 2212 530 
Q 2431 669 2431 922 
Q 2431 1156 2273 1281 
Q 2116 1406 1581 1522 
L 1381 1569 
Q 847 1681 609 1914 
Q 372 2147 372 2553 
Q 372 3047 722 3315 
Q 1072 3584 1716 3584 
Q 2034 3584 2315 3537 
Q 2597 3491 2834 3397 
z
" transform="scale(0.015625)"/>
       <path id="DejaVuSans-29" d="M 513 4856 
L 1013 4856 
Q 1481 4119 1714 3412 
Q 1947 2706 1947 2009 
Q 1947 1309 1714 600 
Q 1481 -109 1013 -844 
L 513 -844 
Q 928 -128 1133 580 
Q 1338 1288 1338 2009 
Q 1338 2731 1133 3434 
Q 928 4138 513 4856 
z
" transform="scale(0.015625)"/>
      </defs>
      <use xlink:href="#DejaVuSans-54"/>
      <use xlink:href="#DejaVuSans-69" x="57.958984"/>
      <use xlink:href="#DejaVuSans-6d" x="85.742188"/>
      <use xlink:href="#DejaVuSans-65" x="183.154297"/>
      <use xlink:href="#DejaVuSans-20" x="244.677734"/>
      <use xlink:href="#DejaVuSans-28" x="276.464844"/>
      <use xlink:href="#DejaVuSans-73" x="315.478516"/>
      <use xlink:href="#DejaVuSans-29" x="367.578125"/>
     </g>
    </g>
   </g>
   <g id="matplotlib.axis_2">
    <g id="ytick_1">
     <g id="line2d_15">
      <path d="M 57.6 307.584 
L 414.72 307.584 
" clip-path="url(#p87dded9205)" style="fill: none; stroke: #b0b0b0; stroke-width: 0.8; stroke-linecap: square"/>
     </g>
     <g id="line2d_16">
      <defs>
       <path id="m42855f2ba7" d="M 0 0 
L -3.5 0 
" style="stroke: #000000; stroke-width: 0.8"/>
      </defs>
      <g>
       <use xlink:href="#m42855f2ba7" x="57.6" y="307.584" style="stroke: #000000; stroke-width: 0.8"/>
      </g>
     </g>
     <g id="text_9">
      <!-- −0.0010 -->
      <g transform="translate(7.229687 311.383219) scale(0.1 -0.1)">
       <defs>
        <path id="DejaVuSans-2212" d="M 678 2272 
L 4684 2272 
L 4684 1741 
L 678 1741 
L 678 2272 
z
" transform="scale(0.015625)"/>
       </defs>
       <use xlink:href="#DejaVuSans-2212"/>
       <use xlink:href="#DejaVuSans-30" x="83.789062"/>
       <use xlink:href="#DejaVuSans-2e" x="147.412109"/>
       <use xlink:href="#DejaVuSans-30" x="179.199219"/>
       <use xlink:href="#DejaVuSans-30" x="242.822266"/>
       <use xlink:href="#DejaVuSans-31" x="306.445312"/>
       <use xlink:href="#DejaVuSans-30" x="370.068359"/>
      </g>
     </g>
    </g>
    <g id="ytick_2">
     <g id="line2d_17">
      <path d="M 57.6 274.32 
L 414.72 274.32 
" clip-path="url(#p87dded9205)" style="fill: none; stroke: #b0b0b0; stroke-width: 0.8; stroke-linecap: square"/>
     </g>
     <g id="line2d_18">
      <g>
       <use xlink:href="#m42855f2ba7" x="57.6" y="274.32" style="stroke: #000000; stroke-width: 0.8"/>
      </g>
     </g>
     <g id="text_10">
      <!-- −0.0005 -->
      <g transform="translate(7.229687 278.119219) scale(0.1 -0.1)">
       <use xlink:href="#DejaVuSans-2212"/>
       <use xlink:href="#DejaVuSans-30" x="83.789062"/>
       <use xlink:href="#DejaVuSans-2e" x="147.412109"/>
       <use xlink:href="#DejaVuSans-30" x="179.199219"/>
       <use xlink:href="#DejaVuSans-30" x="242.822266"/>
       <use xlink:href="#DejaVuSans-30" x="306.445312"/>
       <use xlink:href="#DejaVuSans-35" x="370.068359"/>
      </g>
     </g>
    </g>
    <g id="ytick_3">
     <g id="line2d_19">
      <path d="M 57.6 241.056 
L 414.72 241.056 
" clip-path="url(#p87dded9205)" style="fill: none; stroke: #b0b0b0; stroke-width: 0.8; stroke-linecap: square"/>
     </g>
     <g id="line2d_20">
      <g>
       <use xlink:href="#m42855f2ba7" x="57.6" y="241.056" style="stroke: #000000; stroke-width: 0.8"/>
      </g>
     </g>
     <g id="text_11">
      <!-- 0.0000 -->
      <g transform="translate(15.609375 244.855219) scale(0.1 -0.1)">
       <use xlink:href="#DejaVuSans-30"/>
       <use xlink:href="#DejaVuSans-2e" x="63.623047"/>
       <use xlink:href="#DejaVuSans-30" x="95.410156"/>
       <use xlink:href="#DejaVuSans-30" x="159.033203"/>
       <use xlink:href="#DejaVuSans-30" x="222.65625"/>
       <use xlink:href="#DejaVuSans-30" x="286.279297"/>
      </g>
     </g>
    </g>
    <g id="ytick_4">
     <g id="line2d_21">
      <path d="M 57.6 207.792 
L 414.72 207.792 
" clip-path="url(#p87dded9205)" style="fill: none; stroke: #b0b0b0; stroke-width: 0.8; stroke-linecap: square"/>
     </g>
     <g id="line2d_22">
      <g>
       <use xlink:href="#m42855f2ba7" x="57.6" y="207.792" style="stroke: #000000; stroke-width: 0.8"/>
      </g>
     </g>
     <g id="text_12">
      <!-- 0.0005 -->
      <g transform="translate(15.609375 211.591219) scale(0.1 -0.1)">
       <use xlink:href="#DejaVuSans-30"/>
       <use xlink:href="#DejaVuSans-2e" x="63.623047"/>
       <use xlink:href="#DejaVuSans-30" x="95.410156"/>
       <use xlink:href="#DejaVuSans-30" x="159.033203"/>
       <use xlink:href="#DejaVuSans-30" x="222.65625"/>
       <use xlink:href="#DejaVuSans-35" x="286.279297"/>
      </g>
     </g>
    </g>
    <g id="ytick_5">
     <g id="line2d_23">
      <path d="M 57.6 174.528 
L 414.72 174.528 
" clip-path="url(#p87dded9205)" style="fill: none; stroke: #b0b0b0; stroke-width: 0.8; stroke-linecap: square"/>
     </g>
     <g id="line2d_24">
      <g>
       <use xlink:href="#m42855f2ba7" x="57.6" y="174.528" style="stroke: #000000; stroke-width: 0.8"/>
      </g>
     </g>
     <g id="text_13">
      <!-- 0.0010 -->
      <g transform="translate(15.609375 178.327219) scale(0.1 -0.1)">
       <use xlink:href="#DejaVuSans-30"/>
       <use xlink:href="#DejaVuSans-2e" x="63.623047"/>
       <use xlink:href="#DejaVuSans-30" x="95.410156"/>
       <use xlink:href="#DejaVuSans-30" x="159.033203"/>
       <use xlink:href="#DejaVuSans-31" x="222.65625"/>
       <use xlink:href="#DejaVuSans-30" x="286.279297"/>
      </g>
     </g>
    </g>
    <g id="ytick_6">
     <g id="line2d_25">
      <path d="M 57.6 141.264 
L 414.72 141.264 
" clip-path="url(#p87dded9205)" style="fill: none; stroke: #b0b0b0; stroke-width: 0.8; stroke-linecap: square"/>
     </g>
     <g id="line2d_26">
      <g>
       <use xlink:href="#m42855f2ba7" x="57.6" y="141.264" style="stroke: #000000; stroke-width: 0.8"/>
      </g>
     </g>
     <g id="text_14">
      <!-- 0.0015 -->
      <g transform="translate(15.609375 145.063219) scale(0.1 -0.1)">
       <use xlink:href="#DejaVuSans-30"/>
       <use xlink:href="#DejaVuSans-2e" x="63.623047"/>
       <use xlink:href="#DejaVuSans-30" x="95.410156"/>
       <use xlink:href="#DejaVuSans-30" x="159.033203"/>
       <use xlink:href="#DejaVuSans-31" x="222.65625"/>
       <use xlink:href="#DejaVuSans-35" x="286.279297"/>
      </g>
     </g>
    </g>
    <g id="ytick_7">
     <g id="line2d_27">
      <path d="M 57.6 108 
L 414.72 108 
" clip-path="url(#p87dded9205)" style="fill: none; stroke: #b0b0b0; stroke-width: 0.8; stroke-linecap: square"/>
     </g>
     <g id="line2d_28">
      <g>
       <use xlink:href="#m42855f2ba7" x="57.6" y="108" style="stroke: #000000; stroke-width: 0.8"/>
      </g>
     </g>
     <g id="text_15">
      <!-- 0.0020 -->
      <g transform="translate(15.609375 111.799219) scale(0.1 -0.1)">
       <use xlink:href="#DejaVuSans-30"/>
       <use xlink:href="#DejaVuSans-2e" x="63.623047"/>
       <use xlink:href="#DejaVuSans-30" x="95.410156"/>
       <use xlink:href="#DejaVuSans-30" x="159.033203"/>
       <use xlink:href="#DejaVuSans-32" x="222.65625"/>
       <use xlink:href="#DejaVuSans-30" x="286.279297"/>
      </g>
     </g>
    </g>
    <g id="ytick_8">
     <g id="line2d_29">
      <path d="M 57.6 74.736 
L 414.72 74.736 
" clip-path="url(#p87dded9205)" style="fill: none; stroke: #b0b0b0; stroke-width: 0.8; stroke-linecap: square"/>
     </g>
     <g id="line2d_30">
      <g>
       <use xlink:href="#m42855f2ba7" x="57.6" y="74.736" style="stroke: #000000; stroke-width: 0.8"/>
      </g>
     </g>
     <g id="text_16">
      <!-- 0.0025 -->
      <g transform="translate(15.609375 78.535219) scale(0.1 -0.1)">
       <use xlink:href="#DejaVuSans-30"/>
       <use xlink:href="#DejaVuSans-2e" x="63.623047"/>
       <use xlink:href="#DejaVuSans-30" x="95.410156"/>
       <use xlink:href="#DejaVuSans-30" x="159.033203"/>
       <use xlink:href="#DejaVuSans-32" x="222.65625"/>
       <use xlink:href="#DejaVuSans-35" x="286.279297"/>
      </g>
     </g>
    </g>
    <g id="ytick_9">
     <g id="line2d_31">
      <path d="M 57.6 41.472 
L 414.72 41.472 
" clip-path="url(#p87dded9205)" style="fill: none; stroke: #b0b0b0; stroke-width: 0.8; stroke-linecap: square"/>
     </g>
     <g id="line2d_32">
      <g>
       <use xlink:href="#m42855f2ba7" x="57.6" y="41.472" style="stroke: #000000; stroke-width: 0.8"/>
      </g>
     </g>
     <g id="text_17">
      <!-- 0.0030 -->
      <g transform="translate(15.609375 45.271219) scale(0.1 -0.1)">
       <use xlink:href="#DejaVuSans-30"/>
       <use xlink:href="#DejaVuSans-2e" x="63.623047"/>
       <use xlink:href="#DejaVuSans-30" x="95.410156"/>
       <use xlink:href="#DejaVuSans-30" x="159.033203"/>
       <use xlink:href="#DejaVuSans-33" x="222.65625"/>
       <use xlink:href="#DejaVuSans-30" x="286.279297"/>
      </g>
     </g>
    </g>
    <g id="text_18">
     <!-- Amplitude -->
     <g transform="translate(1.15 200.150656) rotate(-90) scale(0.1 -0.1)">
      <defs>
       <path id="DejaVuSans-41" d="M 2188 4044 
L 1331 1722 
L 3047 1722 
L 2188 4044 
z
M 1831 4666 
L 2547 4666 
L 4325 0 
L 3669 0 
L 3244 1197 
L 1141 1197 
L 716 0 
L 50 0 
L 1831 4666 
z
" transform="scale(0.015625)"/>
       <path id="DejaVuSans-70" d="M 1159 525 
L 1159 -1331 
L 581 -1331 
L 581 3500 
L 1159 3500 
L 1159 2969 
Q 1341 3281 1617 3432 
Q 1894 3584 2278 3584 
Q 2916 3584 3314 3078 
Q 3713 2572 3713 1747 
Q 3713 922 3314 415 
Q 2916 -91 2278 -91 
Q 1894 -91 1617 61 
Q 1341 213 1159 525 
z
M 3116 1747 
Q 3116 2381 2855 2742 
Q 2594 3103 2138 3103 
Q 1681 3103 1420 2742 
Q 1159 2381 1159 1747 
Q 1159 1113 1420 752 
Q 1681 391 2138 391 
Q 2594 391 2855 752 
Q 3116 1113 3116 1747 
z
" transform="scale(0.015625)"/>
       <path id="DejaVuSans-6c" d="M 603 4863 
L 1178 4863 
L 1178 0 
L 603 0 
L 603 4863 
z
" transform="scale(0.015625)"/>
       <path id="DejaVuSans-74" d="M 1172 4494 
L 1172 3500 
L 2356 3500 
L 2356 3053 
L 1172 3053 
L 1172 1153 
Q 1172 725 1289 603 
Q 1406 481 1766 481 
L 2356 481 
L 2356 0 
L 1766 0 
Q 1100 0 847 248 
Q 594 497 594 1153 
L 594 3053 
L 172 3053 
L 172 3500 
L 594 3500 
L 594 4494 
L 1172 4494 
z
" transform="scale(0.015625)"/>
       <path id="DejaVuSans-75" d="M 544 1381 
L 544 3500 
L 1119 3500 
L 1119 1403 
Q 1119 906 1312 657 
Q 1506 409 1894 409 
Q 2359 409 2629 706 
Q 2900 1003 2900 1516 
L 2900 3500 
L 3475 3500 
L 3475 0 
L 2900 0 
L 2900 538 
Q 2691 219 2414 64 
Q 2138 -91 1772 -91 
Q 1169 -91 856 284 
Q 544 659 544 1381 
z
M 1991 3584 
L 1991 3584 
z
" transform="scale(0.015625)"/>
       <path id="DejaVuSans-64" d="M 2906 2969 
L 2906 4863 
L 3481 4863 
L 3481 0 
L 2906 0 
L 2906 525 
Q 2725 213 2448 61 
Q 2172 -91 1784 -91 
Q 1150 -91 751 415 
Q 353 922 353 1747 
Q 353 2572 751 3078 
Q 1150 3584 1784 3584 
Q 2172 3584 2448 3432 
Q 2725 3281 2906 2969 
z
M 947 1747 
Q 947 1113 1208 752 
Q 1469 391 1925 391 
Q 2381 391 2643 752 
Q 2906 1113 2906 1747 
Q 2906 2381 2643 2742 
Q 2381 3103 1925 3103 
Q 1469 3103 1208 2742 
Q 947 2381 947 1747 
z
" transform="scale(0.015625)"/>
      </defs>
      <use xlink:href="#DejaVuSans-41"/>
      <use xlink:href="#DejaVuSans-6d" x="68.408203"/>
      <use xlink:href="#DejaVuSans-70" x="165.820312"/>
      <use xlink:href="#DejaVuSans-6c" x="229.296875"/>
      <use xlink:href="#DejaVuSans-69" x="257.080078"/>
      <use xlink:href="#DejaVuSans-74" x="284.863281"/>
      <use xlink:href="#DejaVuSans-75" x="324.072266"/>
      <use xlink:href="#DejaVuSans-64" x="387.451172"/>
      <use xlink:href="#DejaVuSans-65" x="450.927734"/>
     </g>
    </g>
   </g>
   <g id="line2d_33">
    <path d="M 57.36192 234.14339 
L 57.6 235.537784 
L 58.07616 240.72938 
L 58.31424 240.538839 
L 58.55232 235.940232 
L 59.02848 245.051119 
L 59.26656 245.987736 
L 59.50464 245.189543 
L 60.21888 240.252118 
L 60.45696 241.489519 
L 60.69504 239.515053 
L 60.93312 241.529997 
L 61.1712 246.718457 
L 61.40928 244.710091 
L 61.64736 240.341083 
L 61.88544 244.331647 
L 62.12352 246.124828 
L 62.3616 244.036488 
L 62.83776 250.576797 
L 63.31392 246.00275 
L 63.552 246.379052 
L 63.79008 249.355495 
L 64.26624 246.27507 
L 64.7424 242.542496 
L 64.98048 245.616165 
L 65.21856 251.372412 
L 65.45664 254.349443 
L 65.9328 248.523388 
L 66.17088 250.495943 
L 66.40896 257.357241 
L 66.88512 251.803387 
L 67.1232 244.990637 
L 67.36128 234.533546 
L 67.59936 229.748846 
L 67.83744 221.561975 
L 69.74208 95.722739 
L 70.21824 88.223274 
L 70.45632 91.482719 
L 70.6944 104.607281 
L 71.40864 169.44283 
L 71.8848 222.99758 
L 72.59904 274.389267 
L 72.83712 279.937636 
L 73.0752 282.571655 
L 73.55136 289.634502 
L 73.78944 285.881758 
L 74.02752 285.58861 
L 74.50368 280.284521 
L 74.97984 287.654444 
L 75.21792 286.983838 
L 75.456 287.566959 
L 75.69408 286.808601 
L 75.93216 286.814775 
L 76.6464 278.416159 
L 76.88448 278.174343 
L 77.12256 279.629406 
L 77.36064 280.272726 
L 78.07488 273.051011 
L 78.31296 267.014311 
L 78.55104 268.285495 
L 78.78912 271.009169 
L 79.0272 263.128852 
L 79.26528 263.651182 
L 79.50336 265.068444 
L 79.74144 265.130068 
L 80.2176 255.758925 
L 80.45568 255.747401 
L 80.69376 257.175721 
L 80.93184 257.320808 
L 81.16992 260.083583 
L 81.408 256.90737 
L 81.88416 255.225103 
L 82.36032 250.538879 
L 82.5984 251.680164 
L 82.83648 255.47884 
L 83.07456 254.528655 
L 83.31264 255.217312 
L 83.55072 256.44889 
L 84.02688 245.791604 
L 84.26496 249.829284 
L 84.50304 251.851874 
L 84.74112 247.270093 
L 84.9792 245.900172 
L 85.21728 248.519317 
L 85.45536 248.160583 
L 85.93152 241.929108 
L 86.1696 241.969372 
L 86.64576 249.459469 
L 86.88384 249.035088 
L 87.12192 244.904432 
L 87.36 244.854324 
L 87.59808 245.379634 
L 88.07424 239.718921 
L 88.31232 239.361989 
L 88.5504 237.414485 
L 88.78848 238.709463 
L 89.02656 240.823842 
L 89.26464 240.135537 
L 89.50272 238.278412 
L 89.7408 238.032322 
L 89.97888 238.19088 
L 90.21696 240.030028 
L 90.9312 235.363629 
L 91.16928 232.575126 
L 91.40736 231.41086 
L 91.64544 238.144556 
L 91.88352 238.526495 
L 92.35968 232.310204 
L 92.59776 231.463009 
L 92.83584 236.665993 
L 93.07392 238.819349 
L 93.55008 236.066234 
L 93.78816 235.605109 
L 94.02624 233.739919 
L 94.26432 232.976087 
L 94.74048 229.657248 
L 94.97856 233.920305 
L 95.21664 236.141082 
L 95.45472 235.216061 
L 95.6928 231.268007 
L 96.16896 235.693741 
L 96.40704 236.705853 
L 96.64512 238.408409 
L 97.12128 235.174983 
L 97.35936 235.598929 
L 97.83552 241.499011 
L 98.0736 241.110236 
L 98.31168 243.162084 
L 98.54976 240.698972 
L 98.78784 239.475738 
L 99.02592 243.607716 
L 99.264 244.955471 
L 99.74016 248.912777 
L 99.97824 246.830732 
L 100.21632 247.697879 
L 100.69248 243.559965 
L 100.93056 245.525449 
L 101.40672 252.140953 
L 101.88288 246.656295 
L 102.12096 246.880039 
L 102.35904 251.765103 
L 102.59712 254.151234 
L 102.8352 251.78049 
L 103.31136 250.093629 
L 103.54944 252.753605 
L 103.78752 251.326116 
L 104.0256 248.237854 
L 104.26368 251.21892 
L 104.50176 251.351228 
L 104.73984 246.846972 
L 105.216 252.008694 
L 105.45408 251.415988 
L 105.69216 247.808241 
L 105.93024 248.242793 
L 106.16832 245.966244 
L 106.4064 246.891674 
L 107.12064 245.883907 
L 107.35872 245.28286 
L 107.5968 246.18476 
L 107.83488 245.603363 
L 108.07296 245.581441 
L 108.31104 248.137516 
L 108.54912 247.362017 
L 108.7872 248.85157 
L 109.02528 247.015798 
L 109.26336 243.468666 
L 109.50144 245.251824 
L 109.73952 245.71099 
L 109.9776 244.397563 
L 110.21568 244.391048 
L 110.69184 241.306983 
L 110.92992 241.273754 
L 111.168 244.882897 
L 111.40608 244.171143 
L 111.64416 239.124671 
L 111.88224 237.341291 
L 112.12032 243.280606 
L 112.59648 245.124386 
L 113.07264 241.473403 
L 113.5488 253.02461 
L 113.78688 246.027628 
L 114.02496 245.771849 
L 114.26304 248.425573 
L 114.50112 244.713268 
L 114.97728 244.20671 
L 115.21536 244.73538 
L 115.45344 243.10244 
L 115.69152 242.337018 
L 115.9296 242.555484 
L 116.16768 235.921273 
L 116.40576 236.582941 
L 116.64384 242.181728 
L 116.88192 243.821586 
L 117.12 242.008964 
L 117.35808 242.068256 
L 117.59616 243.093753 
L 117.83424 239.989953 
L 118.07232 241.132248 
L 118.54848 242.193374 
L 118.78656 243.335886 
L 119.26272 235.966353 
L 119.5008 238.404739 
L 119.73888 244.130945 
L 119.97696 245.463015 
L 120.45312 234.194846 
L 120.6912 234.132477 
L 120.92928 238.291796 
L 121.16736 249.342872 
L 121.40544 250.071063 
L 121.8816 241.685571 
L 122.11968 240.7975 
L 122.35776 241.584794 
L 123.072 249.955895 
L 123.31008 246.570335 
L 124.02432 242.712334 
L 124.2624 244.456676 
L 124.50048 245.067025 
L 124.73856 244.954878 
L 125.21472 242.477594 
L 125.4528 244.713205 
L 125.69088 242.190003 
L 125.92896 232.92039 
L 126.16704 237.22232 
L 126.40512 247.306168 
L 126.6432 243.701059 
L 126.88128 242.760337 
L 127.11936 242.697889 
L 127.35744 244.446018 
L 127.8336 243.012466 
L 128.30976 240.921645 
L 128.78592 244.692351 
L 129.50016 238.720207 
L 129.73824 238.812016 
L 129.97632 239.850904 
L 130.2144 244.08906 
L 130.45248 246.250558 
L 130.69056 243.854891 
L 130.92864 243.320953 
L 131.16672 244.722179 
L 131.4048 245.215933 
L 131.88096 239.347512 
L 132.11904 237.783124 
L 132.5952 244.86025 
L 132.83328 245.558861 
L 133.07136 240.526842 
L 133.30944 238.54225 
L 133.54752 245.468606 
L 133.7856 247.44131 
L 134.26176 242.348414 
L 134.49984 244.254651 
L 134.73792 244.930562 
L 134.976 242.954697 
L 135.21408 243.241346 
L 135.69024 238.326885 
L 135.92832 239.460237 
L 136.1664 239.736669 
L 136.40448 240.65277 
L 136.64256 244.028823 
L 136.88064 245.341466 
L 137.11872 242.812455 
L 137.3568 242.938333 
L 137.59488 243.590818 
L 137.83296 240.898882 
L 138.30912 247.256342 
L 138.78528 242.571158 
L 139.02336 243.746966 
L 139.26144 246.35868 
L 139.49952 242.766695 
L 139.7376 235.524529 
L 140.21376 247.429058 
L 140.45184 244.462999 
L 140.68992 236.057925 
L 140.928 236.486583 
L 141.16608 240.487116 
L 141.40416 240.108164 
L 141.64224 240.161771 
L 141.88032 240.753184 
L 142.1184 240.338971 
L 142.59456 244.519876 
L 142.83264 238.882104 
L 143.07072 244.170262 
L 143.3088 246.000168 
L 143.54688 243.021712 
L 143.78496 241.728261 
L 144.02304 242.879292 
L 144.4992 238.019429 
L 144.97536 244.863253 
L 145.21344 243.82052 
L 145.45152 242.095975 
L 145.6896 239.501603 
L 145.92768 243.446362 
L 146.16576 242.970401 
L 146.40384 241.59888 
L 146.64192 238.848708 
L 146.88 240.164432 
L 147.11808 240.138762 
L 147.35616 235.178902 
L 147.59424 236.023829 
L 147.83232 236.060142 
L 148.0704 234.003313 
L 148.30848 234.773175 
L 148.54656 233.992356 
L 148.78464 238.680238 
L 149.2608 236.549419 
L 149.49888 234.943414 
L 149.73696 235.803326 
L 150.21312 232.819078 
L 150.4512 232.261015 
L 150.68928 234.760966 
L 150.92736 234.505066 
L 151.16544 237.018541 
L 151.6416 231.081119 
L 151.87968 229.938818 
L 152.11776 235.160475 
L 152.35584 242.95411 
L 152.59392 244.572436 
L 152.832 238.891304 
L 153.07008 240.137892 
L 153.54624 244.964941 
L 154.0224 241.825906 
L 154.49856 245.897282 
L 154.73664 246.034954 
L 154.97472 248.336632 
L 155.2128 246.362596 
L 155.45088 247.157029 
L 155.68896 248.353399 
L 155.92704 250.761349 
L 156.16512 250.24889 
L 156.4032 248.352157 
L 156.64128 249.619504 
L 156.87936 249.101157 
L 157.11744 247.375875 
L 157.35552 248.453167 
L 157.83168 241.786135 
L 158.06976 247.738829 
L 158.30784 249.02335 
L 158.784 242.072718 
L 159.02208 246.844572 
L 159.26016 254.11804 
L 159.73632 249.376968 
L 159.9744 250.530824 
L 160.21248 248.275769 
L 160.68864 240.852058 
L 161.40288 214.642418 
L 161.87904 172.537738 
L 162.3552 151.583966 
L 163.06944 100.455193 
L 163.30752 96.249879 
L 163.5456 89.278376 
L 163.78368 93.771325 
L 164.25984 117.386905 
L 164.97408 181.900987 
L 165.68832 248.983464 
L 166.16448 272.087298 
L 166.40256 281.688288 
L 166.64064 286.60501 
L 166.87872 284.093721 
L 167.1168 284.389478 
L 167.35488 285.868686 
L 167.59296 285.559283 
L 167.83104 281.759243 
L 168.06912 281.797202 
L 168.3072 285.403881 
L 168.54528 287.039924 
L 168.78336 289.505158 
L 169.25952 280.632217 
L 169.4976 280.679064 
L 169.73568 282.269704 
L 169.97376 282.171613 
L 170.21184 278.07944 
L 170.44992 276.094452 
L 170.688 275.416451 
L 170.92608 271.41348 
L 171.16416 271.418322 
L 171.64032 266.979128 
L 171.8784 269.891953 
L 172.11648 269.79323 
L 172.35456 266.972584 
L 172.83072 265.657359 
L 173.0688 261.459202 
L 173.30688 261.126668 
L 173.54496 264.173275 
L 173.78304 263.319521 
L 174.02112 261.023393 
L 174.2592 261.519583 
L 174.49728 259.973882 
L 174.73536 254.461892 
L 175.21152 257.65092 
L 175.4496 253.055925 
L 175.68768 251.434695 
L 175.92576 252.222857 
L 176.16384 256.278956 
L 176.40192 257.651169 
L 176.87808 246.848273 
L 177.11616 250.954568 
L 177.35424 252.106623 
L 177.59232 246.304281 
L 177.8304 247.089037 
L 178.06848 249.809553 
L 178.30656 247.139221 
L 178.54464 247.541598 
L 178.78272 246.632944 
L 179.0208 247.053066 
L 179.25888 246.63074 
L 179.49696 245.429626 
L 179.73504 247.750855 
L 179.97312 247.563432 
L 180.2112 243.753641 
L 180.44928 243.9155 
L 180.68736 245.623363 
L 180.92544 243.822071 
L 181.16352 239.481201 
L 181.4016 240.116645 
L 181.63968 242.481978 
L 181.87776 242.291823 
L 182.11584 240.60024 
L 182.35392 237.731193 
L 182.592 238.282328 
L 182.83008 236.224516 
L 183.06816 237.421196 
L 183.30624 241.986561 
L 183.54432 238.223836 
L 183.7824 232.472306 
L 184.02048 235.493465 
L 184.25856 235.247531 
L 184.73472 238.360494 
L 184.9728 242.368393 
L 185.21088 241.794235 
L 185.68704 227.831142 
L 185.92512 228.562253 
L 186.1632 237.357767 
L 186.40128 241.882855 
L 186.87744 235.30503 
L 187.11552 235.65822 
L 187.3536 235.43252 
L 187.59168 233.818366 
L 188.06784 238.30678 
L 188.544 234.881956 
L 188.78208 232.09616 
L 189.02016 233.452722 
L 189.25824 233.367094 
L 189.49632 230.45966 
L 189.7344 228.948897 
L 189.97248 230.280169 
L 190.21056 234.098214 
L 190.44864 239.814937 
L 190.68672 239.463776 
L 190.9248 235.852573 
L 191.16288 233.972372 
L 191.87712 243.800361 
L 192.1152 244.404524 
L 192.35328 242.539423 
L 192.59136 242.772526 
L 193.06752 245.670848 
L 193.3056 249.067248 
L 193.54368 246.727836 
L 194.25792 246.758715 
L 194.496 248.606921 
L 194.73408 249.219389 
L 194.97216 244.434396 
L 195.44832 251.662776 
L 195.92448 248.414894 
L 196.40064 248.936246 
L 196.63872 249.37156 
L 197.11488 252.401641 
L 197.35296 251.844144 
L 197.59104 247.939587 
L 197.82912 248.729976 
L 198.0672 250.514945 
L 198.54336 246.603185 
L 199.01952 253.610577 
L 199.2576 250.782693 
L 199.49568 243.534584 
L 199.97184 248.935025 
L 200.20992 248.321496 
L 200.448 244.595117 
L 200.68608 245.252945 
L 200.92416 247.992201 
L 201.16224 249.415722 
L 201.6384 241.429291 
L 201.87648 242.565733 
L 202.35264 248.784127 
L 202.59072 247.870167 
L 202.8288 241.309317 
L 203.06688 239.272125 
L 203.30496 240.721592 
L 203.54304 236.15119 
L 204.0192 246.322412 
L 204.25728 243.22848 
L 204.49536 242.776361 
L 204.73344 242.7632 
L 204.97152 240.237822 
L 205.44768 244.326364 
L 205.68576 244.774244 
L 206.16192 238.758857 
L 206.4 239.269413 
L 206.63808 240.90621 
L 206.87616 239.86842 
L 207.11424 242.855708 
L 207.35232 240.642825 
L 207.5904 241.564434 
L 207.82848 244.18464 
L 208.06656 243.276872 
L 208.54272 247.418036 
L 208.7808 244.23426 
L 209.01888 243.189905 
L 209.25696 240.270436 
L 209.49504 242.97396 
L 209.73312 242.041429 
L 209.9712 242.619357 
L 210.20928 242.112886 
L 210.68544 240.310261 
L 210.92352 240.695412 
L 211.1616 241.66419 
L 211.39968 241.600653 
L 211.63776 241.410871 
L 211.87584 239.164993 
L 212.11392 238.797191 
L 212.352 239.643049 
L 212.59008 242.77888 
L 212.82816 243.699884 
L 213.06624 242.392241 
L 213.30432 245.942129 
L 213.78048 242.572611 
L 214.25664 244.865187 
L 214.49472 245.440879 
L 214.7328 245.71079 
L 215.44704 235.994854 
L 215.9232 237.090799 
L 216.16128 239.892233 
L 216.39936 244.143046 
L 216.63744 240.731484 
L 216.87552 241.061756 
L 217.1136 244.836674 
L 217.35168 242.568144 
L 217.58976 246.663035 
L 217.82784 247.799951 
L 218.06592 247.921783 
L 218.304 242.789129 
L 218.78016 237.967297 
L 219.01824 239.492285 
L 219.25632 239.765966 
L 219.4944 241.884453 
L 219.73248 240.584905 
L 219.97056 241.475342 
L 220.44672 244.152165 
L 220.6848 245.567691 
L 220.92288 248.023033 
L 221.39904 242.917568 
L 221.63712 245.027626 
L 221.8752 245.334759 
L 222.11328 241.288688 
L 222.35136 243.838018 
L 222.58944 243.51523 
L 222.82752 241.428359 
L 223.0656 238.195676 
L 223.54176 244.422911 
L 223.77984 240.657141 
L 224.01792 238.867692 
L 224.256 243.199727 
L 224.49408 243.739092 
L 224.73216 240.240474 
L 224.97024 240.032062 
L 225.20832 241.614374 
L 225.4464 241.714769 
L 225.68448 240.084267 
L 225.92256 240.655649 
L 226.16064 243.14787 
L 226.39872 242.884673 
L 226.6368 241.116648 
L 226.87488 237.916197 
L 227.11296 239.849444 
L 227.35104 246.527637 
L 227.58912 245.29516 
L 227.8272 240.842227 
L 228.06528 239.373407 
L 228.30336 239.344654 
L 228.54144 239.829644 
L 228.77952 243.459191 
L 229.0176 244.955939 
L 229.25568 242.142489 
L 229.49376 241.115158 
L 229.73184 241.370075 
L 229.96992 245.565328 
L 230.208 244.582827 
L 230.44608 241.704215 
L 230.68416 241.552106 
L 231.16032 243.961911 
L 231.3984 243.003168 
L 231.63648 243.734595 
L 231.87456 244.075152 
L 232.11264 243.786709 
L 232.5888 233.781074 
L 233.06496 245.610168 
L 233.30304 246.441264 
L 233.7792 237.615251 
L 234.01728 239.598976 
L 234.25536 237.445125 
L 234.73152 243.452922 
L 234.9696 244.477569 
L 235.20768 244.777018 
L 235.44576 240.073444 
L 235.68384 238.721719 
L 235.92192 235.263338 
L 236.16 242.398977 
L 236.39808 244.835495 
L 236.87424 243.580243 
L 237.11232 243.292606 
L 237.3504 243.996957 
L 237.82656 247.027787 
L 238.30272 239.964155 
L 238.5408 239.098827 
L 239.01696 244.946431 
L 239.25504 241.837407 
L 239.96928 238.86944 
L 240.68352 246.4646 
L 240.9216 245.023313 
L 241.15968 242.086475 
L 241.39776 243.795612 
L 241.63584 241.898947 
L 241.87392 241.820101 
L 242.112 242.037235 
L 242.35008 242.436373 
L 242.82624 238.051002 
L 243.06432 237.329504 
L 243.3024 239.37321 
L 243.54048 238.219808 
L 244.01664 239.321691 
L 244.25472 239.280228 
L 244.4928 237.791237 
L 244.73088 235.123992 
L 244.96896 235.321189 
L 245.20704 237.887855 
L 245.6832 227.717761 
L 245.92128 229.906765 
L 246.39744 231.89303 
L 246.63552 229.306826 
L 246.8736 231.711197 
L 247.34976 239.274106 
L 247.58784 238.302872 
L 247.82592 238.435282 
L 248.064 241.492006 
L 248.30208 241.942241 
L 248.54016 240.961442 
L 248.77824 243.118528 
L 249.01632 241.357076 
L 249.2544 236.524434 
L 249.49248 237.15266 
L 249.73056 241.316136 
L 249.96864 242.602476 
L 250.20672 247.861392 
L 250.68288 243.243691 
L 251.15904 248.642555 
L 251.39712 248.219596 
L 251.6352 245.662327 
L 251.87328 246.774321 
L 252.11136 248.864776 
L 252.58752 246.097065 
L 252.8256 247.779011 
L 253.30176 248.665865 
L 253.53984 250.971474 
L 254.016 248.275279 
L 254.25408 248.949439 
L 254.49216 246.793787 
L 254.96832 246.208619 
L 255.44448 250.088018 
L 255.68256 250.309826 
L 255.92064 247.148275 
L 256.15872 246.613838 
L 256.3968 246.710994 
L 256.63488 247.838902 
L 256.87296 249.580669 
L 257.11104 242.771079 
L 257.5872 221.402157 
L 258.06336 202.477072 
L 259.49184 104.476786 
L 259.72992 98.613047 
L 259.968 96.292334 
L 260.20608 100.882688 
L 260.68224 122.469406 
L 261.39648 187.075437 
L 262.11072 251.077341 
L 262.82496 273.173178 
L 263.06304 281.020066 
L 263.30112 284.336821 
L 263.5392 285.270874 
L 263.77728 283.929423 
L 264.01536 285.477453 
L 264.25344 287.931739 
L 264.49152 286.818426 
L 264.7296 289.493054 
L 264.96768 288.108453 
L 265.20576 288.453281 
L 265.92 282.412222 
L 266.39616 276.473684 
L 266.63424 276.955704 
L 266.87232 275.467459 
L 267.34848 277.996454 
L 268.3008 271.074014 
L 269.25312 261.752899 
L 269.72928 257.141356 
L 269.96736 259.736907 
L 270.20544 259.698745 
L 270.44352 260.480813 
L 270.6816 263.683975 
L 270.91968 262.581909 
L 271.39584 250.498222 
L 271.872 261.17656 
L 272.11008 258.848045 
L 272.34816 254.360588 
L 272.82432 250.891205 
L 273.30048 252.768691 
L 273.53856 255.963959 
L 274.01472 248.434394 
L 274.2528 248.918016 
L 274.49088 246.096737 
L 274.72896 244.878216 
L 274.96704 246.776942 
L 275.4432 244.097272 
L 275.68128 244.957068 
L 275.91936 242.083483 
L 276.6336 247.801302 
L 276.87168 247.503756 
L 277.10976 246.470195 
L 277.34784 246.098045 
L 277.58592 241.487582 
L 277.824 240.238435 
L 278.06208 239.89169 
L 278.30016 238.579923 
L 278.53824 245.166123 
L 278.77632 243.571874 
L 279.25248 236.890669 
L 279.49056 235.811754 
L 279.72864 241.557112 
L 279.96672 243.925664 
L 280.2048 240.130852 
L 280.44288 239.98179 
L 280.91904 237.243598 
L 281.15712 237.827937 
L 281.3952 237.664238 
L 281.63328 238.482131 
L 281.87136 236.308542 
L 282.10944 236.843279 
L 282.34752 236.142718 
L 282.5856 231.579895 
L 283.06176 235.921547 
L 283.29984 236.921005 
L 283.53792 232.561828 
L 283.776 230.624229 
L 284.01408 230.940275 
L 284.25216 233.392537 
L 284.49024 234.197178 
L 284.72832 233.30662 
L 284.9664 230.918275 
L 285.20448 230.846581 
L 285.44256 234.453722 
L 285.68064 234.015257 
L 286.1568 231.939442 
L 286.39488 232.931645 
L 286.63296 236.22812 
L 286.87104 235.818999 
L 287.10912 235.855107 
L 287.3472 239.707559 
L 287.58528 239.635863 
L 287.82336 236.420873 
L 288.5376 243.538915 
L 288.77568 244.342681 
L 289.01376 243.76703 
L 289.48992 244.779134 
L 289.728 245.355547 
L 289.96608 243.902927 
L 290.20416 244.688247 
L 290.44224 248.023844 
L 290.68032 248.68995 
L 291.15648 245.420681 
L 291.39456 246.380796 
L 291.63264 248.472714 
L 291.87072 252.140945 
L 292.1088 251.17094 
L 292.34688 247.474286 
L 292.58496 246.684157 
L 292.82304 247.655147 
L 293.06112 247.724109 
L 293.2992 248.050829 
L 293.77536 246.474749 
L 294.25152 251.167371 
L 294.72768 244.70188 
L 294.96576 243.377116 
L 295.20384 246.5747 
L 295.44192 245.850353 
L 295.68 245.699723 
L 296.15616 242.670352 
L 296.63232 249.25979 
L 296.8704 249.840169 
L 297.10848 251.988392 
L 297.34656 251.208709 
L 297.58464 246.89218 
L 297.82272 247.981882 
L 298.0608 252.166169 
L 298.29888 249.464803 
L 298.53696 244.842381 
L 298.77504 242.997656 
L 299.01312 242.353741 
L 299.48928 247.829796 
L 299.96544 246.058969 
L 300.4416 240.836268 
L 300.67968 245.55159 
L 300.91776 244.937717 
L 301.15584 241.840132 
L 301.39392 244.403702 
L 301.632 238.092175 
L 301.87008 235.912285 
L 302.10816 240.386697 
L 302.34624 242.091796 
L 302.58432 242.427292 
L 302.8224 242.470871 
L 303.06048 241.300181 
L 303.53664 245.101453 
L 303.77472 243.680001 
L 304.0128 243.717405 
L 304.25088 244.225816 
L 304.48896 241.425424 
L 304.72704 240.189428 
L 304.96512 241.548986 
L 305.2032 245.656392 
L 305.44128 246.570207 
L 305.91744 239.065167 
L 306.15552 239.849282 
L 306.3936 242.499337 
L 306.63168 243.015782 
L 307.10784 238.784232 
L 307.34592 239.207477 
L 307.584 241.947067 
L 307.82208 243.063122 
L 308.06016 242.26474 
L 308.29824 240.093519 
L 308.53632 242.634746 
L 308.7744 239.946381 
L 309.01248 239.346556 
L 309.25056 245.011724 
L 309.48864 245.372272 
L 309.72672 244.348546 
L 309.9648 245.607752 
L 310.20288 244.737118 
L 310.44096 245.31379 
L 310.67904 244.328764 
L 310.91712 248.300249 
L 311.1552 248.131399 
L 311.39328 242.743575 
L 311.63136 243.308906 
L 311.86944 244.332292 
L 312.10752 243.547527 
L 312.58368 241.602181 
L 313.05984 244.011134 
L 313.29792 243.816574 
L 313.536 245.623849 
L 313.77408 246.157721 
L 314.01216 245.200657 
L 314.25024 245.330083 
L 314.48832 245.119154 
L 314.7264 244.452649 
L 314.96448 245.334172 
L 315.20256 244.15172 
L 315.44064 240.671126 
L 315.67872 243.42707 
L 315.9168 242.479808 
L 316.15488 242.130778 
L 316.39296 240.059114 
L 316.63104 240.248568 
L 317.1072 246.280997 
L 317.34528 246.367844 
L 317.82144 240.20227 
L 318.05952 242.550335 
L 318.2976 242.612466 
L 318.53568 244.314303 
L 318.77376 242.85929 
L 319.01184 242.516559 
L 319.24992 239.833401 
L 319.72608 243.514098 
L 319.96416 243.864636 
L 320.20224 240.607767 
L 320.91648 245.326722 
L 321.15456 245.95639 
L 321.63072 236.259831 
L 321.8688 237.430195 
L 322.34496 247.723537 
L 322.82112 241.463425 
L 323.29728 246.533217 
L 323.77344 240.213687 
L 324.01152 244.2709 
L 324.2496 244.067859 
L 324.72576 249.028556 
L 324.96384 244.16999 
L 325.44 240.928318 
L 325.91616 243.214745 
L 326.39232 249.450903 
L 326.86848 237.44561 
L 327.10656 240.281546 
L 327.34464 241.154889 
L 327.58272 240.855841 
L 327.8208 241.640374 
L 328.05888 241.200451 
L 328.29696 242.707398 
L 328.53504 243.270089 
L 328.77312 240.012514 
L 329.0112 241.143946 
L 329.72544 245.657523 
L 329.96352 244.496961 
L 330.2016 240.890022 
L 330.43968 241.606584 
L 330.67776 244.483851 
L 330.91584 243.74853 
L 331.15392 238.930766 
L 331.392 237.751602 
L 331.63008 237.753131 
L 331.86816 237.922923 
L 332.10624 236.770631 
L 332.34432 235.043562 
L 332.5824 232.287196 
L 332.82048 231.51082 
L 333.05856 233.052886 
L 333.29664 238.956121 
L 333.53472 237.723782 
L 333.7728 234.515422 
L 334.01088 236.186397 
L 334.24896 233.936911 
L 334.48704 233.900988 
L 334.72512 234.250971 
L 334.9632 235.317037 
L 335.20128 235.14307 
L 335.43936 236.444569 
L 335.67744 236.182229 
L 335.91552 238.578486 
L 336.1536 237.126273 
L 336.39168 233.718963 
L 336.62976 234.934456 
L 337.10592 240.550931 
L 337.344 240.479945 
L 337.58208 242.909829 
L 337.82016 242.388308 
L 338.05824 239.36953 
L 338.29632 240.77979 
L 338.5344 245.652422 
L 338.77248 244.684862 
L 339.24864 249.667545 
L 339.7248 248.391964 
L 339.96288 247.264866 
L 340.20096 244.754493 
L 340.43904 244.344625 
L 340.67712 247.66661 
L 340.9152 249.11391 
L 341.15328 247.524559 
L 341.39136 247.208256 
L 341.62944 250.044489 
L 341.86752 250.227728 
L 342.1056 246.856246 
L 342.34368 247.481087 
L 342.81984 244.569669 
L 343.296 245.967161 
L 343.77216 248.726842 
L 344.01024 250.754258 
L 344.4864 256.834927 
L 344.72448 255.945767 
L 344.96256 252.484339 
L 345.20064 247.384828 
L 345.43872 245.103864 
L 345.6768 238.015205 
L 346.62912 187.357084 
L 348.0576 102.851599 
L 348.29568 97.991335 
L 348.53376 95.774919 
L 348.77184 104.322528 
L 349.248 134.022929 
L 349.96224 197.642257 
L 350.4384 249.618516 
L 350.91456 268.225476 
L 351.39072 280.246994 
L 351.6288 283.703497 
L 351.86688 285.14939 
L 352.34304 282.857395 
L 352.58112 279.739168 
L 352.8192 279.2026 
L 353.77152 288.737981 
L 354.24768 280.937189 
L 354.48576 282.088227 
L 354.72384 281.524281 
L 354.96192 281.456254 
L 355.2 281.589705 
L 355.67616 273.850196 
L 355.91424 270.79507 
L 356.15232 271.397102 
L 356.3904 273.065092 
L 356.62848 268.009013 
L 356.86656 266.298521 
L 357.10464 268.639469 
L 357.5808 264.480507 
L 357.81888 264.237744 
L 358.05696 265.130671 
L 358.29504 263.248154 
L 358.53312 258.442895 
L 358.7712 262.855431 
L 359.00928 263.136932 
L 359.24736 260.744877 
L 359.72352 253.366601 
L 359.9616 254.31202 
L 360.19968 253.477916 
L 360.43776 254.997865 
L 360.67584 257.477975 
L 361.152 252.601208 
L 361.39008 253.081234 
L 361.62816 251.843238 
L 361.86624 251.525086 
L 362.10432 254.882251 
L 362.81856 247.487073 
L 363.05664 246.712597 
L 363.29472 246.333623 
L 364.00896 241.599254 
L 364.48512 245.912036 
L 364.7232 240.98666 
L 364.96128 239.340463 
L 365.43744 249.107279 
L 365.9136 244.392708 
L 366.15168 247.52381 
L 366.38976 246.872387 
L 366.62784 246.557203 
L 366.86592 242.746852 
L 367.104 244.651821 
L 367.58016 239.421444 
L 367.81824 241.218492 
L 368.2944 239.569973 
L 368.53248 239.223461 
L 368.77056 235.9804 
L 369.00864 234.536717 
L 369.24672 237.14879 
L 369.4848 235.68318 
L 369.72288 236.050424 
L 369.96096 235.852775 
L 370.19904 235.894194 
L 370.43712 234.611477 
L 370.6752 231.084914 
L 371.62752 238.366777 
L 371.8656 231.623314 
L 372.10368 228.807153 
L 372.34176 233.080296 
L 372.57984 234.197557 
L 372.81792 233.447121 
L 373.056 236.918936 
L 373.29408 235.881971 
L 373.53216 235.427252 
L 373.77024 235.916738 
L 374.2464 241.128298 
L 374.48448 242.285586 
L 374.96064 237.760074 
L 375.19872 238.76089 
L 375.4368 238.899968 
L 375.67488 237.705704 
L 375.91296 239.121298 
L 376.15104 238.316303 
L 376.38912 236.063264 
L 376.6272 239.096312 
L 377.34144 239.539001 
L 377.57952 238.211078 
L 378.05568 248.799255 
L 378.29376 247.814993 
L 378.53184 246.038838 
L 378.76992 247.468439 
L 379.48416 249.007565 
L 379.72224 247.264912 
L 379.96032 250.003671 
L 380.1984 251.367998 
L 380.67456 245.631348 
L 381.15072 252.865815 
L 381.3888 248.452344 
L 381.62688 249.073015 
L 381.86496 252.85334 
L 382.34112 254.005056 
L 382.81728 244.689297 
L 383.05536 243.780937 
L 384.00768 253.15825 
L 384.48384 243.964359 
L 384.72192 245.949769 
L 384.96 249.955245 
L 385.19808 249.943909 
L 385.43616 247.021523 
L 385.67424 241.311021 
L 385.91232 240.315331 
L 386.1504 243.366843 
L 386.38848 244.240593 
L 386.62656 244.528837 
L 386.86464 245.572331 
L 387.10272 245.175807 
L 387.3408 248.503261 
L 387.81696 246.879714 
L 388.05504 249.252162 
L 388.29312 246.146532 
L 388.5312 239.637194 
L 388.76928 238.990468 
L 389.00736 242.05214 
L 389.24544 242.87954 
L 389.48352 239.734245 
L 389.95968 241.612398 
L 390.19776 238.983008 
L 390.43584 238.85104 
L 390.67392 241.804501 
L 390.912 248.123792 
L 391.15008 245.951296 
L 391.38816 244.846332 
L 391.62624 245.444791 
L 391.86432 242.640104 
L 392.1024 241.467761 
L 392.34048 241.729735 
L 392.57856 243.239771 
L 392.81664 242.399363 
L 393.05472 242.021936 
L 393.2928 242.035301 
L 393.53088 241.234857 
L 393.76896 241.01487 
L 394.24512 239.988836 
L 394.72128 244.879987 
L 395.19744 238.232637 
L 395.43552 239.041904 
L 395.6736 242.237943 
L 395.91168 241.7586 
L 396.38784 243.776404 
L 396.62592 240.812747 
L 396.864 240.805635 
L 397.34016 245.664235 
L 397.57824 244.834911 
L 397.81632 245.557407 
L 398.0544 245.448884 
L 398.29248 243.018215 
L 398.53056 242.004228 
L 398.76864 242.091918 
L 399.00672 241.186588 
L 399.2448 242.066939 
L 399.48288 241.776558 
L 399.72096 240.910632 
L 399.95904 239.307829 
L 400.19712 239.021845 
L 400.4352 242.701402 
L 400.67328 243.961125 
L 400.91136 241.937024 
L 401.14944 241.331077 
L 401.38752 241.217872 
L 401.86368 236.413623 
L 402.33984 244.173371 
L 402.57792 237.28951 
L 402.816 235.600578 
L 403.05408 241.88009 
L 403.29216 243.253027 
L 403.53024 241.338462 
L 404.0064 245.764406 
L 404.24448 243.199225 
L 404.48256 245.013123 
L 404.72064 248.250833 
L 404.95872 246.187929 
L 405.1968 241.647071 
L 405.43488 241.640151 
L 405.67296 244.723086 
L 405.91104 242.344092 
L 406.14912 236.259551 
L 406.3872 237.102675 
L 406.62528 243.926359 
L 406.86336 247.281192 
L 407.10144 245.796377 
L 407.5776 235.93992 
L 407.81568 236.891762 
L 408.29184 249.869023 
L 408.52992 246.747959 
L 408.768 237.746965 
L 409.00608 236.199931 
L 409.48224 243.214725 
L 409.9584 244.964777 
L 410.19648 243.766363 
L 410.43456 239.635085 
L 410.91072 247.47211 
L 411.1488 245.543325 
L 411.62496 238.320576 
L 412.10112 243.930478 
L 412.3392 242.920592 
L 412.57728 240.750745 
L 412.81536 237.141826 
L 413.05344 236.972214 
L 413.5296 243.068523 
L 413.76768 244.239584 
L 414.00576 242.726225 
L 414.24384 243.724224 
L 414.48192 240.826528 
L 414.72 240.21624 
L 414.95808 240.205182 
L 414.95808 240.205182 
" clip-path="url(#p87dded9205)" style="fill: none; stroke: #1f77b4; stroke-width: 1.5; stroke-linecap: square"/>
   </g>
   <g id="patch_3">
    <path d="M 57.6 307.584 
L 57.6 41.472 
" style="fill: none; stroke: #000000; stroke-width: 0.8; stroke-linejoin: miter; stroke-linecap: square"/>
   </g>
   <g id="patch_4">
    <path d="M 414.72 307.584 
L 414.72 41.472 
" style="fill: none; stroke: #000000; stroke-width: 0.8; stroke-linejoin: miter; stroke-linecap: square"/>
   </g>
   <g id="patch_5">
    <path d="M 57.6 307.584 
L 414.72 307.584 
" style="fill: none; stroke: #000000; stroke-width: 0.8; stroke-linejoin: miter; stroke-linecap: square"/>
   </g>
   <g id="patch_6">
    <path d="M 57.6 41.472 
L 414.72 41.472 
" style="fill: none; stroke: #000000; stroke-width: 0.8; stroke-linejoin: miter; stroke-linecap: square"/>
   </g>
   <g id="text_19">
    <!-- Heartrate Sample Zoomed in - Realtime Adaptive LMS FIR Filtered -->
    <g transform="translate(38.189063 35.472) scale(0.12 -0.12)">
     <defs>
      <path id="DejaVuSans-48" d="M 628 4666 
L 1259 4666 
L 1259 2753 
L 3553 2753 
L 3553 4666 
L 4184 4666 
L 4184 0 
L 3553 0 
L 3553 2222 
L 1259 2222 
L 1259 0 
L 628 0 
L 628 4666 
z
" transform="scale(0.015625)"/>
      <path id="DejaVuSans-61" d="M 2194 1759 
Q 1497 1759 1228 1600 
Q 959 1441 959 1056 
Q 959 750 1161 570 
Q 1363 391 1709 391 
Q 2188 391 2477 730 
Q 2766 1069 2766 1631 
L 2766 1759 
L 2194 1759 
z
M 3341 1997 
L 3341 0 
L 2766 0 
L 2766 531 
Q 2569 213 2275 61 
Q 1981 -91 1556 -91 
Q 1019 -91 701 211 
Q 384 513 384 1019 
Q 384 1609 779 1909 
Q 1175 2209 1959 2209 
L 2766 2209 
L 2766 2266 
Q 2766 2663 2505 2880 
Q 2244 3097 1772 3097 
Q 1472 3097 1187 3025 
Q 903 2953 641 2809 
L 641 3341 
Q 956 3463 1253 3523 
Q 1550 3584 1831 3584 
Q 2591 3584 2966 3190 
Q 3341 2797 3341 1997 
z
" transform="scale(0.015625)"/>
      <path id="DejaVuSans-72" d="M 2631 2963 
Q 2534 3019 2420 3045 
Q 2306 3072 2169 3072 
Q 1681 3072 1420 2755 
Q 1159 2438 1159 1844 
L 1159 0 
L 581 0 
L 581 3500 
L 1159 3500 
L 1159 2956 
Q 1341 3275 1631 3429 
Q 1922 3584 2338 3584 
Q 2397 3584 2469 3576 
Q 2541 3569 2628 3553 
L 2631 2963 
z
" transform="scale(0.015625)"/>
      <path id="DejaVuSans-53" d="M 3425 4513 
L 3425 3897 
Q 3066 4069 2747 4153 
Q 2428 4238 2131 4238 
Q 1616 4238 1336 4038 
Q 1056 3838 1056 3469 
Q 1056 3159 1242 3001 
Q 1428 2844 1947 2747 
L 2328 2669 
Q 3034 2534 3370 2195 
Q 3706 1856 3706 1288 
Q 3706 609 3251 259 
Q 2797 -91 1919 -91 
Q 1588 -91 1214 -16 
Q 841 59 441 206 
L 441 856 
Q 825 641 1194 531 
Q 1563 422 1919 422 
Q 2459 422 2753 634 
Q 3047 847 3047 1241 
Q 3047 1584 2836 1778 
Q 2625 1972 2144 2069 
L 1759 2144 
Q 1053 2284 737 2584 
Q 422 2884 422 3419 
Q 422 4038 858 4394 
Q 1294 4750 2059 4750 
Q 2388 4750 2728 4690 
Q 3069 4631 3425 4513 
z
" transform="scale(0.015625)"/>
      <path id="DejaVuSans-5a" d="M 359 4666 
L 4025 4666 
L 4025 4184 
L 1075 531 
L 4097 531 
L 4097 0 
L 288 0 
L 288 481 
L 3238 4134 
L 359 4134 
L 359 4666 
z
" transform="scale(0.015625)"/>
      <path id="DejaVuSans-6f" d="M 1959 3097 
Q 1497 3097 1228 2736 
Q 959 2375 959 1747 
Q 959 1119 1226 758 
Q 1494 397 1959 397 
Q 2419 397 2687 759 
Q 2956 1122 2956 1747 
Q 2956 2369 2687 2733 
Q 2419 3097 1959 3097 
z
M 1959 3584 
Q 2709 3584 3137 3096 
Q 3566 2609 3566 1747 
Q 3566 888 3137 398 
Q 2709 -91 1959 -91 
Q 1206 -91 779 398 
Q 353 888 353 1747 
Q 353 2609 779 3096 
Q 1206 3584 1959 3584 
z
" transform="scale(0.015625)"/>
      <path id="DejaVuSans-6e" d="M 3513 2113 
L 3513 0 
L 2938 0 
L 2938 2094 
Q 2938 2591 2744 2837 
Q 2550 3084 2163 3084 
Q 1697 3084 1428 2787 
Q 1159 2491 1159 1978 
L 1159 0 
L 581 0 
L 581 3500 
L 1159 3500 
L 1159 2956 
Q 1366 3272 1645 3428 
Q 1925 3584 2291 3584 
Q 2894 3584 3203 3211 
Q 3513 2838 3513 2113 
z
" transform="scale(0.015625)"/>
      <path id="DejaVuSans-2d" d="M 313 2009 
L 1997 2009 
L 1997 1497 
L 313 1497 
L 313 2009 
z
" transform="scale(0.015625)"/>
      <path id="DejaVuSans-52" d="M 2841 2188 
Q 3044 2119 3236 1894 
Q 3428 1669 3622 1275 
L 4263 0 
L 3584 0 
L 2988 1197 
Q 2756 1666 2539 1819 
Q 2322 1972 1947 1972 
L 1259 1972 
L 1259 0 
L 628 0 
L 628 4666 
L 2053 4666 
Q 2853 4666 3247 4331 
Q 3641 3997 3641 3322 
Q 3641 2881 3436 2590 
Q 3231 2300 2841 2188 
z
M 1259 4147 
L 1259 2491 
L 2053 2491 
Q 2509 2491 2742 2702 
Q 2975 2913 2975 3322 
Q 2975 3731 2742 3939 
Q 2509 4147 2053 4147 
L 1259 4147 
z
" transform="scale(0.015625)"/>
      <path id="DejaVuSans-76" d="M 191 3500 
L 800 3500 
L 1894 563 
L 2988 3500 
L 3597 3500 
L 2284 0 
L 1503 0 
L 191 3500 
z
" transform="scale(0.015625)"/>
      <path id="DejaVuSans-4c" d="M 628 4666 
L 1259 4666 
L 1259 531 
L 3531 531 
L 3531 0 
L 628 0 
L 628 4666 
z
" transform="scale(0.015625)"/>
      <path id="DejaVuSans-4d" d="M 628 4666 
L 1569 4666 
L 2759 1491 
L 3956 4666 
L 4897 4666 
L 4897 0 
L 4281 0 
L 4281 4097 
L 3078 897 
L 2444 897 
L 1241 4097 
L 1241 0 
L 628 0 
L 628 4666 
z
" transform="scale(0.015625)"/>
      <path id="DejaVuSans-46" d="M 628 4666 
L 3309 4666 
L 3309 4134 
L 1259 4134 
L 1259 2759 
L 3109 2759 
L 3109 2228 
L 1259 2228 
L 1259 0 
L 628 0 
L 628 4666 
z
" transform="scale(0.015625)"/>
      <path id="DejaVuSans-49" d="M 628 4666 
L 1259 4666 
L 1259 0 
L 628 0 
L 628 4666 
z
" transform="scale(0.015625)"/>
     </defs>
     <use xlink:href="#DejaVuSans-48"/>
     <use xlink:href="#DejaVuSans-65" x="75.195312"/>
     <use xlink:href="#DejaVuSans-61" x="136.71875"/>
     <use xlink:href="#DejaVuSans-72" x="197.998047"/>
     <use xlink:href="#DejaVuSans-74" x="239.111328"/>
     <use xlink:href="#DejaVuSans-72" x="278.320312"/>
     <use xlink:href="#DejaVuSans-61" x="319.433594"/>
     <use xlink:href="#DejaVuSans-74" x="380.712891"/>
     <use xlink:href="#DejaVuSans-65" x="419.921875"/>
     <use xlink:href="#DejaVuSans-20" x="481.445312"/>
     <use xlink:href="#DejaVuSans-53" x="513.232422"/>
     <use xlink:href="#DejaVuSans-61" x="576.708984"/>
     <use xlink:href="#DejaVuSans-6d" x="637.988281"/>
     <use xlink:href="#DejaVuSans-70" x="735.400391"/>
     <use xlink:href="#DejaVuSans-6c" x="798.876953"/>
     <use xlink:href="#DejaVuSans-65" x="826.660156"/>
     <use xlink:href="#DejaVuSans-20" x="888.183594"/>
     <use xlink:href="#DejaVuSans-5a" x="919.970703"/>
     <use xlink:href="#DejaVuSans-6f" x="988.476562"/>
     <use xlink:href="#DejaVuSans-6f" x="1049.658203"/>
     <use xlink:href="#DejaVuSans-6d" x="1110.839844"/>
     <use xlink:href="#DejaVuSans-65" x="1208.251953"/>
     <use xlink:href="#DejaVuSans-64" x="1269.775391"/>
     <use xlink:href="#DejaVuSans-20" x="1333.251953"/>
     <use xlink:href="#DejaVuSans-69" x="1365.039062"/>
     <use xlink:href="#DejaVuSans-6e" x="1392.822266"/>
     <use xlink:href="#DejaVuSans-20" x="1456.201172"/>
     <use xlink:href="#DejaVuSans-2d" x="1487.988281"/>
     <use xlink:href="#DejaVuSans-20" x="1524.072266"/>
     <use xlink:href="#DejaVuSans-52" x="1555.859375"/>
     <use xlink:href="#DejaVuSans-65" x="1620.841797"/>
     <use xlink:href="#DejaVuSans-61" x="1682.365234"/>
     <use xlink:href="#DejaVuSans-6c" x="1743.644531"/>
     <use xlink:href="#DejaVuSans-74" x="1771.427734"/>
     <use xlink:href="#DejaVuSans-69" x="1810.636719"/>
     <use xlink:href="#DejaVuSans-6d" x="1838.419922"/>
     <use xlink:href="#DejaVuSans-65" x="1935.832031"/>
     <use xlink:href="#DejaVuSans-20" x="1997.355469"/>
     <use xlink:href="#DejaVuSans-41" x="2029.142578"/>
     <use xlink:href="#DejaVuSans-64" x="2095.800781"/>
     <use xlink:href="#DejaVuSans-61" x="2159.277344"/>
     <use xlink:href="#DejaVuSans-70" x="2220.556641"/>
     <use xlink:href="#DejaVuSans-74" x="2284.033203"/>
     <use xlink:href="#DejaVuSans-69" x="2323.242188"/>
     <use xlink:href="#DejaVuSans-76" x="2351.025391"/>
     <use xlink:href="#DejaVuSans-65" x="2410.205078"/>
     <use xlink:href="#DejaVuSans-20" x="2471.728516"/>
     <use xlink:href="#DejaVuSans-4c" x="2503.515625"/>
     <use xlink:href="#DejaVuSans-4d" x="2559.228516"/>
     <use xlink:href="#DejaVuSans-53" x="2645.507812"/>
     <use xlink:href="#DejaVuSans-20" x="2708.984375"/>
     <use xlink:href="#DejaVuSans-46" x="2740.771484"/>
     <use xlink:href="#DejaVuSans-49" x="2798.291016"/>
     <use xlink:href="#DejaVuSans-52" x="2827.783203"/>
     <use xlink:href="#DejaVuSans-20" x="2897.265625"/>
     <use xlink:href="#DejaVuSans-46" x="2929.052734"/>
     <use xlink:href="#DejaVuSans-69" x="2979.322266"/>
     <use xlink:href="#DejaVuSans-6c" x="3007.105469"/>
     <use xlink:href="#DejaVuSans-74" x="3034.888672"/>
     <use xlink:href="#DejaVuSans-65" x="3074.097656"/>
     <use xlink:href="#DejaVuSans-72" x="3135.621094"/>
     <use xlink:href="#DejaVuSans-65" x="3174.484375"/>
     <use xlink:href="#DejaVuSans-64" x="3236.007812"/>
    </g>
   </g>
  </g>
 </g>
 <defs>
  <clipPath id="p87dded9205">
   <rect x="57.6" y="41.472" width="357.12" height="266.112"/>
  </clipPath>
 </defs>
</svg>
