<?xml version="1.0" encoding="utf-8" standalone="no"?>
<!DOCTYPE svg PUBLIC "-//W3C//DTD SVG 1.1//EN"
  "http://www.w3.org/Graphics/SVG/1.1/DTD/svg11.dtd">
<svg xmlns:xlink="http://www.w3.org/1999/xlink" width="460.8pt" height="345.6pt" viewBox="0 0 460.8 345.6" xmlns="http://www.w3.org/2000/svg" version="1.1">
 <metadata>
  <rdf:RDF xmlns:dc="http://purl.org/dc/elements/1.1/" xmlns:cc="http://creativecommons.org/ns#" xmlns:rdf="http://www.w3.org/1999/02/22-rdf-syntax-ns#">
   <cc:Work>
    <dc:type rdf:resource="http://purl.org/dc/dcmitype/StillImage"/>
    <dc:date>2025-11-08T17:16:38.649016</dc:date>
    <dc:format>image/svg+xml</dc:format>
    <dc:creator>
     <cc:Agent>
      <dc:title>Matplotlib v3.9.4, https://matplotlib.org/</dc:title>
     </cc:Agent>
    </dc:creator>
   </cc:Work>
  </rdf:RDF>
 </metadata>
 <defs>
  <style type="text/css">*{stroke-linejoin: round; stroke-linecap: butt}</style>
 </defs>
 <g id="figure_1">
  <g id="patch_1">
   <path d="M 0 345.6 
L 460.8 345.6 
L 460.8 0 
L 0 0 
z
" style="fill: #ffffff"/>
  </g>
  <g id="axes_1">
   <g id="patch_2">
    <path d="M 57.6 307.584 
L 414.72 307.584 
L 414.72 41.472 
L 57.6 41.472 
z
" style="fill: #ffffff"/>
   </g>
   <g id="matplotlib.axis_1">
    <g id="xtick_1">
     <g id="line2d_1">
      <path d="M 57.6 307.584 
L 57.6 41.472 
" clip-path="url(#pf0d312c96e)" style="fill: none; stroke: #b0b0b0; stroke-width: 0.8; stroke-linecap: square"/>
     </g>
     <g id="line2d_2">
      <defs>
       <path id="m5aaca74daa" d="M 0 0 
L 0 3.5 
" style="stroke: #000000; stroke-width: 0.8"/>
      </defs>
      <g>
       <use xlink:href="#m5aaca74daa" x="57.6" y="307.584" style="stroke: #000000; stroke-width: 0.8"/>
      </g>
     </g>
     <g id="text_1">
      <!-- 10.0 -->
      <g transform="translate(46.467187 322.182437) scale(0.1 -0.1)">
       <defs>
        <path id="DejaVuSans-31" d="M 794 531 
L 1825 531 
L 1825 4091 
L 703 3866 
L 703 4441 
L 1819 4666 
L 2450 4666 
L 2450 531 
L 3481 531 
L 3481 0 
L 794 0 
L 794 531 
z
" transform="scale(0.015625)"/>
        <path id="DejaVuSans-30" d="M 2034 4250 
Q 1547 4250 1301 3770 
Q 1056 3291 1056 2328 
Q 1056 1369 1301 889 
Q 1547 409 2034 409 
Q 2525 409 2770 889 
Q 3016 1369 3016 2328 
Q 3016 3291 2770 3770 
Q 2525 4250 2034 4250 
z
M 2034 4750 
Q 2819 4750 3233 4129 
Q 3647 3509 3647 2328 
Q 3647 1150 3233 529 
Q 2819 -91 2034 -91 
Q 1250 -91 836 529 
Q 422 1150 422 2328 
Q 422 3509 836 4129 
Q 1250 4750 2034 4750 
z
" transform="scale(0.015625)"/>
        <path id="DejaVuSans-2e" d="M 684 794 
L 1344 794 
L 1344 0 
L 684 0 
L 684 794 
z
" transform="scale(0.015625)"/>
       </defs>
       <use xlink:href="#DejaVuSans-31"/>
       <use xlink:href="#DejaVuSans-30" x="63.623047"/>
       <use xlink:href="#DejaVuSans-2e" x="127.246094"/>
       <use xlink:href="#DejaVuSans-30" x="159.033203"/>
      </g>
     </g>
    </g>
    <g id="xtick_2">
     <g id="line2d_3">
      <path d="M 117.12 307.584 
L 117.12 41.472 
" clip-path="url(#pf0d312c96e)" style="fill: none; stroke: #b0b0b0; stroke-width: 0.8; stroke-linecap: square"/>
     </g>
     <g id="line2d_4">
      <g>
       <use xlink:href="#m5aaca74daa" x="117.12" y="307.584" style="stroke: #000000; stroke-width: 0.8"/>
      </g>
     </g>
     <g id="text_2">
      <!-- 10.5 -->
      <g transform="translate(105.987187 322.182437) scale(0.1 -0.1)">
       <defs>
        <path id="DejaVuSans-35" d="M 691 4666 
L 3169 4666 
L 3169 4134 
L 1269 4134 
L 1269 2991 
Q 1406 3038 1543 3061 
Q 1681 3084 1819 3084 
Q 2600 3084 3056 2656 
Q 3513 2228 3513 1497 
Q 3513 744 3044 326 
Q 2575 -91 1722 -91 
Q 1428 -91 1123 -41 
Q 819 9 494 109 
L 494 744 
Q 775 591 1075 516 
Q 1375 441 1709 441 
Q 2250 441 2565 725 
Q 2881 1009 2881 1497 
Q 2881 1984 2565 2268 
Q 2250 2553 1709 2553 
Q 1456 2553 1204 2497 
Q 953 2441 691 2322 
L 691 4666 
z
" transform="scale(0.015625)"/>
       </defs>
       <use xlink:href="#DejaVuSans-31"/>
       <use xlink:href="#DejaVuSans-30" x="63.623047"/>
       <use xlink:href="#DejaVuSans-2e" x="127.246094"/>
       <use xlink:href="#DejaVuSans-35" x="159.033203"/>
      </g>
     </g>
    </g>
    <g id="xtick_3">
     <g id="line2d_5">
      <path d="M 176.64 307.584 
L 176.64 41.472 
" clip-path="url(#pf0d312c96e)" style="fill: none; stroke: #b0b0b0; stroke-width: 0.8; stroke-linecap: square"/>
     </g>
     <g id="line2d_6">
      <g>
       <use xlink:href="#m5aaca74daa" x="176.64" y="307.584" style="stroke: #000000; stroke-width: 0.8"/>
      </g>
     </g>
     <g id="text_3">
      <!-- 11.0 -->
      <g transform="translate(165.507187 322.182437) scale(0.1 -0.1)">
       <use xlink:href="#DejaVuSans-31"/>
       <use xlink:href="#DejaVuSans-31" x="63.623047"/>
       <use xlink:href="#DejaVuSans-2e" x="127.246094"/>
       <use xlink:href="#DejaVuSans-30" x="159.033203"/>
      </g>
     </g>
    </g>
    <g id="xtick_4">
     <g id="line2d_7">
      <path d="M 236.16 307.584 
L 236.16 41.472 
" clip-path="url(#pf0d312c96e)" style="fill: none; stroke: #b0b0b0; stroke-width: 0.8; stroke-linecap: square"/>
     </g>
     <g id="line2d_8">
      <g>
       <use xlink:href="#m5aaca74daa" x="236.16" y="307.584" style="stroke: #000000; stroke-width: 0.8"/>
      </g>
     </g>
     <g id="text_4">
      <!-- 11.5 -->
      <g transform="translate(225.027187 322.182437) scale(0.1 -0.1)">
       <use xlink:href="#DejaVuSans-31"/>
       <use xlink:href="#DejaVuSans-31" x="63.623047"/>
       <use xlink:href="#DejaVuSans-2e" x="127.246094"/>
       <use xlink:href="#DejaVuSans-35" x="159.033203"/>
      </g>
     </g>
    </g>
    <g id="xtick_5">
     <g id="line2d_9">
      <path d="M 295.68 307.584 
L 295.68 41.472 
" clip-path="url(#pf0d312c96e)" style="fill: none; stroke: #b0b0b0; stroke-width: 0.8; stroke-linecap: square"/>
     </g>
     <g id="line2d_10">
      <g>
       <use xlink:href="#m5aaca74daa" x="295.68" y="307.584" style="stroke: #000000; stroke-width: 0.8"/>
      </g>
     </g>
     <g id="text_5">
      <!-- 12.0 -->
      <g transform="translate(284.547188 322.182437) scale(0.1 -0.1)">
       <defs>
        <path id="DejaVuSans-32" d="M 1228 531 
L 3431 531 
L 3431 0 
L 469 0 
L 469 531 
Q 828 903 1448 1529 
Q 2069 2156 2228 2338 
Q 2531 2678 2651 2914 
Q 2772 3150 2772 3378 
Q 2772 3750 2511 3984 
Q 2250 4219 1831 4219 
Q 1534 4219 1204 4116 
Q 875 4013 500 3803 
L 500 4441 
Q 881 4594 1212 4672 
Q 1544 4750 1819 4750 
Q 2544 4750 2975 4387 
Q 3406 4025 3406 3419 
Q 3406 3131 3298 2873 
Q 3191 2616 2906 2266 
Q 2828 2175 2409 1742 
Q 1991 1309 1228 531 
z
" transform="scale(0.015625)"/>
       </defs>
       <use xlink:href="#DejaVuSans-31"/>
       <use xlink:href="#DejaVuSans-32" x="63.623047"/>
       <use xlink:href="#DejaVuSans-2e" x="127.246094"/>
       <use xlink:href="#DejaVuSans-30" x="159.033203"/>
      </g>
     </g>
    </g>
    <g id="xtick_6">
     <g id="line2d_11">
      <path d="M 355.2 307.584 
L 355.2 41.472 
" clip-path="url(#pf0d312c96e)" style="fill: none; stroke: #b0b0b0; stroke-width: 0.8; stroke-linecap: square"/>
     </g>
     <g id="line2d_12">
      <g>
       <use xlink:href="#m5aaca74daa" x="355.2" y="307.584" style="stroke: #000000; stroke-width: 0.8"/>
      </g>
     </g>
     <g id="text_6">
      <!-- 12.5 -->
      <g transform="translate(344.067188 322.182437) scale(0.1 -0.1)">
       <use xlink:href="#DejaVuSans-31"/>
       <use xlink:href="#DejaVuSans-32" x="63.623047"/>
       <use xlink:href="#DejaVuSans-2e" x="127.246094"/>
       <use xlink:href="#DejaVuSans-35" x="159.033203"/>
      </g>
     </g>
    </g>
    <g id="xtick_7">
     <g id="line2d_13">
      <path d="M 414.72 307.584 
L 414.72 41.472 
" clip-path="url(#pf0d312c96e)" style="fill: none; stroke: #b0b0b0; stroke-width: 0.8; stroke-linecap: square"/>
     </g>
     <g id="line2d_14">
      <g>
       <use xlink:href="#m5aaca74daa" x="414.72" y="307.584" style="stroke: #000000; stroke-width: 0.8"/>
      </g>
     </g>
     <g id="text_7">
      <!-- 13.0 -->
      <g transform="translate(403.587188 322.182437) scale(0.1 -0.1)">
       <defs>
        <path id="DejaVuSans-33" d="M 2597 2516 
Q 3050 2419 3304 2112 
Q 3559 1806 3559 1356 
Q 3559 666 3084 287 
Q 2609 -91 1734 -91 
Q 1441 -91 1130 -33 
Q 819 25 488 141 
L 488 750 
Q 750 597 1062 519 
Q 1375 441 1716 441 
Q 2309 441 2620 675 
Q 2931 909 2931 1356 
Q 2931 1769 2642 2001 
Q 2353 2234 1838 2234 
L 1294 2234 
L 1294 2753 
L 1863 2753 
Q 2328 2753 2575 2939 
Q 2822 3125 2822 3475 
Q 2822 3834 2567 4026 
Q 2313 4219 1838 4219 
Q 1578 4219 1281 4162 
Q 984 4106 628 3988 
L 628 4550 
Q 988 4650 1302 4700 
Q 1616 4750 1894 4750 
Q 2613 4750 3031 4423 
Q 3450 4097 3450 3541 
Q 3450 3153 3228 2886 
Q 3006 2619 2597 2516 
z
" transform="scale(0.015625)"/>
       </defs>
       <use xlink:href="#DejaVuSans-31"/>
       <use xlink:href="#DejaVuSans-33" x="63.623047"/>
       <use xlink:href="#DejaVuSans-2e" x="127.246094"/>
       <use xlink:href="#DejaVuSans-30" x="159.033203"/>
      </g>
     </g>
    </g>
    <g id="text_8">
     <!-- Time (s) -->
     <g transform="translate(215.831094 335.860562) scale(0.1 -0.1)">
      <defs>
       <path id="DejaVuSans-54" d="M -19 4666 
L 3928 4666 
L 3928 4134 
L 2272 4134 
L 2272 0 
L 1638 0 
L 1638 4134 
L -19 4134 
L -19 4666 
z
" transform="scale(0.015625)"/>
       <path id="DejaVuSans-69" d="M 603 3500 
L 1178 3500 
L 1178 0 
L 603 0 
L 603 3500 
z
M 603 4863 
L 1178 4863 
L 1178 4134 
L 603 4134 
L 603 4863 
z
" transform="scale(0.015625)"/>
       <path id="DejaVuSans-6d" d="M 3328 2828 
Q 3544 3216 3844 3400 
Q 4144 3584 4550 3584 
Q 5097 3584 5394 3201 
Q 5691 2819 5691 2113 
L 5691 0 
L 5113 0 
L 5113 2094 
Q 5113 2597 4934 2840 
Q 4756 3084 4391 3084 
Q 3944 3084 3684 2787 
Q 3425 2491 3425 1978 
L 3425 0 
L 2847 0 
L 2847 2094 
Q 2847 2600 2669 2842 
Q 2491 3084 2119 3084 
Q 1678 3084 1418 2786 
Q 1159 2488 1159 1978 
L 1159 0 
L 581 0 
L 581 3500 
L 1159 3500 
L 1159 2956 
Q 1356 3278 1631 3431 
Q 1906 3584 2284 3584 
Q 2666 3584 2933 3390 
Q 3200 3197 3328 2828 
z
" transform="scale(0.015625)"/>
       <path id="DejaVuSans-65" d="M 3597 1894 
L 3597 1613 
L 953 1613 
Q 991 1019 1311 708 
Q 1631 397 2203 397 
Q 2534 397 2845 478 
Q 3156 559 3463 722 
L 3463 178 
Q 3153 47 2828 -22 
Q 2503 -91 2169 -91 
Q 1331 -91 842 396 
Q 353 884 353 1716 
Q 353 2575 817 3079 
Q 1281 3584 2069 3584 
Q 2775 3584 3186 3129 
Q 3597 2675 3597 1894 
z
M 3022 2063 
Q 3016 2534 2758 2815 
Q 2500 3097 2075 3097 
Q 1594 3097 1305 2825 
Q 1016 2553 972 2059 
L 3022 2063 
z
" transform="scale(0.015625)"/>
       <path id="DejaVuSans-20" transform="scale(0.015625)"/>
       <path id="DejaVuSans-28" d="M 1984 4856 
Q 1566 4138 1362 3434 
Q 1159 2731 1159 2009 
Q 1159 1288 1364 580 
Q 1569 -128 1984 -844 
L 1484 -844 
Q 1016 -109 783 600 
Q 550 1309 550 2009 
Q 550 2706 781 3412 
Q 1013 4119 1484 4856 
L 1984 4856 
z
" transform="scale(0.015625)"/>
       <path id="DejaVuSans-73" d="M 2834 3397 
L 2834 2853 
Q 2591 2978 2328 3040 
Q 2066 3103 1784 3103 
Q 1356 3103 1142 2972 
Q 928 2841 928 2578 
Q 928 2378 1081 2264 
Q 1234 2150 1697 2047 
L 1894 2003 
Q 2506 1872 2764 1633 
Q 3022 1394 3022 966 
Q 3022 478 2636 193 
Q 2250 -91 1575 -91 
Q 1294 -91 989 -36 
Q 684 19 347 128 
L 347 722 
Q 666 556 975 473 
Q 1284 391 1588 391 
Q 1994 391 2212 530 
Q 2431 669 2431 922 
Q 2431 1156 2273 1281 
Q 2116 1406 1581 1522 
L 1381 1569 
Q 847 1681 609 1914 
Q 372 2147 372 2553 
Q 372 3047 722 3315 
Q 1072 3584 1716 3584 
Q 2034 3584 2315 3537 
Q 2597 3491 2834 3397 
z
" transform="scale(0.015625)"/>
       <path id="DejaVuSans-29" d="M 513 4856 
L 1013 4856 
Q 1481 4119 1714 3412 
Q 1947 2706 1947 2009 
Q 1947 1309 1714 600 
Q 1481 -109 1013 -844 
L 513 -844 
Q 928 -128 1133 580 
Q 1338 1288 1338 2009 
Q 1338 2731 1133 3434 
Q 928 4138 513 4856 
z
" transform="scale(0.015625)"/>
      </defs>
      <use xlink:href="#DejaVuSans-54"/>
      <use xlink:href="#DejaVuSans-69" x="57.958984"/>
      <use xlink:href="#DejaVuSans-6d" x="85.742188"/>
      <use xlink:href="#DejaVuSans-65" x="183.154297"/>
      <use xlink:href="#DejaVuSans-20" x="244.677734"/>
      <use xlink:href="#DejaVuSans-28" x="276.464844"/>
      <use xlink:href="#DejaVuSans-73" x="315.478516"/>
      <use xlink:href="#DejaVuSans-29" x="367.578125"/>
     </g>
    </g>
   </g>
   <g id="matplotlib.axis_2">
    <g id="ytick_1">
     <g id="line2d_15">
      <path d="M 57.6 307.584 
L 414.72 307.584 
" clip-path="url(#pf0d312c96e)" style="fill: none; stroke: #b0b0b0; stroke-width: 0.8; stroke-linecap: square"/>
     </g>
     <g id="line2d_16">
      <defs>
       <path id="m7e4325196d" d="M 0 0 
L -3.5 0 
" style="stroke: #000000; stroke-width: 0.8"/>
      </defs>
      <g>
       <use xlink:href="#m7e4325196d" x="57.6" y="307.584" style="stroke: #000000; stroke-width: 0.8"/>
      </g>
     </g>
     <g id="text_9">
      <!-- −0.0010 -->
      <g transform="translate(7.229687 311.383219) scale(0.1 -0.1)">
       <defs>
        <path id="DejaVuSans-2212" d="M 678 2272 
L 4684 2272 
L 4684 1741 
L 678 1741 
L 678 2272 
z
" transform="scale(0.015625)"/>
       </defs>
       <use xlink:href="#DejaVuSans-2212"/>
       <use xlink:href="#DejaVuSans-30" x="83.789062"/>
       <use xlink:href="#DejaVuSans-2e" x="147.412109"/>
       <use xlink:href="#DejaVuSans-30" x="179.199219"/>
       <use xlink:href="#DejaVuSans-30" x="242.822266"/>
       <use xlink:href="#DejaVuSans-31" x="306.445312"/>
       <use xlink:href="#DejaVuSans-30" x="370.068359"/>
      </g>
     </g>
    </g>
    <g id="ytick_2">
     <g id="line2d_17">
      <path d="M 57.6 274.32 
L 414.72 274.32 
" clip-path="url(#pf0d312c96e)" style="fill: none; stroke: #b0b0b0; stroke-width: 0.8; stroke-linecap: square"/>
     </g>
     <g id="line2d_18">
      <g>
       <use xlink:href="#m7e4325196d" x="57.6" y="274.32" style="stroke: #000000; stroke-width: 0.8"/>
      </g>
     </g>
     <g id="text_10">
      <!-- −0.0005 -->
      <g transform="translate(7.229687 278.119219) scale(0.1 -0.1)">
       <use xlink:href="#DejaVuSans-2212"/>
       <use xlink:href="#DejaVuSans-30" x="83.789062"/>
       <use xlink:href="#DejaVuSans-2e" x="147.412109"/>
       <use xlink:href="#DejaVuSans-30" x="179.199219"/>
       <use xlink:href="#DejaVuSans-30" x="242.822266"/>
       <use xlink:href="#DejaVuSans-30" x="306.445312"/>
       <use xlink:href="#DejaVuSans-35" x="370.068359"/>
      </g>
     </g>
    </g>
    <g id="ytick_3">
     <g id="line2d_19">
      <path d="M 57.6 241.056 
L 414.72 241.056 
" clip-path="url(#pf0d312c96e)" style="fill: none; stroke: #b0b0b0; stroke-width: 0.8; stroke-linecap: square"/>
     </g>
     <g id="line2d_20">
      <g>
       <use xlink:href="#m7e4325196d" x="57.6" y="241.056" style="stroke: #000000; stroke-width: 0.8"/>
      </g>
     </g>
     <g id="text_11">
      <!-- 0.0000 -->
      <g transform="translate(15.609375 244.855219) scale(0.1 -0.1)">
       <use xlink:href="#DejaVuSans-30"/>
       <use xlink:href="#DejaVuSans-2e" x="63.623047"/>
       <use xlink:href="#DejaVuSans-30" x="95.410156"/>
       <use xlink:href="#DejaVuSans-30" x="159.033203"/>
       <use xlink:href="#DejaVuSans-30" x="222.65625"/>
       <use xlink:href="#DejaVuSans-30" x="286.279297"/>
      </g>
     </g>
    </g>
    <g id="ytick_4">
     <g id="line2d_21">
      <path d="M 57.6 207.792 
L 414.72 207.792 
" clip-path="url(#pf0d312c96e)" style="fill: none; stroke: #b0b0b0; stroke-width: 0.8; stroke-linecap: square"/>
     </g>
     <g id="line2d_22">
      <g>
       <use xlink:href="#m7e4325196d" x="57.6" y="207.792" style="stroke: #000000; stroke-width: 0.8"/>
      </g>
     </g>
     <g id="text_12">
      <!-- 0.0005 -->
      <g transform="translate(15.609375 211.591219) scale(0.1 -0.1)">
       <use xlink:href="#DejaVuSans-30"/>
       <use xlink:href="#DejaVuSans-2e" x="63.623047"/>
       <use xlink:href="#DejaVuSans-30" x="95.410156"/>
       <use xlink:href="#DejaVuSans-30" x="159.033203"/>
       <use xlink:href="#DejaVuSans-30" x="222.65625"/>
       <use xlink:href="#DejaVuSans-35" x="286.279297"/>
      </g>
     </g>
    </g>
    <g id="ytick_5">
     <g id="line2d_23">
      <path d="M 57.6 174.528 
L 414.72 174.528 
" clip-path="url(#pf0d312c96e)" style="fill: none; stroke: #b0b0b0; stroke-width: 0.8; stroke-linecap: square"/>
     </g>
     <g id="line2d_24">
      <g>
       <use xlink:href="#m7e4325196d" x="57.6" y="174.528" style="stroke: #000000; stroke-width: 0.8"/>
      </g>
     </g>
     <g id="text_13">
      <!-- 0.0010 -->
      <g transform="translate(15.609375 178.327219) scale(0.1 -0.1)">
       <use xlink:href="#DejaVuSans-30"/>
       <use xlink:href="#DejaVuSans-2e" x="63.623047"/>
       <use xlink:href="#DejaVuSans-30" x="95.410156"/>
       <use xlink:href="#DejaVuSans-30" x="159.033203"/>
       <use xlink:href="#DejaVuSans-31" x="222.65625"/>
       <use xlink:href="#DejaVuSans-30" x="286.279297"/>
      </g>
     </g>
    </g>
    <g id="ytick_6">
     <g id="line2d_25">
      <path d="M 57.6 141.264 
L 414.72 141.264 
" clip-path="url(#pf0d312c96e)" style="fill: none; stroke: #b0b0b0; stroke-width: 0.8; stroke-linecap: square"/>
     </g>
     <g id="line2d_26">
      <g>
       <use xlink:href="#m7e4325196d" x="57.6" y="141.264" style="stroke: #000000; stroke-width: 0.8"/>
      </g>
     </g>
     <g id="text_14">
      <!-- 0.0015 -->
      <g transform="translate(15.609375 145.063219) scale(0.1 -0.1)">
       <use xlink:href="#DejaVuSans-30"/>
       <use xlink:href="#DejaVuSans-2e" x="63.623047"/>
       <use xlink:href="#DejaVuSans-30" x="95.410156"/>
       <use xlink:href="#DejaVuSans-30" x="159.033203"/>
       <use xlink:href="#DejaVuSans-31" x="222.65625"/>
       <use xlink:href="#DejaVuSans-35" x="286.279297"/>
      </g>
     </g>
    </g>
    <g id="ytick_7">
     <g id="line2d_27">
      <path d="M 57.6 108 
L 414.72 108 
" clip-path="url(#pf0d312c96e)" style="fill: none; stroke: #b0b0b0; stroke-width: 0.8; stroke-linecap: square"/>
     </g>
     <g id="line2d_28">
      <g>
       <use xlink:href="#m7e4325196d" x="57.6" y="108" style="stroke: #000000; stroke-width: 0.8"/>
      </g>
     </g>
     <g id="text_15">
      <!-- 0.0020 -->
      <g transform="translate(15.609375 111.799219) scale(0.1 -0.1)">
       <use xlink:href="#DejaVuSans-30"/>
       <use xlink:href="#DejaVuSans-2e" x="63.623047"/>
       <use xlink:href="#DejaVuSans-30" x="95.410156"/>
       <use xlink:href="#DejaVuSans-30" x="159.033203"/>
       <use xlink:href="#DejaVuSans-32" x="222.65625"/>
       <use xlink:href="#DejaVuSans-30" x="286.279297"/>
      </g>
     </g>
    </g>
    <g id="ytick_8">
     <g id="line2d_29">
      <path d="M 57.6 74.736 
L 414.72 74.736 
" clip-path="url(#pf0d312c96e)" style="fill: none; stroke: #b0b0b0; stroke-width: 0.8; stroke-linecap: square"/>
     </g>
     <g id="line2d_30">
      <g>
       <use xlink:href="#m7e4325196d" x="57.6" y="74.736" style="stroke: #000000; stroke-width: 0.8"/>
      </g>
     </g>
     <g id="text_16">
      <!-- 0.0025 -->
      <g transform="translate(15.609375 78.535219) scale(0.1 -0.1)">
       <use xlink:href="#DejaVuSans-30"/>
       <use xlink:href="#DejaVuSans-2e" x="63.623047"/>
       <use xlink:href="#DejaVuSans-30" x="95.410156"/>
       <use xlink:href="#DejaVuSans-30" x="159.033203"/>
       <use xlink:href="#DejaVuSans-32" x="222.65625"/>
       <use xlink:href="#DejaVuSans-35" x="286.279297"/>
      </g>
     </g>
    </g>
    <g id="ytick_9">
     <g id="line2d_31">
      <path d="M 57.6 41.472 
L 414.72 41.472 
" clip-path="url(#pf0d312c96e)" style="fill: none; stroke: #b0b0b0; stroke-width: 0.8; stroke-linecap: square"/>
     </g>
     <g id="line2d_32">
      <g>
       <use xlink:href="#m7e4325196d" x="57.6" y="41.472" style="stroke: #000000; stroke-width: 0.8"/>
      </g>
     </g>
     <g id="text_17">
      <!-- 0.0030 -->
      <g transform="translate(15.609375 45.271219) scale(0.1 -0.1)">
       <use xlink:href="#DejaVuSans-30"/>
       <use xlink:href="#DejaVuSans-2e" x="63.623047"/>
       <use xlink:href="#DejaVuSans-30" x="95.410156"/>
       <use xlink:href="#DejaVuSans-30" x="159.033203"/>
       <use xlink:href="#DejaVuSans-33" x="222.65625"/>
       <use xlink:href="#DejaVuSans-30" x="286.279297"/>
      </g>
     </g>
    </g>
    <g id="text_18">
     <!-- Amplitude -->
     <g transform="translate(1.15 200.150656) rotate(-90) scale(0.1 -0.1)">
      <defs>
       <path id="DejaVuSans-41" d="M 2188 4044 
L 1331 1722 
L 3047 1722 
L 2188 4044 
z
M 1831 4666 
L 2547 4666 
L 4325 0 
L 3669 0 
L 3244 1197 
L 1141 1197 
L 716 0 
L 50 0 
L 1831 4666 
z
" transform="scale(0.015625)"/>
       <path id="DejaVuSans-70" d="M 1159 525 
L 1159 -1331 
L 581 -1331 
L 581 3500 
L 1159 3500 
L 1159 2969 
Q 1341 3281 1617 3432 
Q 1894 3584 2278 3584 
Q 2916 3584 3314 3078 
Q 3713 2572 3713 1747 
Q 3713 922 3314 415 
Q 2916 -91 2278 -91 
Q 1894 -91 1617 61 
Q 1341 213 1159 525 
z
M 3116 1747 
Q 3116 2381 2855 2742 
Q 2594 3103 2138 3103 
Q 1681 3103 1420 2742 
Q 1159 2381 1159 1747 
Q 1159 1113 1420 752 
Q 1681 391 2138 391 
Q 2594 391 2855 752 
Q 3116 1113 3116 1747 
z
" transform="scale(0.015625)"/>
       <path id="DejaVuSans-6c" d="M 603 4863 
L 1178 4863 
L 1178 0 
L 603 0 
L 603 4863 
z
" transform="scale(0.015625)"/>
       <path id="DejaVuSans-74" d="M 1172 4494 
L 1172 3500 
L 2356 3500 
L 2356 3053 
L 1172 3053 
L 1172 1153 
Q 1172 725 1289 603 
Q 1406 481 1766 481 
L 2356 481 
L 2356 0 
L 1766 0 
Q 1100 0 847 248 
Q 594 497 594 1153 
L 594 3053 
L 172 3053 
L 172 3500 
L 594 3500 
L 594 4494 
L 1172 4494 
z
" transform="scale(0.015625)"/>
       <path id="DejaVuSans-75" d="M 544 1381 
L 544 3500 
L 1119 3500 
L 1119 1403 
Q 1119 906 1312 657 
Q 1506 409 1894 409 
Q 2359 409 2629 706 
Q 2900 1003 2900 1516 
L 2900 3500 
L 3475 3500 
L 3475 0 
L 2900 0 
L 2900 538 
Q 2691 219 2414 64 
Q 2138 -91 1772 -91 
Q 1169 -91 856 284 
Q 544 659 544 1381 
z
M 1991 3584 
L 1991 3584 
z
" transform="scale(0.015625)"/>
       <path id="DejaVuSans-64" d="M 2906 2969 
L 2906 4863 
L 3481 4863 
L 3481 0 
L 2906 0 
L 2906 525 
Q 2725 213 2448 61 
Q 2172 -91 1784 -91 
Q 1150 -91 751 415 
Q 353 922 353 1747 
Q 353 2572 751 3078 
Q 1150 3584 1784 3584 
Q 2172 3584 2448 3432 
Q 2725 3281 2906 2969 
z
M 947 1747 
Q 947 1113 1208 752 
Q 1469 391 1925 391 
Q 2381 391 2643 752 
Q 2906 1113 2906 1747 
Q 2906 2381 2643 2742 
Q 2381 3103 1925 3103 
Q 1469 3103 1208 2742 
Q 947 2381 947 1747 
z
" transform="scale(0.015625)"/>
      </defs>
      <use xlink:href="#DejaVuSans-41"/>
      <use xlink:href="#DejaVuSans-6d" x="68.408203"/>
      <use xlink:href="#DejaVuSans-70" x="165.820312"/>
      <use xlink:href="#DejaVuSans-6c" x="229.296875"/>
      <use xlink:href="#DejaVuSans-69" x="257.080078"/>
      <use xlink:href="#DejaVuSans-74" x="284.863281"/>
      <use xlink:href="#DejaVuSans-75" x="324.072266"/>
      <use xlink:href="#DejaVuSans-64" x="387.451172"/>
      <use xlink:href="#DejaVuSans-65" x="450.927734"/>
     </g>
    </g>
   </g>
   <g id="line2d_33">
    <path d="M 57.36192 247.535463 
L 57.83808 248.835757 
L 58.07616 249.107388 
L 58.31424 249.096779 
L 58.7904 248.467365 
L 59.26656 247.792451 
L 59.50464 247.726562 
L 59.74272 247.92274 
L 60.21888 248.991397 
L 60.93312 250.757241 
L 61.1712 250.956546 
L 61.40928 250.887363 
L 61.88544 250.159008 
L 62.3616 249.355734 
L 62.59968 249.190507 
L 62.83776 249.251749 
L 63.31392 249.926083 
L 63.79008 250.697276 
L 64.02816 250.841549 
L 64.26624 250.729861 
L 64.50432 250.357018 
L 65.69472 247.46117 
L 65.9328 247.339913 
L 66.17088 247.43716 
L 66.88512 248.178221 
L 67.1232 248.230169 
L 67.36128 248.072478 
L 67.83744 247.217582 
L 68.3136 246.265277 
L 68.55168 246.05277 
L 68.78976 246.135424 
L 69.02784 246.536973 
L 69.504 248.077128 
L 69.98016 249.767634 
L 70.21824 250.313475 
L 70.45632 250.526769 
L 70.6944 250.381977 
L 71.17056 249.247112 
L 71.64672 247.83131 
L 71.8848 247.377164 
L 72.12288 247.22892 
L 72.36096 247.420236 
L 72.83712 248.652701 
L 73.55136 251.006264 
L 73.78944 251.476441 
L 74.02752 251.688979 
L 74.2656 251.651804 
L 74.74176 251.04632 
L 75.456 249.970912 
L 75.93216 249.748664 
L 76.40832 249.888943 
L 76.88448 250.076265 
L 77.36064 250.03034 
L 77.8368 249.667208 
L 79.0272 248.419528 
L 79.26528 248.375516 
L 79.50336 248.472965 
L 79.97952 249.135942 
L 81.408 252.276376 
L 81.64608 252.289651 
L 81.88416 252.052294 
L 82.36032 251.019221 
L 82.83648 249.90979 
L 83.07456 249.623879 
L 83.31264 249.640053 
L 83.55072 249.992087 
L 84.02688 251.532425 
L 84.74112 254.018647 
L 84.9792 254.293797 
L 85.21728 254.135308 
L 85.45536 253.550353 
L 86.64576 248.760797 
L 86.88384 248.568638 
L 87.12192 248.838653 
L 87.59808 250.467946 
L 88.31232 253.209983 
L 88.5504 253.54361 
L 88.78848 253.443766 
L 89.02656 252.933036 
L 90.21696 248.614564 
L 90.45504 248.359431 
L 90.69312 248.453667 
L 91.16928 249.432251 
L 91.88352 251.133227 
L 92.1216 251.340628 
L 92.35968 251.295068 
L 92.83584 250.597044 
L 93.55008 249.364755 
L 93.78816 249.278136 
L 94.02624 249.443814 
L 94.5024 250.482318 
L 95.45472 253.322652 
L 95.6928 253.643425 
L 95.93088 253.675527 
L 96.16896 253.410531 
L 96.64512 252.151934 
L 97.35936 249.787869 
L 97.83552 249.021355 
L 98.0736 249.027128 
L 98.54976 249.631408 
L 99.02592 250.367618 
L 99.264 250.501354 
L 99.50208 250.36486 
L 99.74016 249.926624 
L 100.21632 248.276842 
L 101.16864 244.619245 
L 101.6448 243.902358 
L 102.35904 243.572086 
L 102.59712 243.265403 
L 103.07328 242.02868 
L 103.78752 239.55452 
L 104.0256 239.078387 
L 104.26368 238.986548 
L 104.50176 239.338666 
L 104.97792 241.273768 
L 105.93024 246.5802 
L 106.4064 247.936855 
L 106.64448 248.191048 
L 107.12064 248.267929 
L 107.5968 248.417596 
L 108.07296 248.976122 
L 108.54912 249.62259 
L 108.7872 249.801255 
L 109.02528 249.825902 
L 109.50144 249.505109 
L 109.9776 249.251521 
L 110.21568 249.415497 
L 110.45376 249.874781 
L 110.92992 251.684689 
L 112.12032 257.278923 
L 112.3584 257.791134 
L 112.59648 257.952912 
L 112.83456 257.685688 
L 113.07264 256.84701 
L 113.31072 255.201771 
L 113.5488 252.412875 
L 114.02496 241.680477 
L 114.50112 221.32742 
L 114.97728 190.248168 
L 116.16768 101.703091 
L 116.40576 92.214294 
L 116.64384 88.149375 
L 116.88192 89.924692 
L 117.12 97.397566 
L 117.59616 126.166642 
L 118.78656 212.170572 
L 119.26272 228.598387 
L 119.5008 232.334215 
L 119.73888 234.032749 
L 119.97696 234.590186 
L 120.21504 234.854739 
L 120.45312 235.489354 
L 120.6912 236.883098 
L 121.16736 242.024315 
L 121.8816 250.62642 
L 122.11968 252.117637 
L 122.35776 252.575168 
L 122.59584 252.081213 
L 123.072 249.382894 
L 123.54816 246.946977 
L 123.78624 246.598147 
L 124.02432 246.973261 
L 124.50048 249.387929 
L 124.97664 252.201495 
L 125.21472 253.04118 
L 125.4528 253.270532 
L 125.69088 252.872466 
L 126.16704 250.721345 
L 126.6432 248.282901 
L 126.88128 247.494445 
L 127.11936 247.135795 
L 127.35744 247.184265 
L 128.30976 248.41541 
L 128.54784 248.127775 
L 129.024 246.417026 
L 129.73824 242.932985 
L 129.97632 242.219388 
L 130.2144 241.923664 
L 130.45248 242.049943 
L 130.92864 243.195876 
L 131.4048 244.454211 
L 131.64288 244.723669 
L 131.88096 244.629293 
L 132.11904 244.169151 
L 133.30944 240.371307 
L 133.54752 240.285536 
L 133.7856 240.577726 
L 134.26176 241.979783 
L 134.73792 243.499124 
L 134.976 243.909869 
L 135.21408 243.940013 
L 135.45216 243.551828 
L 135.92832 241.689683 
L 136.88064 236.939008 
L 137.3568 235.717872 
L 137.83296 235.299138 
L 138.30912 234.997049 
L 138.78528 234.2158 
L 139.97568 231.270537 
L 140.21376 231.078454 
L 140.45184 231.099443 
L 141.40416 231.92285 
L 141.64224 231.835949 
L 141.88032 231.505813 
L 142.35648 230.234274 
L 142.83264 228.804368 
L 143.07072 228.355781 
L 143.3088 228.234916 
L 143.54688 228.502183 
L 143.78496 229.161338 
L 144.26112 231.405238 
L 145.21344 236.55574 
L 145.92768 238.967053 
L 147.11808 241.794596 
L 147.59424 242.354702 
L 147.83232 242.348315 
L 148.30848 241.841722 
L 148.78464 241.266707 
L 149.02272 241.254021 
L 149.2608 241.557465 
L 149.73696 243.190613 
L 150.68928 247.564727 
L 150.92736 247.932996 
L 151.16544 247.800621 
L 151.40352 247.200337 
L 152.35584 243.300351 
L 152.59392 242.920547 
L 152.832 243.016057 
L 153.07008 243.550486 
L 154.0224 246.762894 
L 154.26048 246.88955 
L 154.49856 246.55417 
L 154.97472 244.869818 
L 155.45088 243.133849 
L 155.68896 242.762957 
L 155.92704 242.884188 
L 156.16512 243.490164 
L 157.11744 247.407384 
L 157.35552 247.645865 
L 157.5936 247.299632 
L 158.06976 245.107782 
L 158.784 241.284625 
L 159.02208 240.831344 
L 159.26016 241.005884 
L 159.49824 241.768118 
L 160.68864 247.209887 
L 160.92672 247.146386 
L 161.1648 246.543998 
L 162.3552 241.890413 
L 162.59328 241.909509 
L 162.83136 242.363518 
L 163.78368 245.471432 
L 164.02176 245.760162 
L 164.25984 245.704877 
L 164.736 244.86791 
L 165.21216 244.023192 
L 165.45024 243.949833 
L 165.68832 244.205228 
L 166.16448 245.573292 
L 166.87872 247.987857 
L 167.1168 248.367708 
L 167.35488 248.422355 
L 167.59296 248.17393 
L 168.78336 245.82603 
L 169.02144 245.795126 
L 169.25952 245.968907 
L 170.21184 247.226767 
L 170.44992 247.299526 
L 170.688 247.207817 
L 171.16416 246.675304 
L 171.64032 246.121312 
L 171.8784 245.999477 
L 172.11648 246.027124 
L 172.59264 246.476162 
L 173.30688 247.278174 
L 173.54496 247.307254 
L 173.78304 247.147865 
L 174.2592 246.319399 
L 174.97344 244.814985 
L 175.21152 244.6161 
L 175.4496 244.699401 
L 175.68768 245.096383 
L 176.16384 246.730851 
L 176.87808 249.8342 
L 177.11616 250.511114 
L 177.35424 250.817857 
L 177.59232 250.704444 
L 177.8304 250.183047 
L 178.30656 248.281328 
L 178.78272 246.287577 
L 179.0208 245.688368 
L 179.25888 245.523798 
L 179.49696 245.839045 
L 179.97312 247.689502 
L 180.68736 251.099995 
L 180.92544 251.650805 
L 181.16352 251.7035 
L 181.4016 251.253202 
L 181.87776 249.25182 
L 182.35392 247.033532 
L 182.592 246.349984 
L 182.83008 246.140025 
L 183.06816 246.448676 
L 183.54432 248.368657 
L 184.25856 252.043569 
L 184.49664 252.766998 
L 184.73472 253.063251 
L 184.9728 252.933369 
L 185.44896 251.731681 
L 186.1632 249.61821 
L 186.40128 249.283725 
L 186.63936 249.193333 
L 187.11552 249.528498 
L 187.59168 249.922261 
L 187.82976 249.912385 
L 188.06784 249.696168 
L 188.544 248.679269 
L 189.49632 246.172974 
L 189.7344 245.920006 
L 189.97248 245.923662 
L 190.21056 246.191015 
L 190.68672 247.402087 
L 191.63904 250.544352 
L 191.87712 250.956747 
L 192.1152 251.067668 
L 192.35328 250.844732 
L 192.59136 250.293818 
L 193.06752 248.430712 
L 193.78176 245.28514 
L 194.25792 244.119684 
L 194.496 243.916983 
L 194.97216 243.952211 
L 195.21024 243.966154 
L 195.44832 243.829989 
L 195.6864 243.475072 
L 196.16256 242.138576 
L 196.63872 240.644486 
L 196.8768 240.237095 
L 197.11488 240.257691 
L 197.35296 240.788773 
L 197.82912 243.273839 
L 198.54336 248.03577 
L 198.78144 248.995645 
L 199.01952 249.371107 
L 199.2576 249.145878 
L 199.73376 247.40104 
L 200.20992 245.561472 
L 200.448 245.263639 
L 200.68608 245.606941 
L 200.92416 246.613594 
L 201.6384 251.987348 
L 202.11456 254.739502 
L 202.35264 255.135621 
L 202.59072 254.787952 
L 203.06688 252.406835 
L 203.54304 249.646033 
L 203.78112 248.913563 
L 204.0192 248.92345 
L 204.25728 249.761403 
L 204.73344 253.559491 
L 205.44768 260.189747 
L 205.68576 261.047368 
L 205.92384 260.545719 
L 206.16192 258.332169 
L 206.4 254.115863 
L 206.87616 238.901868 
L 207.35232 214.399769 
L 209.01888 106.471364 
L 209.25696 99.882228 
L 209.49504 98.061147 
L 209.73312 101.249833 
L 209.9712 109.263206 
L 210.44736 136.924868 
L 211.63776 217.387976 
L 212.11392 233.283345 
L 212.352 236.993107 
L 212.59008 238.665471 
L 212.82816 239.092045 
L 213.06624 239.05458 
L 213.30432 239.198653 
L 213.5424 239.944991 
L 214.01856 243.62222 
L 214.7328 250.910502 
L 214.97088 252.416003 
L 215.20896 253.11031 
L 215.44704 253.026954 
L 215.9232 251.391237 
L 216.39936 249.855017 
L 216.63744 249.755017 
L 216.87552 250.207363 
L 217.35168 252.26702 
L 217.82784 254.213564 
L 218.06592 254.530164 
L 218.304 254.241748 
L 218.54208 253.378714 
L 219.4944 248.160804 
L 219.73248 247.598563 
L 219.97056 247.600815 
L 220.20864 248.113027 
L 221.16096 251.408106 
L 221.39904 251.499682 
L 221.63712 251.086333 
L 222.11328 249.069184 
L 222.82752 245.755876 
L 223.0656 245.261119 
L 223.30368 245.192976 
L 223.54176 245.507096 
L 224.73216 248.286001 
L 224.97024 248.270524 
L 225.20832 247.986851 
L 225.68448 246.879928 
L 226.39872 245.07095 
L 227.11296 243.936828 
L 227.8272 242.867686 
L 229.0176 240.712392 
L 229.49376 240.370484 
L 229.96992 240.394948 
L 230.44608 240.444266 
L 230.68416 240.335993 
L 230.92224 240.07395 
L 231.3984 238.997613 
L 232.11264 236.272084 
L 232.82688 233.639823 
L 233.30304 232.826351 
L 233.54112 232.79259 
L 233.7792 232.980256 
L 234.9696 234.765358 
L 235.20768 234.786807 
L 235.44576 234.630601 
L 236.39808 233.529793 
L 236.63616 233.602722 
L 236.87424 233.967166 
L 237.3504 235.594457 
L 238.77888 242.276305 
L 239.25504 243.173616 
L 240.20736 244.07732 
L 240.68352 245.027122 
L 241.87392 247.949883 
L 242.35008 248.393341 
L 242.82624 248.380311 
L 243.54048 248.177032 
L 244.01664 248.254412 
L 244.73088 248.732082 
L 246.39744 250.195883 
L 246.63552 250.215249 
L 246.8736 250.10067 
L 247.34976 249.395944 
L 248.064 247.395924 
L 248.54016 246.072434 
L 249.01632 245.374862 
L 249.2544 245.352586 
L 249.49248 245.542716 
L 249.96864 246.39331 
L 250.92096 248.318002 
L 251.39712 248.746116 
L 251.87328 248.79086 
L 252.34944 248.585223 
L 253.06368 247.983059 
L 254.25408 246.84047 
L 254.49216 246.797919 
L 254.73024 246.874195 
L 255.2064 247.378619 
L 256.3968 249.120812 
L 256.63488 249.215852 
L 256.87296 249.178033 
L 257.34912 248.768214 
L 258.7776 246.992916 
L 259.25376 246.75139 
L 259.72992 246.807361 
L 260.20608 247.222163 
L 260.92032 248.438952 
L 261.63456 249.743489 
L 262.11072 250.2952 
L 264.01536 251.604849 
L 264.25344 251.621078 
L 264.49152 251.467359 
L 264.96768 250.560317 
L 266.15808 247.221906 
L 266.39616 247.073409 
L 266.63424 247.204148 
L 267.1104 248.048657 
L 267.58656 248.875228 
L 267.82464 248.970385 
L 268.06272 248.757844 
L 268.53888 247.518664 
L 269.01504 246.007695 
L 269.25312 245.57551 
L 269.4912 245.555909 
L 269.72928 246.019671 
L 270.20544 248.240836 
L 270.91968 252.293934 
L 271.15776 252.995158 
L 271.39584 253.132373 
L 271.63392 252.694595 
L 272.11008 250.542115 
L 272.58624 248.08128 
L 272.82432 247.292884 
L 273.0624 246.998841 
L 273.30048 247.235802 
L 273.77664 248.963174 
L 274.49088 251.855328 
L 274.72896 252.142527 
L 274.96704 251.936965 
L 275.20512 251.273183 
L 276.39552 246.197038 
L 276.6336 245.89233 
L 276.87168 245.977714 
L 277.10976 246.397072 
L 278.30016 249.602031 
L 278.53824 249.801642 
L 278.77632 249.775975 
L 279.25248 249.196468 
L 280.2048 247.50185 
L 280.68096 247.154206 
L 280.91904 247.198478 
L 281.3952 247.718067 
L 282.5856 249.716348 
L 282.82368 249.759181 
L 283.06176 249.573782 
L 283.53792 248.545615 
L 285.68064 242.065052 
L 286.87104 238.786202 
L 287.10912 238.529792 
L 287.3472 238.588282 
L 287.58528 238.988165 
L 288.06144 240.644433 
L 288.77568 243.493383 
L 289.01376 244.00743 
L 289.25184 244.185687 
L 289.48992 244.059474 
L 290.20416 243.101498 
L 290.44224 243.13625 
L 290.68032 243.566713 
L 291.15648 245.668112 
L 292.1088 251.337068 
L 292.34688 252.100016 
L 292.58496 252.438335 
L 292.82304 252.409848 
L 293.53728 251.567566 
L 293.77536 251.565579 
L 294.01344 251.870592 
L 294.4896 253.317528 
L 295.20384 255.966346 
L 295.68 256.793253 
L 295.91808 256.791151 
L 296.15616 256.490957 
L 296.39424 255.827929 
L 296.63232 254.649207 
L 296.8704 252.687946 
L 297.10848 249.564299 
L 297.58464 237.984928 
L 298.0608 216.673471 
L 298.77504 167.034844 
L 299.48928 115.623189 
L 299.96544 97.051846 
L 300.20352 95.357384 
L 300.4416 99.03665 
L 300.67968 107.676797 
L 301.15584 135.958178 
L 302.10816 199.35016 
L 302.58432 218.592203 
L 303.06048 228.286067 
L 303.77472 235.080971 
L 304.48896 243.177189 
L 305.2032 251.06939 
L 305.44128 252.418666 
L 305.67936 252.942141 
L 305.91744 252.74864 
L 306.86976 249.968218 
L 307.10784 249.954116 
L 307.34592 250.360047 
L 308.06016 252.424176 
L 308.29824 252.669838 
L 308.53632 252.438686 
L 308.7744 251.724795 
L 309.9648 246.702565 
L 310.20288 246.732238 
L 310.44096 247.246433 
L 311.39328 250.602859 
L 311.63136 250.749168 
L 311.86944 250.394809 
L 312.3456 248.464544 
L 313.05984 245.079687 
L 313.29792 244.487706 
L 313.536 244.282191 
L 313.77408 244.420236 
L 314.96448 246.200491 
L 315.20256 246.156134 
L 316.15488 245.42459 
L 316.63104 245.4932 
L 317.1072 245.612804 
L 317.34528 245.470112 
L 317.58336 245.086712 
L 318.05952 243.504424 
L 319.488 237.217378 
L 319.96416 236.483593 
L 320.91648 235.793022 
L 322.58304 233.750547 
L 323.0592 233.432707 
L 323.53536 232.788008 
L 324.48768 230.856408 
L 324.72576 230.683409 
L 324.96384 230.797395 
L 325.20192 231.217892 
L 325.67808 232.761491 
L 326.15424 234.399267 
L 326.39232 234.876112 
L 326.6304 234.977107 
L 326.86848 234.67366 
L 327.34464 233.148558 
L 327.8208 231.554355 
L 328.05888 231.258696 
L 328.29696 231.521859 
L 328.53504 232.41668 
L 329.0112 235.895351 
L 329.96352 244.08562 
L 330.2016 245.110762 
L 330.43968 245.508677 
L 330.67776 245.3334 
L 331.15392 243.872244 
L 331.63008 242.268841 
L 331.86816 241.841084 
L 332.10624 241.768041 
L 332.34432 242.031001 
L 333.53472 244.454285 
L 333.7728 244.433047 
L 334.24896 243.893218 
L 334.72512 243.472137 
L 334.9632 243.607918 
L 335.20128 244.068574 
L 335.67744 245.899333 
L 336.62976 250.14837 
L 336.86784 250.568174 
L 337.10592 250.57784 
L 337.344 250.190829 
L 337.82016 248.522696 
L 338.5344 245.569141 
L 339.01056 244.583308 
L 339.24864 244.551494 
L 339.48672 244.814504 
L 339.96288 245.990993 
L 340.67712 248.013757 
L 340.9152 248.369208 
L 341.15328 248.441237 
L 341.39136 248.197043 
L 341.86752 246.818599 
L 342.81984 242.909244 
L 343.05792 242.405497 
L 343.296 242.29132 
L 343.53408 242.591874 
L 344.01024 244.237111 
L 344.72448 247.309789 
L 344.96256 247.850653 
L 345.20064 247.956057 
L 345.43872 247.601711 
L 345.91488 245.783863 
L 346.62912 242.622451 
L 346.8672 242.134035 
L 347.10528 242.102436 
L 347.34336 242.528351 
L 347.81952 244.404893 
L 348.53376 247.48096 
L 348.77184 248.007586 
L 349.00992 248.17905 
L 349.248 248.026141 
L 349.72416 247.122784 
L 350.20032 246.246207 
L 350.4384 246.075252 
L 350.67648 246.140789 
L 351.15264 246.865931 
L 351.86688 248.239504 
L 352.10496 248.450292 
L 352.34304 248.474071 
L 352.8192 248.046782 
L 353.77152 246.795034 
L 354.24768 246.585357 
L 354.96192 246.680686 
L 355.67616 247.00471 
L 356.15232 247.472694 
L 357.34272 248.990377 
L 357.5808 249.002381 
L 357.81888 248.831782 
L 358.29504 248.032461 
L 358.7712 247.091566 
L 359.00928 246.80907 
L 359.24736 246.768373 
L 359.48544 247.016811 
L 359.9616 248.326671 
L 360.67584 250.914399 
L 360.91392 251.407 
L 361.152 251.527382 
L 361.39008 251.233259 
L 361.86624 249.551675 
L 362.58048 246.198086 
L 362.81856 245.492974 
L 363.05664 245.192227 
L 363.29472 245.330018 
L 363.5328 245.872205 
L 364.7232 250.270136 
L 364.96128 250.550641 
L 365.19936 250.487728 
L 365.67552 249.593552 
L 366.15168 248.47975 
L 366.38976 248.159304 
L 366.62784 248.110359 
L 366.86592 248.35457 
L 367.34208 249.532486 
L 368.05632 251.406355 
L 368.2944 251.617635 
L 368.53248 251.528055 
L 368.77056 251.155989 
L 370.19904 247.867485 
L 370.43712 247.842358 
L 370.91328 248.174005 
L 371.38944 248.468703 
L 371.62752 248.428741 
L 372.10368 247.88153 
L 374.2464 243.642357 
L 374.72256 241.727001 
L 375.4368 238.408803 
L 375.67488 237.698139 
L 375.91296 237.414613 
L 376.15104 237.640337 
L 376.38912 238.389966 
L 376.86528 241.151211 
L 377.57952 245.979826 
L 378.05568 247.780764 
L 378.29376 248.083041 
L 378.53184 248.079129 
L 379.24608 247.654748 
L 379.48416 247.812246 
L 379.96032 248.849011 
L 380.67456 251.00288 
L 380.91264 251.437996 
L 381.15072 251.629491 
L 381.3888 251.604952 
L 382.10304 251.261241 
L 382.34112 251.478697 
L 382.5792 252.011575 
L 383.05536 253.987426 
L 384.00768 258.815857 
L 384.48384 259.996533 
L 384.72192 260.081022 
L 384.96 259.749242 
L 385.19808 258.8698 
L 385.43616 257.218701 
L 385.67424 254.471391 
L 386.1504 244.036476 
L 386.62656 224.420729 
L 387.10272 194.63595 
L 388.29312 109.389514 
L 388.5312 99.728703 
L 388.76928 94.974298 
L 389.00736 95.522774 
L 389.24544 101.286213 
L 389.7216 125.793227 
L 391.15008 218.035902 
L 391.62624 232.372068 
L 392.1024 238.748547 
L 392.57856 241.478637 
L 393.53088 246.225806 
L 394.00704 248.43948 
L 394.4832 249.796115 
L 395.19744 251.190665 
L 395.6736 252.791224 
L 396.38784 255.784263 
L 396.62592 256.404813 
L 396.864 256.617764 
L 397.10208 256.372935 
L 397.57824 254.707191 
L 398.29248 251.484483 
L 398.53056 250.856616 
L 398.76864 250.590153 
L 399.00672 250.660818 
L 399.48288 251.41772 
L 399.95904 252.114503 
L 400.19712 252.179414 
L 400.4352 252.008775 
L 400.91136 251.117714 
L 401.86368 249.100477 
L 403.76832 246.530285 
L 404.0064 246.548871 
L 404.24448 246.782322 
L 404.72064 247.754162 
L 405.1968 248.753035 
L 405.43488 248.960214 
L 405.67296 248.85262 
L 405.91104 248.407784 
L 406.3872 246.744128 
L 407.10144 244.299683 
L 407.33952 243.995116 
L 407.5776 244.000741 
L 408.29184 244.780058 
L 408.52992 244.738448 
L 408.768 244.301419 
L 409.24416 242.119498 
L 410.19648 236.122998 
L 410.43456 235.403784 
L 410.67264 235.232426 
L 410.91072 235.571774 
L 412.10112 238.963962 
L 412.3392 238.765187 
L 412.57728 238.141797 
L 413.76768 233.506365 
L 414.00576 233.226261 
L 414.24384 233.252467 
L 414.72 233.872798 
L 414.95808 234.247168 
L 414.95808 234.247168 
" clip-path="url(#pf0d312c96e)" style="fill: none; stroke: #1f77b4; stroke-width: 1.5; stroke-linecap: square"/>
   </g>
   <g id="patch_3">
    <path d="M 57.6 307.584 
L 57.6 41.472 
" style="fill: none; stroke: #000000; stroke-width: 0.8; stroke-linejoin: miter; stroke-linecap: square"/>
   </g>
   <g id="patch_4">
    <path d="M 414.72 307.584 
L 414.72 41.472 
" style="fill: none; stroke: #000000; stroke-width: 0.8; stroke-linejoin: miter; stroke-linecap: square"/>
   </g>
   <g id="patch_5">
    <path d="M 57.6 307.584 
L 414.72 307.584 
" style="fill: none; stroke: #000000; stroke-width: 0.8; stroke-linejoin: miter; stroke-linecap: square"/>
   </g>
   <g id="patch_6">
    <path d="M 57.6 41.472 
L 414.72 41.472 
" style="fill: none; stroke: #000000; stroke-width: 0.8; stroke-linejoin: miter; stroke-linecap: square"/>
   </g>
   <g id="text_19">
    <!-- Heartrate Sample Zoomed in - Realtime FIR Filtered -->
    <g transform="translate(80.888438 35.472) scale(0.12 -0.12)">
     <defs>
      <path id="DejaVuSans-48" d="M 628 4666 
L 1259 4666 
L 1259 2753 
L 3553 2753 
L 3553 4666 
L 4184 4666 
L 4184 0 
L 3553 0 
L 3553 2222 
L 1259 2222 
L 1259 0 
L 628 0 
L 628 4666 
z
" transform="scale(0.015625)"/>
      <path id="DejaVuSans-61" d="M 2194 1759 
Q 1497 1759 1228 1600 
Q 959 1441 959 1056 
Q 959 750 1161 570 
Q 1363 391 1709 391 
Q 2188 391 2477 730 
Q 2766 1069 2766 1631 
L 2766 1759 
L 2194 1759 
z
M 3341 1997 
L 3341 0 
L 2766 0 
L 2766 531 
Q 2569 213 2275 61 
Q 1981 -91 1556 -91 
Q 1019 -91 701 211 
Q 384 513 384 1019 
Q 384 1609 779 1909 
Q 1175 2209 1959 2209 
L 2766 2209 
L 2766 2266 
Q 2766 2663 2505 2880 
Q 2244 3097 1772 3097 
Q 1472 3097 1187 3025 
Q 903 2953 641 2809 
L 641 3341 
Q 956 3463 1253 3523 
Q 1550 3584 1831 3584 
Q 2591 3584 2966 3190 
Q 3341 2797 3341 1997 
z
" transform="scale(0.015625)"/>
      <path id="DejaVuSans-72" d="M 2631 2963 
Q 2534 3019 2420 3045 
Q 2306 3072 2169 3072 
Q 1681 3072 1420 2755 
Q 1159 2438 1159 1844 
L 1159 0 
L 581 0 
L 581 3500 
L 1159 3500 
L 1159 2956 
Q 1341 3275 1631 3429 
Q 1922 3584 2338 3584 
Q 2397 3584 2469 3576 
Q 2541 3569 2628 3553 
L 2631 2963 
z
" transform="scale(0.015625)"/>
      <path id="DejaVuSans-53" d="M 3425 4513 
L 3425 3897 
Q 3066 4069 2747 4153 
Q 2428 4238 2131 4238 
Q 1616 4238 1336 4038 
Q 1056 3838 1056 3469 
Q 1056 3159 1242 3001 
Q 1428 2844 1947 2747 
L 2328 2669 
Q 3034 2534 3370 2195 
Q 3706 1856 3706 1288 
Q 3706 609 3251 259 
Q 2797 -91 1919 -91 
Q 1588 -91 1214 -16 
Q 841 59 441 206 
L 441 856 
Q 825 641 1194 531 
Q 1563 422 1919 422 
Q 2459 422 2753 634 
Q 3047 847 3047 1241 
Q 3047 1584 2836 1778 
Q 2625 1972 2144 2069 
L 1759 2144 
Q 1053 2284 737 2584 
Q 422 2884 422 3419 
Q 422 4038 858 4394 
Q 1294 4750 2059 4750 
Q 2388 4750 2728 4690 
Q 3069 4631 3425 4513 
z
" transform="scale(0.015625)"/>
      <path id="DejaVuSans-5a" d="M 359 4666 
L 4025 4666 
L 4025 4184 
L 1075 531 
L 4097 531 
L 4097 0 
L 288 0 
L 288 481 
L 3238 4134 
L 359 4134 
L 359 4666 
z
" transform="scale(0.015625)"/>
      <path id="DejaVuSans-6f" d="M 1959 3097 
Q 1497 3097 1228 2736 
Q 959 2375 959 1747 
Q 959 1119 1226 758 
Q 1494 397 1959 397 
Q 2419 397 2687 759 
Q 2956 1122 2956 1747 
Q 2956 2369 2687 2733 
Q 2419 3097 1959 3097 
z
M 1959 3584 
Q 2709 3584 3137 3096 
Q 3566 2609 3566 1747 
Q 3566 888 3137 398 
Q 2709 -91 1959 -91 
Q 1206 -91 779 398 
Q 353 888 353 1747 
Q 353 2609 779 3096 
Q 1206 3584 1959 3584 
z
" transform="scale(0.015625)"/>
      <path id="DejaVuSans-6e" d="M 3513 2113 
L 3513 0 
L 2938 0 
L 2938 2094 
Q 2938 2591 2744 2837 
Q 2550 3084 2163 3084 
Q 1697 3084 1428 2787 
Q 1159 2491 1159 1978 
L 1159 0 
L 581 0 
L 581 3500 
L 1159 3500 
L 1159 2956 
Q 1366 3272 1645 3428 
Q 1925 3584 2291 3584 
Q 2894 3584 3203 3211 
Q 3513 2838 3513 2113 
z
" transform="scale(0.015625)"/>
      <path id="DejaVuSans-2d" d="M 313 2009 
L 1997 2009 
L 1997 1497 
L 313 1497 
L 313 2009 
z
" transform="scale(0.015625)"/>
      <path id="DejaVuSans-52" d="M 2841 2188 
Q 3044 2119 3236 1894 
Q 3428 1669 3622 1275 
L 4263 0 
L 3584 0 
L 2988 1197 
Q 2756 1666 2539 1819 
Q 2322 1972 1947 1972 
L 1259 1972 
L 1259 0 
L 628 0 
L 628 4666 
L 2053 4666 
Q 2853 4666 3247 4331 
Q 3641 3997 3641 3322 
Q 3641 2881 3436 2590 
Q 3231 2300 2841 2188 
z
M 1259 4147 
L 1259 2491 
L 2053 2491 
Q 2509 2491 2742 2702 
Q 2975 2913 2975 3322 
Q 2975 3731 2742 3939 
Q 2509 4147 2053 4147 
L 1259 4147 
z
" transform="scale(0.015625)"/>
      <path id="DejaVuSans-46" d="M 628 4666 
L 3309 4666 
L 3309 4134 
L 1259 4134 
L 1259 2759 
L 3109 2759 
L 3109 2228 
L 1259 2228 
L 1259 0 
L 628 0 
L 628 4666 
z
" transform="scale(0.015625)"/>
      <path id="DejaVuSans-49" d="M 628 4666 
L 1259 4666 
L 1259 0 
L 628 0 
L 628 4666 
z
" transform="scale(0.015625)"/>
     </defs>
     <use xlink:href="#DejaVuSans-48"/>
     <use xlink:href="#DejaVuSans-65" x="75.195312"/>
     <use xlink:href="#DejaVuSans-61" x="136.71875"/>
     <use xlink:href="#DejaVuSans-72" x="197.998047"/>
     <use xlink:href="#DejaVuSans-74" x="239.111328"/>
     <use xlink:href="#DejaVuSans-72" x="278.320312"/>
     <use xlink:href="#DejaVuSans-61" x="319.433594"/>
     <use xlink:href="#DejaVuSans-74" x="380.712891"/>
     <use xlink:href="#DejaVuSans-65" x="419.921875"/>
     <use xlink:href="#DejaVuSans-20" x="481.445312"/>
     <use xlink:href="#DejaVuSans-53" x="513.232422"/>
     <use xlink:href="#DejaVuSans-61" x="576.708984"/>
     <use xlink:href="#DejaVuSans-6d" x="637.988281"/>
     <use xlink:href="#DejaVuSans-70" x="735.400391"/>
     <use xlink:href="#DejaVuSans-6c" x="798.876953"/>
     <use xlink:href="#DejaVuSans-65" x="826.660156"/>
     <use xlink:href="#DejaVuSans-20" x="888.183594"/>
     <use xlink:href="#DejaVuSans-5a" x="919.970703"/>
     <use xlink:href="#DejaVuSans-6f" x="988.476562"/>
     <use xlink:href="#DejaVuSans-6f" x="1049.658203"/>
     <use xlink:href="#DejaVuSans-6d" x="1110.839844"/>
     <use xlink:href="#DejaVuSans-65" x="1208.251953"/>
     <use xlink:href="#DejaVuSans-64" x="1269.775391"/>
     <use xlink:href="#DejaVuSans-20" x="1333.251953"/>
     <use xlink:href="#DejaVuSans-69" x="1365.039062"/>
     <use xlink:href="#DejaVuSans-6e" x="1392.822266"/>
     <use xlink:href="#DejaVuSans-20" x="1456.201172"/>
     <use xlink:href="#DejaVuSans-2d" x="1487.988281"/>
     <use xlink:href="#DejaVuSans-20" x="1524.072266"/>
     <use xlink:href="#DejaVuSans-52" x="1555.859375"/>
     <use xlink:href="#DejaVuSans-65" x="1620.841797"/>
     <use xlink:href="#DejaVuSans-61" x="1682.365234"/>
     <use xlink:href="#DejaVuSans-6c" x="1743.644531"/>
     <use xlink:href="#DejaVuSans-74" x="1771.427734"/>
     <use xlink:href="#DejaVuSans-69" x="1810.636719"/>
     <use xlink:href="#DejaVuSans-6d" x="1838.419922"/>
     <use xlink:href="#DejaVuSans-65" x="1935.832031"/>
     <use xlink:href="#DejaVuSans-20" x="1997.355469"/>
     <use xlink:href="#DejaVuSans-46" x="2029.142578"/>
     <use xlink:href="#DejaVuSans-49" x="2086.662109"/>
     <use xlink:href="#DejaVuSans-52" x="2116.154297"/>
     <use xlink:href="#DejaVuSans-20" x="2185.636719"/>
     <use xlink:href="#DejaVuSans-46" x="2217.423828"/>
     <use xlink:href="#DejaVuSans-69" x="2267.693359"/>
     <use xlink:href="#DejaVuSans-6c" x="2295.476562"/>
     <use xlink:href="#DejaVuSans-74" x="2323.259766"/>
     <use xlink:href="#DejaVuSans-65" x="2362.46875"/>
     <use xlink:href="#DejaVuSans-72" x="2423.992188"/>
     <use xlink:href="#DejaVuSans-65" x="2462.855469"/>
     <use xlink:href="#DejaVuSans-64" x="2524.378906"/>
    </g>
   </g>
  </g>
 </g>
 <defs>
  <clipPath id="pf0d312c96e">
   <rect x="57.6" y="41.472" width="357.12" height="266.112"/>
  </clipPath>
 </defs>
</svg>
