<?xml version="1.0" encoding="utf-8" standalone="no"?>
<!DOCTYPE svg PUBLIC "-//W3C//DTD SVG 1.1//EN"
  "http://www.w3.org/Graphics/SVG/1.1/DTD/svg11.dtd">
<svg xmlns:xlink="http://www.w3.org/1999/xlink" width="460.8pt" height="345.6pt" viewBox="0 0 460.8 345.6" xmlns="http://www.w3.org/2000/svg" version="1.1">
 <metadata>
  <rdf:RDF xmlns:dc="http://purl.org/dc/elements/1.1/" xmlns:cc="http://creativecommons.org/ns#" xmlns:rdf="http://www.w3.org/1999/02/22-rdf-syntax-ns#">
   <cc:Work>
    <dc:type rdf:resource="http://purl.org/dc/dcmitype/StillImage"/>
    <dc:date>2025-11-08T17:35:27.516620</dc:date>
    <dc:format>image/svg+xml</dc:format>
    <dc:creator>
     <cc:Agent>
      <dc:title>Matplotlib v3.9.4, https://matplotlib.org/</dc:title>
     </cc:Agent>
    </dc:creator>
   </cc:Work>
  </rdf:RDF>
 </metadata>
 <defs>
  <style type="text/css">*{stroke-linejoin: round; stroke-linecap: butt}</style>
 </defs>
 <g id="figure_1">
  <g id="patch_1">
   <path d="M 0 345.6 
L 460.8 345.6 
L 460.8 0 
L 0 0 
z
" style="fill: #ffffff"/>
  </g>
  <g id="axes_1">
   <g id="patch_2">
    <path d="M 57.6 307.584 
L 414.72 307.584 
L 414.72 41.472 
L 57.6 41.472 
z
" style="fill: #ffffff"/>
   </g>
   <g id="matplotlib.axis_1">
    <g id="xtick_1">
     <g id="line2d_1">
      <path d="M 73.832727 307.584 
L 73.832727 41.472 
" clip-path="url(#p9a3e1db97b)" style="fill: none; stroke: #b0b0b0; stroke-width: 0.8; stroke-linecap: square"/>
     </g>
     <g id="line2d_2">
      <defs>
       <path id="m81c24a0ded" d="M 0 0 
L 0 3.5 
" style="stroke: #000000; stroke-width: 0.8"/>
      </defs>
      <g>
       <use xlink:href="#m81c24a0ded" x="73.832727" y="307.584" style="stroke: #000000; stroke-width: 0.8"/>
      </g>
     </g>
     <g id="text_1">
      <!-- 0 -->
      <g transform="translate(70.651477 322.182437) scale(0.1 -0.1)">
       <defs>
        <path id="DejaVuSans-30" d="M 2034 4250 
Q 1547 4250 1301 3770 
Q 1056 3291 1056 2328 
Q 1056 1369 1301 889 
Q 1547 409 2034 409 
Q 2525 409 2770 889 
Q 3016 1369 3016 2328 
Q 3016 3291 2770 3770 
Q 2525 4250 2034 4250 
z
M 2034 4750 
Q 2819 4750 3233 4129 
Q 3647 3509 3647 2328 
Q 3647 1150 3233 529 
Q 2819 -91 2034 -91 
Q 1250 -91 836 529 
Q 422 1150 422 2328 
Q 422 3509 836 4129 
Q 1250 4750 2034 4750 
z
" transform="scale(0.015625)"/>
       </defs>
       <use xlink:href="#DejaVuSans-30"/>
      </g>
     </g>
    </g>
    <g id="xtick_2">
     <g id="line2d_3">
      <path d="M 123.534893 307.584 
L 123.534893 41.472 
" clip-path="url(#p9a3e1db97b)" style="fill: none; stroke: #b0b0b0; stroke-width: 0.8; stroke-linecap: square"/>
     </g>
     <g id="line2d_4">
      <g>
       <use xlink:href="#m81c24a0ded" x="123.534893" y="307.584" style="stroke: #000000; stroke-width: 0.8"/>
      </g>
     </g>
     <g id="text_2">
      <!-- 5 -->
      <g transform="translate(120.353643 322.182437) scale(0.1 -0.1)">
       <defs>
        <path id="DejaVuSans-35" d="M 691 4666 
L 3169 4666 
L 3169 4134 
L 1269 4134 
L 1269 2991 
Q 1406 3038 1543 3061 
Q 1681 3084 1819 3084 
Q 2600 3084 3056 2656 
Q 3513 2228 3513 1497 
Q 3513 744 3044 326 
Q 2575 -91 1722 -91 
Q 1428 -91 1123 -41 
Q 819 9 494 109 
L 494 744 
Q 775 591 1075 516 
Q 1375 441 1709 441 
Q 2250 441 2565 725 
Q 2881 1009 2881 1497 
Q 2881 1984 2565 2268 
Q 2250 2553 1709 2553 
Q 1456 2553 1204 2497 
Q 953 2441 691 2322 
L 691 4666 
z
" transform="scale(0.015625)"/>
       </defs>
       <use xlink:href="#DejaVuSans-35"/>
      </g>
     </g>
    </g>
    <g id="xtick_3">
     <g id="line2d_5">
      <path d="M 173.237058 307.584 
L 173.237058 41.472 
" clip-path="url(#p9a3e1db97b)" style="fill: none; stroke: #b0b0b0; stroke-width: 0.8; stroke-linecap: square"/>
     </g>
     <g id="line2d_6">
      <g>
       <use xlink:href="#m81c24a0ded" x="173.237058" y="307.584" style="stroke: #000000; stroke-width: 0.8"/>
      </g>
     </g>
     <g id="text_3">
      <!-- 10 -->
      <g transform="translate(166.874558 322.182437) scale(0.1 -0.1)">
       <defs>
        <path id="DejaVuSans-31" d="M 794 531 
L 1825 531 
L 1825 4091 
L 703 3866 
L 703 4441 
L 1819 4666 
L 2450 4666 
L 2450 531 
L 3481 531 
L 3481 0 
L 794 0 
L 794 531 
z
" transform="scale(0.015625)"/>
       </defs>
       <use xlink:href="#DejaVuSans-31"/>
       <use xlink:href="#DejaVuSans-30" x="63.623047"/>
      </g>
     </g>
    </g>
    <g id="xtick_4">
     <g id="line2d_7">
      <path d="M 222.939224 307.584 
L 222.939224 41.472 
" clip-path="url(#p9a3e1db97b)" style="fill: none; stroke: #b0b0b0; stroke-width: 0.8; stroke-linecap: square"/>
     </g>
     <g id="line2d_8">
      <g>
       <use xlink:href="#m81c24a0ded" x="222.939224" y="307.584" style="stroke: #000000; stroke-width: 0.8"/>
      </g>
     </g>
     <g id="text_4">
      <!-- 15 -->
      <g transform="translate(216.576724 322.182437) scale(0.1 -0.1)">
       <use xlink:href="#DejaVuSans-31"/>
       <use xlink:href="#DejaVuSans-35" x="63.623047"/>
      </g>
     </g>
    </g>
    <g id="xtick_5">
     <g id="line2d_9">
      <path d="M 272.64139 307.584 
L 272.64139 41.472 
" clip-path="url(#p9a3e1db97b)" style="fill: none; stroke: #b0b0b0; stroke-width: 0.8; stroke-linecap: square"/>
     </g>
     <g id="line2d_10">
      <g>
       <use xlink:href="#m81c24a0ded" x="272.64139" y="307.584" style="stroke: #000000; stroke-width: 0.8"/>
      </g>
     </g>
     <g id="text_5">
      <!-- 20 -->
      <g transform="translate(266.27889 322.182437) scale(0.1 -0.1)">
       <defs>
        <path id="DejaVuSans-32" d="M 1228 531 
L 3431 531 
L 3431 0 
L 469 0 
L 469 531 
Q 828 903 1448 1529 
Q 2069 2156 2228 2338 
Q 2531 2678 2651 2914 
Q 2772 3150 2772 3378 
Q 2772 3750 2511 3984 
Q 2250 4219 1831 4219 
Q 1534 4219 1204 4116 
Q 875 4013 500 3803 
L 500 4441 
Q 881 4594 1212 4672 
Q 1544 4750 1819 4750 
Q 2544 4750 2975 4387 
Q 3406 4025 3406 3419 
Q 3406 3131 3298 2873 
Q 3191 2616 2906 2266 
Q 2828 2175 2409 1742 
Q 1991 1309 1228 531 
z
" transform="scale(0.015625)"/>
       </defs>
       <use xlink:href="#DejaVuSans-32"/>
       <use xlink:href="#DejaVuSans-30" x="63.623047"/>
      </g>
     </g>
    </g>
    <g id="xtick_6">
     <g id="line2d_11">
      <path d="M 322.343555 307.584 
L 322.343555 41.472 
" clip-path="url(#p9a3e1db97b)" style="fill: none; stroke: #b0b0b0; stroke-width: 0.8; stroke-linecap: square"/>
     </g>
     <g id="line2d_12">
      <g>
       <use xlink:href="#m81c24a0ded" x="322.343555" y="307.584" style="stroke: #000000; stroke-width: 0.8"/>
      </g>
     </g>
     <g id="text_6">
      <!-- 25 -->
      <g transform="translate(315.981055 322.182437) scale(0.1 -0.1)">
       <use xlink:href="#DejaVuSans-32"/>
       <use xlink:href="#DejaVuSans-35" x="63.623047"/>
      </g>
     </g>
    </g>
    <g id="xtick_7">
     <g id="line2d_13">
      <path d="M 372.045721 307.584 
L 372.045721 41.472 
" clip-path="url(#p9a3e1db97b)" style="fill: none; stroke: #b0b0b0; stroke-width: 0.8; stroke-linecap: square"/>
     </g>
     <g id="line2d_14">
      <g>
       <use xlink:href="#m81c24a0ded" x="372.045721" y="307.584" style="stroke: #000000; stroke-width: 0.8"/>
      </g>
     </g>
     <g id="text_7">
      <!-- 30 -->
      <g transform="translate(365.683221 322.182437) scale(0.1 -0.1)">
       <defs>
        <path id="DejaVuSans-33" d="M 2597 2516 
Q 3050 2419 3304 2112 
Q 3559 1806 3559 1356 
Q 3559 666 3084 287 
Q 2609 -91 1734 -91 
Q 1441 -91 1130 -33 
Q 819 25 488 141 
L 488 750 
Q 750 597 1062 519 
Q 1375 441 1716 441 
Q 2309 441 2620 675 
Q 2931 909 2931 1356 
Q 2931 1769 2642 2001 
Q 2353 2234 1838 2234 
L 1294 2234 
L 1294 2753 
L 1863 2753 
Q 2328 2753 2575 2939 
Q 2822 3125 2822 3475 
Q 2822 3834 2567 4026 
Q 2313 4219 1838 4219 
Q 1578 4219 1281 4162 
Q 984 4106 628 3988 
L 628 4550 
Q 988 4650 1302 4700 
Q 1616 4750 1894 4750 
Q 2613 4750 3031 4423 
Q 3450 4097 3450 3541 
Q 3450 3153 3228 2886 
Q 3006 2619 2597 2516 
z
" transform="scale(0.015625)"/>
       </defs>
       <use xlink:href="#DejaVuSans-33"/>
       <use xlink:href="#DejaVuSans-30" x="63.623047"/>
      </g>
     </g>
    </g>
    <g id="text_8">
     <!-- Time (s) -->
     <g transform="translate(215.831094 335.860562) scale(0.1 -0.1)">
      <defs>
       <path id="DejaVuSans-54" d="M -19 4666 
L 3928 4666 
L 3928 4134 
L 2272 4134 
L 2272 0 
L 1638 0 
L 1638 4134 
L -19 4134 
L -19 4666 
z
" transform="scale(0.015625)"/>
       <path id="DejaVuSans-69" d="M 603 3500 
L 1178 3500 
L 1178 0 
L 603 0 
L 603 3500 
z
M 603 4863 
L 1178 4863 
L 1178 4134 
L 603 4134 
L 603 4863 
z
" transform="scale(0.015625)"/>
       <path id="DejaVuSans-6d" d="M 3328 2828 
Q 3544 3216 3844 3400 
Q 4144 3584 4550 3584 
Q 5097 3584 5394 3201 
Q 5691 2819 5691 2113 
L 5691 0 
L 5113 0 
L 5113 2094 
Q 5113 2597 4934 2840 
Q 4756 3084 4391 3084 
Q 3944 3084 3684 2787 
Q 3425 2491 3425 1978 
L 3425 0 
L 2847 0 
L 2847 2094 
Q 2847 2600 2669 2842 
Q 2491 3084 2119 3084 
Q 1678 3084 1418 2786 
Q 1159 2488 1159 1978 
L 1159 0 
L 581 0 
L 581 3500 
L 1159 3500 
L 1159 2956 
Q 1356 3278 1631 3431 
Q 1906 3584 2284 3584 
Q 2666 3584 2933 3390 
Q 3200 3197 3328 2828 
z
" transform="scale(0.015625)"/>
       <path id="DejaVuSans-65" d="M 3597 1894 
L 3597 1613 
L 953 1613 
Q 991 1019 1311 708 
Q 1631 397 2203 397 
Q 2534 397 2845 478 
Q 3156 559 3463 722 
L 3463 178 
Q 3153 47 2828 -22 
Q 2503 -91 2169 -91 
Q 1331 -91 842 396 
Q 353 884 353 1716 
Q 353 2575 817 3079 
Q 1281 3584 2069 3584 
Q 2775 3584 3186 3129 
Q 3597 2675 3597 1894 
z
M 3022 2063 
Q 3016 2534 2758 2815 
Q 2500 3097 2075 3097 
Q 1594 3097 1305 2825 
Q 1016 2553 972 2059 
L 3022 2063 
z
" transform="scale(0.015625)"/>
       <path id="DejaVuSans-20" transform="scale(0.015625)"/>
       <path id="DejaVuSans-28" d="M 1984 4856 
Q 1566 4138 1362 3434 
Q 1159 2731 1159 2009 
Q 1159 1288 1364 580 
Q 1569 -128 1984 -844 
L 1484 -844 
Q 1016 -109 783 600 
Q 550 1309 550 2009 
Q 550 2706 781 3412 
Q 1013 4119 1484 4856 
L 1984 4856 
z
" transform="scale(0.015625)"/>
       <path id="DejaVuSans-73" d="M 2834 3397 
L 2834 2853 
Q 2591 2978 2328 3040 
Q 2066 3103 1784 3103 
Q 1356 3103 1142 2972 
Q 928 2841 928 2578 
Q 928 2378 1081 2264 
Q 1234 2150 1697 2047 
L 1894 2003 
Q 2506 1872 2764 1633 
Q 3022 1394 3022 966 
Q 3022 478 2636 193 
Q 2250 -91 1575 -91 
Q 1294 -91 989 -36 
Q 684 19 347 128 
L 347 722 
Q 666 556 975 473 
Q 1284 391 1588 391 
Q 1994 391 2212 530 
Q 2431 669 2431 922 
Q 2431 1156 2273 1281 
Q 2116 1406 1581 1522 
L 1381 1569 
Q 847 1681 609 1914 
Q 372 2147 372 2553 
Q 372 3047 722 3315 
Q 1072 3584 1716 3584 
Q 2034 3584 2315 3537 
Q 2597 3491 2834 3397 
z
" transform="scale(0.015625)"/>
       <path id="DejaVuSans-29" d="M 513 4856 
L 1013 4856 
Q 1481 4119 1714 3412 
Q 1947 2706 1947 2009 
Q 1947 1309 1714 600 
Q 1481 -109 1013 -844 
L 513 -844 
Q 928 -128 1133 580 
Q 1338 1288 1338 2009 
Q 1338 2731 1133 3434 
Q 928 4138 513 4856 
z
" transform="scale(0.015625)"/>
      </defs>
      <use xlink:href="#DejaVuSans-54"/>
      <use xlink:href="#DejaVuSans-69" x="57.958984"/>
      <use xlink:href="#DejaVuSans-6d" x="85.742188"/>
      <use xlink:href="#DejaVuSans-65" x="183.154297"/>
      <use xlink:href="#DejaVuSans-20" x="244.677734"/>
      <use xlink:href="#DejaVuSans-28" x="276.464844"/>
      <use xlink:href="#DejaVuSans-73" x="315.478516"/>
      <use xlink:href="#DejaVuSans-29" x="367.578125"/>
     </g>
    </g>
   </g>
   <g id="matplotlib.axis_2">
    <g id="ytick_1">
     <g id="line2d_15">
      <path d="M 57.6 295.488 
L 414.72 295.488 
" clip-path="url(#p9a3e1db97b)" style="fill: none; stroke: #b0b0b0; stroke-width: 0.8; stroke-linecap: square"/>
     </g>
     <g id="line2d_16">
      <defs>
       <path id="mdd59533a00" d="M 0 0 
L -3.5 0 
" style="stroke: #000000; stroke-width: 0.8"/>
      </defs>
      <g>
       <use xlink:href="#mdd59533a00" x="57.6" y="295.488" style="stroke: #000000; stroke-width: 0.8"/>
      </g>
     </g>
     <g id="text_9">
      <!-- 0.0 -->
      <g transform="translate(34.696875 299.287219) scale(0.1 -0.1)">
       <defs>
        <path id="DejaVuSans-2e" d="M 684 794 
L 1344 794 
L 1344 0 
L 684 0 
L 684 794 
z
" transform="scale(0.015625)"/>
       </defs>
       <use xlink:href="#DejaVuSans-30"/>
       <use xlink:href="#DejaVuSans-2e" x="63.623047"/>
       <use xlink:href="#DejaVuSans-30" x="95.410156"/>
      </g>
     </g>
    </g>
    <g id="ytick_2">
     <g id="line2d_17">
      <path d="M 57.6 263.149356 
L 414.72 263.149356 
" clip-path="url(#p9a3e1db97b)" style="fill: none; stroke: #b0b0b0; stroke-width: 0.8; stroke-linecap: square"/>
     </g>
     <g id="line2d_18">
      <g>
       <use xlink:href="#mdd59533a00" x="57.6" y="263.149356" style="stroke: #000000; stroke-width: 0.8"/>
      </g>
     </g>
     <g id="text_10">
      <!-- 0.2 -->
      <g transform="translate(34.696875 266.948575) scale(0.1 -0.1)">
       <use xlink:href="#DejaVuSans-30"/>
       <use xlink:href="#DejaVuSans-2e" x="63.623047"/>
       <use xlink:href="#DejaVuSans-32" x="95.410156"/>
      </g>
     </g>
    </g>
    <g id="ytick_3">
     <g id="line2d_19">
      <path d="M 57.6 230.810712 
L 414.72 230.810712 
" clip-path="url(#p9a3e1db97b)" style="fill: none; stroke: #b0b0b0; stroke-width: 0.8; stroke-linecap: square"/>
     </g>
     <g id="line2d_20">
      <g>
       <use xlink:href="#mdd59533a00" x="57.6" y="230.810712" style="stroke: #000000; stroke-width: 0.8"/>
      </g>
     </g>
     <g id="text_11">
      <!-- 0.4 -->
      <g transform="translate(34.696875 234.60993) scale(0.1 -0.1)">
       <defs>
        <path id="DejaVuSans-34" d="M 2419 4116 
L 825 1625 
L 2419 1625 
L 2419 4116 
z
M 2253 4666 
L 3047 4666 
L 3047 1625 
L 3713 1625 
L 3713 1100 
L 3047 1100 
L 3047 0 
L 2419 0 
L 2419 1100 
L 313 1100 
L 313 1709 
L 2253 4666 
z
" transform="scale(0.015625)"/>
       </defs>
       <use xlink:href="#DejaVuSans-30"/>
       <use xlink:href="#DejaVuSans-2e" x="63.623047"/>
       <use xlink:href="#DejaVuSans-34" x="95.410156"/>
      </g>
     </g>
    </g>
    <g id="ytick_4">
     <g id="line2d_21">
      <path d="M 57.6 198.472068 
L 414.72 198.472068 
" clip-path="url(#p9a3e1db97b)" style="fill: none; stroke: #b0b0b0; stroke-width: 0.8; stroke-linecap: square"/>
     </g>
     <g id="line2d_22">
      <g>
       <use xlink:href="#mdd59533a00" x="57.6" y="198.472068" style="stroke: #000000; stroke-width: 0.8"/>
      </g>
     </g>
     <g id="text_12">
      <!-- 0.6 -->
      <g transform="translate(34.696875 202.271286) scale(0.1 -0.1)">
       <defs>
        <path id="DejaVuSans-36" d="M 2113 2584 
Q 1688 2584 1439 2293 
Q 1191 2003 1191 1497 
Q 1191 994 1439 701 
Q 1688 409 2113 409 
Q 2538 409 2786 701 
Q 3034 994 3034 1497 
Q 3034 2003 2786 2293 
Q 2538 2584 2113 2584 
z
M 3366 4563 
L 3366 3988 
Q 3128 4100 2886 4159 
Q 2644 4219 2406 4219 
Q 1781 4219 1451 3797 
Q 1122 3375 1075 2522 
Q 1259 2794 1537 2939 
Q 1816 3084 2150 3084 
Q 2853 3084 3261 2657 
Q 3669 2231 3669 1497 
Q 3669 778 3244 343 
Q 2819 -91 2113 -91 
Q 1303 -91 875 529 
Q 447 1150 447 2328 
Q 447 3434 972 4092 
Q 1497 4750 2381 4750 
Q 2619 4750 2861 4703 
Q 3103 4656 3366 4563 
z
" transform="scale(0.015625)"/>
       </defs>
       <use xlink:href="#DejaVuSans-30"/>
       <use xlink:href="#DejaVuSans-2e" x="63.623047"/>
       <use xlink:href="#DejaVuSans-36" x="95.410156"/>
      </g>
     </g>
    </g>
    <g id="ytick_5">
     <g id="line2d_23">
      <path d="M 57.6 166.133423 
L 414.72 166.133423 
" clip-path="url(#p9a3e1db97b)" style="fill: none; stroke: #b0b0b0; stroke-width: 0.8; stroke-linecap: square"/>
     </g>
     <g id="line2d_24">
      <g>
       <use xlink:href="#mdd59533a00" x="57.6" y="166.133423" style="stroke: #000000; stroke-width: 0.8"/>
      </g>
     </g>
     <g id="text_13">
      <!-- 0.8 -->
      <g transform="translate(34.696875 169.932642) scale(0.1 -0.1)">
       <defs>
        <path id="DejaVuSans-38" d="M 2034 2216 
Q 1584 2216 1326 1975 
Q 1069 1734 1069 1313 
Q 1069 891 1326 650 
Q 1584 409 2034 409 
Q 2484 409 2743 651 
Q 3003 894 3003 1313 
Q 3003 1734 2745 1975 
Q 2488 2216 2034 2216 
z
M 1403 2484 
Q 997 2584 770 2862 
Q 544 3141 544 3541 
Q 544 4100 942 4425 
Q 1341 4750 2034 4750 
Q 2731 4750 3128 4425 
Q 3525 4100 3525 3541 
Q 3525 3141 3298 2862 
Q 3072 2584 2669 2484 
Q 3125 2378 3379 2068 
Q 3634 1759 3634 1313 
Q 3634 634 3220 271 
Q 2806 -91 2034 -91 
Q 1263 -91 848 271 
Q 434 634 434 1313 
Q 434 1759 690 2068 
Q 947 2378 1403 2484 
z
M 1172 3481 
Q 1172 3119 1398 2916 
Q 1625 2713 2034 2713 
Q 2441 2713 2670 2916 
Q 2900 3119 2900 3481 
Q 2900 3844 2670 4047 
Q 2441 4250 2034 4250 
Q 1625 4250 1398 4047 
Q 1172 3844 1172 3481 
z
" transform="scale(0.015625)"/>
       </defs>
       <use xlink:href="#DejaVuSans-30"/>
       <use xlink:href="#DejaVuSans-2e" x="63.623047"/>
       <use xlink:href="#DejaVuSans-38" x="95.410156"/>
      </g>
     </g>
    </g>
    <g id="ytick_6">
     <g id="line2d_25">
      <path d="M 57.6 133.794779 
L 414.72 133.794779 
" clip-path="url(#p9a3e1db97b)" style="fill: none; stroke: #b0b0b0; stroke-width: 0.8; stroke-linecap: square"/>
     </g>
     <g id="line2d_26">
      <g>
       <use xlink:href="#mdd59533a00" x="57.6" y="133.794779" style="stroke: #000000; stroke-width: 0.8"/>
      </g>
     </g>
     <g id="text_14">
      <!-- 1.0 -->
      <g transform="translate(34.696875 137.593998) scale(0.1 -0.1)">
       <use xlink:href="#DejaVuSans-31"/>
       <use xlink:href="#DejaVuSans-2e" x="63.623047"/>
       <use xlink:href="#DejaVuSans-30" x="95.410156"/>
      </g>
     </g>
    </g>
    <g id="ytick_7">
     <g id="line2d_27">
      <path d="M 57.6 101.456135 
L 414.72 101.456135 
" clip-path="url(#p9a3e1db97b)" style="fill: none; stroke: #b0b0b0; stroke-width: 0.8; stroke-linecap: square"/>
     </g>
     <g id="line2d_28">
      <g>
       <use xlink:href="#mdd59533a00" x="57.6" y="101.456135" style="stroke: #000000; stroke-width: 0.8"/>
      </g>
     </g>
     <g id="text_15">
      <!-- 1.2 -->
      <g transform="translate(34.696875 105.255354) scale(0.1 -0.1)">
       <use xlink:href="#DejaVuSans-31"/>
       <use xlink:href="#DejaVuSans-2e" x="63.623047"/>
       <use xlink:href="#DejaVuSans-32" x="95.410156"/>
      </g>
     </g>
    </g>
    <g id="ytick_8">
     <g id="line2d_29">
      <path d="M 57.6 69.117491 
L 414.72 69.117491 
" clip-path="url(#p9a3e1db97b)" style="fill: none; stroke: #b0b0b0; stroke-width: 0.8; stroke-linecap: square"/>
     </g>
     <g id="line2d_30">
      <g>
       <use xlink:href="#mdd59533a00" x="57.6" y="69.117491" style="stroke: #000000; stroke-width: 0.8"/>
      </g>
     </g>
     <g id="text_16">
      <!-- 1.4 -->
      <g transform="translate(34.696875 72.91671) scale(0.1 -0.1)">
       <use xlink:href="#DejaVuSans-31"/>
       <use xlink:href="#DejaVuSans-2e" x="63.623047"/>
       <use xlink:href="#DejaVuSans-34" x="95.410156"/>
      </g>
     </g>
    </g>
    <g id="text_17">
     <!-- Amplitude -->
     <g transform="translate(28.617187 200.150656) rotate(-90) scale(0.1 -0.1)">
      <defs>
       <path id="DejaVuSans-41" d="M 2188 4044 
L 1331 1722 
L 3047 1722 
L 2188 4044 
z
M 1831 4666 
L 2547 4666 
L 4325 0 
L 3669 0 
L 3244 1197 
L 1141 1197 
L 716 0 
L 50 0 
L 1831 4666 
z
" transform="scale(0.015625)"/>
       <path id="DejaVuSans-70" d="M 1159 525 
L 1159 -1331 
L 581 -1331 
L 581 3500 
L 1159 3500 
L 1159 2969 
Q 1341 3281 1617 3432 
Q 1894 3584 2278 3584 
Q 2916 3584 3314 3078 
Q 3713 2572 3713 1747 
Q 3713 922 3314 415 
Q 2916 -91 2278 -91 
Q 1894 -91 1617 61 
Q 1341 213 1159 525 
z
M 3116 1747 
Q 3116 2381 2855 2742 
Q 2594 3103 2138 3103 
Q 1681 3103 1420 2742 
Q 1159 2381 1159 1747 
Q 1159 1113 1420 752 
Q 1681 391 2138 391 
Q 2594 391 2855 752 
Q 3116 1113 3116 1747 
z
" transform="scale(0.015625)"/>
       <path id="DejaVuSans-6c" d="M 603 4863 
L 1178 4863 
L 1178 0 
L 603 0 
L 603 4863 
z
" transform="scale(0.015625)"/>
       <path id="DejaVuSans-74" d="M 1172 4494 
L 1172 3500 
L 2356 3500 
L 2356 3053 
L 1172 3053 
L 1172 1153 
Q 1172 725 1289 603 
Q 1406 481 1766 481 
L 2356 481 
L 2356 0 
L 1766 0 
Q 1100 0 847 248 
Q 594 497 594 1153 
L 594 3053 
L 172 3053 
L 172 3500 
L 594 3500 
L 594 4494 
L 1172 4494 
z
" transform="scale(0.015625)"/>
       <path id="DejaVuSans-75" d="M 544 1381 
L 544 3500 
L 1119 3500 
L 1119 1403 
Q 1119 906 1312 657 
Q 1506 409 1894 409 
Q 2359 409 2629 706 
Q 2900 1003 2900 1516 
L 2900 3500 
L 3475 3500 
L 3475 0 
L 2900 0 
L 2900 538 
Q 2691 219 2414 64 
Q 2138 -91 1772 -91 
Q 1169 -91 856 284 
Q 544 659 544 1381 
z
M 1991 3584 
L 1991 3584 
z
" transform="scale(0.015625)"/>
       <path id="DejaVuSans-64" d="M 2906 2969 
L 2906 4863 
L 3481 4863 
L 3481 0 
L 2906 0 
L 2906 525 
Q 2725 213 2448 61 
Q 2172 -91 1784 -91 
Q 1150 -91 751 415 
Q 353 922 353 1747 
Q 353 2572 751 3078 
Q 1150 3584 1784 3584 
Q 2172 3584 2448 3432 
Q 2725 3281 2906 2969 
z
M 947 1747 
Q 947 1113 1208 752 
Q 1469 391 1925 391 
Q 2381 391 2643 752 
Q 2906 1113 2906 1747 
Q 2906 2381 2643 2742 
Q 2381 3103 1925 3103 
Q 1469 3103 1208 2742 
Q 947 2381 947 1747 
z
" transform="scale(0.015625)"/>
      </defs>
      <use xlink:href="#DejaVuSans-41"/>
      <use xlink:href="#DejaVuSans-6d" x="68.408203"/>
      <use xlink:href="#DejaVuSans-70" x="165.820312"/>
      <use xlink:href="#DejaVuSans-6c" x="229.296875"/>
      <use xlink:href="#DejaVuSans-69" x="257.080078"/>
      <use xlink:href="#DejaVuSans-74" x="284.863281"/>
      <use xlink:href="#DejaVuSans-75" x="324.072266"/>
      <use xlink:href="#DejaVuSans-64" x="387.451172"/>
      <use xlink:href="#DejaVuSans-65" x="450.927734"/>
     </g>
    </g>
    <g id="text_18">
     <!-- 1e−8 -->
     <g transform="translate(57.6 38.472) scale(0.1 -0.1)">
      <defs>
       <path id="DejaVuSans-2212" d="M 678 2272 
L 4684 2272 
L 4684 1741 
L 678 1741 
L 678 2272 
z
" transform="scale(0.015625)"/>
      </defs>
      <use xlink:href="#DejaVuSans-31"/>
      <use xlink:href="#DejaVuSans-65" x="63.623047"/>
      <use xlink:href="#DejaVuSans-2212" x="125.146484"/>
      <use xlink:href="#DejaVuSans-38" x="208.935547"/>
     </g>
    </g>
   </g>
   <g id="line2d_31">
    <path d="M 73.832727 295.488 
L 96.496915 295.377177 
L 98.822976 295.393775 
L 101.805106 295.443478 
L 103.514861 295.173448 
L 105.244496 294.98315 
L 106.49699 295.132895 
L 108.564601 295.487527 
L 109.359835 295.364408 
L 110.15507 295.015594 
L 112.779344 293.673088 
L 113.355889 293.770825 
L 114.111362 294.202091 
L 115.840998 295.452031 
L 116.278377 295.466766 
L 116.675994 295.261218 
L 117.093492 294.791436 
L 117.650156 293.751231 
L 118.306225 292.029024 
L 119.638243 288.269904 
L 120.155146 287.459708 
L 120.532882 287.338781 
L 120.71181 287.42713 
L 121.109427 287.986844 
L 121.487164 289.028802 
L 122.10347 291.41366 
L 123.057752 295.08583 
L 123.355965 295.484524 
L 123.515012 295.406887 
L 123.69394 295.016269 
L 123.952391 293.760569 
L 124.270485 290.839468 
L 124.60846 285.721255 
L 125.025958 275.666175 
L 125.443456 260.786698 
L 126.020001 230.7857 
L 126.517023 194.763361 
L 127.033925 146.537537 
L 127.550828 87.132911 
L 127.849041 53.568 
L 127.888803 57.967024 
L 127.968326 121.43111 
L 128.107492 294.312338 
L 128.147254 259.5454 
L 128.346062 64.428811 
L 128.365943 65.099307 
L 128.52499 81.202879 
L 129.002131 139.822175 
L 129.43951 178.982348 
L 129.737723 199.07911 
L 130.453434 252.628301 
L 130.513077 250.018864 
L 130.612481 230.956537 
L 130.791409 180.145778 
L 130.831171 185.534065 
L 131.26855 281.450994 
L 131.546882 288.159552 
L 131.924618 292.427067 
L 132.302355 294.606805 
L 132.680091 295.456102 
L 132.859019 295.447192 
L 133.057828 295.16119 
L 133.276517 294.391095 
L 134.906748 286.583324 
L 135.463413 285.146306 
L 135.821268 284.922484 
L 135.86103 285.011187 
L 136.059839 285.713653 
L 136.417694 287.99546 
L 136.477337 288.025938 
L 136.517098 287.955802 
L 136.795431 287.010051 
L 136.934597 286.549114 
L 136.974358 286.585659 
L 137.073763 286.97149 
L 137.173167 289.072126 
L 137.312333 295.4266 
L 137.371976 293.902232 
L 137.491261 286.986465 
L 137.531023 288.289703 
L 137.670189 295.482686 
L 137.729831 294.642805 
L 137.968402 291.060735 
L 138.028044 291.000673 
L 138.067806 291.038496 
L 138.246734 291.615685 
L 138.902802 294.196897 
L 139.161254 294.815817 
L 139.678156 295.416217 
L 139.916727 295.440915 
L 141.189102 295.284242 
L 143.077784 294.391066 
L 143.415759 293.740928 
L 143.515163 293.933735 
L 143.873019 294.719672 
L 144.051947 294.984863 
L 144.071828 294.950285 
L 144.13147 294.55809 
L 144.210994 292.080665 
L 144.310398 279.636569 
L 144.449564 256.524172 
L 144.509207 261.344811 
L 144.787539 293.829909 
L 144.966467 294.986348 
L 145.28456 295.267628 
L 146.278604 295.107294 
L 146.676221 295.281016 
L 147.292528 295.457177 
L 148.147405 295.30002 
L 148.564903 295.118055 
L 148.803474 295.04151 
L 149.101687 294.830565 
L 149.320376 294.772733 
L 149.479423 294.78116 
L 149.737875 294.689679 
L 149.896921 294.571887 
L 150.135492 294.427754 
L 150.473467 294.668756 
L 150.831322 295.061665 
L 150.950607 294.968438 
L 151.507272 294.030418 
L 151.547033 294.180561 
L 151.666319 295.483478 
L 151.70608 295.026249 
L 151.785604 289.114589 
L 151.904889 277.414982 
L 151.964532 280.205123 
L 152.203102 295.483286 
L 152.362149 294.782102 
L 152.560958 294.504026 
L 152.898932 294.612617 
L 153.53512 295.316044 
L 154.052022 295.481414 
L 154.509282 295.367875 
L 154.827376 295.331278 
L 155.642492 295.433776 
L 158.883073 295.377313 
L 158.942716 294.183659 
L 159.04212 284.686174 
L 159.181286 268.31497 
L 159.221048 270.731946 
L 159.519261 295.296023 
L 159.678308 295.487766 
L 160.89104 295.394133 
L 161.368181 295.281268 
L 162.123654 295.455726 
L 163.495434 295.348717 
L 163.773766 295.319685 
L 164.231026 295.284432 
L 164.747929 295.236162 
L 165.165427 295.24916 
L 165.543163 295.194989 
L 165.94078 295.438013 
L 166.179351 295.417572 
L 166.736015 295.034568 
L 166.775777 295.175614 
L 166.835419 295.478437 
L 166.875181 295.277316 
L 166.954705 290.937926 
L 167.113752 272.262397 
L 167.173394 275.732382 
L 167.431845 295.446784 
L 167.471607 295.484824 
L 167.511369 295.429463 
L 167.809582 295.073527 
L 167.948748 295.161789 
L 168.266842 295.349458 
L 170.195286 295.398151 
L 170.453737 295.440599 
L 171.050163 295.422395 
L 171.964683 295.412081 
L 172.421943 295.419038 
L 172.918965 295.439094 
L 173.336463 295.407916 
L 174.569076 295.299433 
L 174.688362 295.36571 
L 174.748004 295.487348 
L 174.787766 295.334908 
L 174.847409 293.58654 
L 174.966694 278.708126 
L 175.066098 268.997116 
L 175.10586 271.699828 
L 175.384192 295.400813 
L 175.463715 295.481859 
L 175.503477 295.456955 
L 175.861333 295.351937 
L 176.298712 295.441662 
L 176.915019 295.434312 
L 177.213232 295.415459 
L 177.809658 295.394191 
L 178.306679 295.316827 
L 179.02239 295.343617 
L 179.499531 295.330533 
L 179.857387 295.261777 
L 181.209286 295.31929 
L 181.825593 295.448448 
L 182.342495 295.190126 
L 182.362376 295.239766 
L 182.441899 295.486186 
L 182.46178 295.4021 
L 182.521423 293.639053 
L 182.640708 277.954646 
L 182.720232 269.284406 
L 182.779874 273.030476 
L 183.038325 295.355143 
L 183.097968 295.487994 
L 183.157611 295.44126 
L 183.416062 295.300474 
L 183.614871 295.369749 
L 184.05225 295.482898 
L 184.52939 295.39963 
L 184.946889 295.248803 
L 185.44391 295.477742 
L 186.139741 295.456049 
L 186.81569 295.44245 
L 187.412116 295.419836 
L 188.286874 295.337884 
L 188.585087 295.314655 
L 188.982704 295.352511 
L 189.201394 295.447659 
L 189.519488 295.456498 
L 190.096033 295.215477 
L 190.115914 295.26196 
L 190.195437 295.480785 
L 190.215318 295.366864 
L 190.274961 293.389608 
L 190.473769 271.748626 
L 190.553293 278.82696 
L 190.771982 295.360834 
L 190.831625 295.487543 
L 190.891268 295.426956 
L 191.149719 295.224827 
L 191.487694 295.346743 
L 192.08412 295.487404 
L 192.461856 295.390717 
L 192.740188 295.417336 
L 193.038401 295.463429 
L 193.634827 295.36149 
L 193.93304 295.388895 
L 194.469824 295.371995 
L 194.84756 295.321218 
L 195.106011 295.313301 
L 195.463867 295.383821 
L 195.980769 295.339749 
L 196.298863 295.362812 
L 197.332668 295.373059 
L 197.630881 295.144529 
L 197.650762 295.1715 
L 197.750166 295.483794 
L 197.789928 295.31954 
L 197.849571 293.277349 
L 198.048379 270.998786 
L 198.127903 277.650944 
L 198.346592 295.235604 
L 198.426116 295.48355 
L 198.465878 295.431951 
L 198.684567 295.269087 
L 199.778015 295.425208 
L 200.235275 295.347674 
L 201.030509 295.411961 
L 201.249199 295.410537 
L 201.785982 295.444201 
L 203.634903 295.321814 
L 203.933116 295.366413 
L 204.549423 295.438326 
L 205.046444 295.029689 
L 205.086206 295.119177 
L 205.16573 295.481249 
L 205.205491 295.28143 
L 205.265134 292.836956 
L 205.463943 270.944161 
L 205.523585 276.247548 
L 205.762156 295.402469 
L 205.821798 295.482853 
L 205.86156 295.439104 
L 206.179654 295.132244 
L 206.716437 295.392503 
L 208.247264 295.338466 
L 208.505715 295.321625 
L 209.718448 295.299644 
L 210.116065 295.262834 
L 210.513683 295.205765 
L 210.732372 295.24044 
L 210.970942 295.355263 
L 211.567368 295.444828 
L 212.004748 295.293852 
L 212.084271 295.487761 
L 212.104152 295.434792 
L 212.163794 294.09064 
L 212.263199 283.112755 
L 212.382484 267.520631 
L 212.422246 269.182201 
L 212.76022 295.481574 
L 212.879506 295.418406 
L 213.118076 295.397154 
L 219.85769 295.303285 
L 220.09626 295.173669 
L 220.116141 295.207549 
L 220.215545 295.485028 
L 220.235426 295.399849 
L 220.295069 293.699461 
L 220.414354 277.869472 
L 220.493877 268.274417 
L 220.55352 271.616972 
L 220.811971 295.37103 
L 220.871614 295.486806 
L 220.931256 295.432865 
L 221.209589 295.305772 
L 221.567444 295.376215 
L 221.9253 295.457084 
L 222.283155 295.444683 
L 222.740415 295.38002 
L 223.29708 295.397336 
L 223.654935 295.336451 
L 224.648978 295.395355 
L 227.074444 295.420727 
L 227.710632 295.448893 
L 228.008845 295.282512 
L 228.167892 295.196147 
L 228.187773 295.235863 
L 228.267296 295.487999 
L 228.287177 295.428092 
L 228.34682 293.792138 
L 228.466105 277.924097 
L 228.565509 268.181142 
L 228.605271 271.356088 
L 228.883603 295.435808 
L 228.943246 295.478969 
L 228.983007 295.431773 
L 229.201697 295.283768 
L 229.877646 295.458123 
L 230.334906 295.417515 
L 230.792166 295.31377 
L 231.169903 295.479536 
L 231.825971 295.40195 
L 232.144065 295.367549 
L 232.342874 295.394347 
L 232.740491 295.428777 
L 233.356798 295.349252 
L 234.132152 295.289264 
L 234.370722 295.29729 
L 234.629173 295.293677 
L 234.907505 295.348638 
L 235.265361 295.486672 
L 235.543693 295.384846 
L 235.94131 295.131228 
L 236.020834 295.331656 
L 236.080477 295.473814 
L 236.100357 295.336243 
L 236.16 293.205764 
L 236.358809 269.402721 
L 236.438332 276.673589 
L 236.657022 295.297189 
L 236.716664 295.487674 
L 236.776307 295.440391 
L 237.014877 295.31613 
L 237.432375 295.394089 
L 238.068563 295.465625 
L 238.704751 295.421387 
L 238.943321 295.482396 
L 239.718675 295.442605 
L 241.110336 295.37732 
L 241.408549 295.401865 
L 242.422473 295.367144 
L 242.800209 295.346671 
L 243.655087 295.368716 
L 243.993061 295.188417 
L 244.112346 295.485061 
L 244.152108 295.327635 
L 244.211751 293.360538 
L 244.350917 275.441388 
L 244.410559 271.297546 
L 244.450321 273.275193 
L 244.748534 295.485079 
L 244.828058 295.393931 
L 245.046747 295.21727 
L 246.339004 295.409529 
L 246.617336 295.332566 
L 247.034834 295.47756 
L 247.830068 295.442835 
L 248.426494 295.449522 
L 249.400657 295.3651 
L 250.3947 295.439719 
L 250.673032 295.487763 
L 250.991126 295.38448 
L 251.388744 295.127544 
L 251.408624 295.150199 
L 251.508029 295.48753 
L 251.54779 295.212785 
L 251.627314 290.71199 
L 251.786361 271.225146 
L 251.846003 274.499982 
L 252.104455 295.384367 
L 252.164097 295.485796 
L 252.22374 295.410166 
L 252.442429 295.250776 
L 252.959332 295.385614 
L 253.237664 295.439161 
L 254.51004 295.392778 
L 254.848014 295.350765 
L 255.722772 295.390432 
L 256.180032 295.395889 
L 256.458364 295.32861 
L 257.094552 295.332913 
L 258.108476 295.431841 
L 258.506094 295.121639 
L 258.525975 295.152957 
L 258.625379 295.487071 
L 258.665141 295.253586 
L 258.744664 291.140854 
L 258.923592 270.612896 
L 258.983234 275.603486 
L 259.221805 295.274836 
L 259.301328 295.487415 
L 259.360971 295.441597 
L 259.698946 295.231342 
L 260.25561 295.458101 
L 260.71287 295.476732 
L 261.229772 295.431008 
L 261.527985 295.432358 
L 261.965364 295.380989 
L 262.56179 295.370478 
L 264.370949 295.446723 
L 264.689043 295.483662 
L 264.987256 295.392691 
L 265.404754 295.068911 
L 265.444516 295.181053 
L 265.524039 295.483621 
L 265.54392 295.371399 
L 265.603563 293.313422 
L 265.742729 273.726451 
L 265.802372 268.8397 
L 265.842133 270.894741 
L 266.140346 295.487485 
L 266.259631 295.327043 
L 266.45844 295.232712 
L 267.551888 295.471541 
L 268.128433 295.448541 
L 268.347122 295.455103 
L 268.724859 295.368767 
L 269.599617 295.410639 
L 270.434613 295.351162 
L 270.971397 295.360315 
L 271.468418 295.361744 
L 272.402819 295.38033 
L 272.800436 295.192053 
L 272.899841 295.48707 
L 272.919722 295.411233 
L 272.979364 293.696772 
L 273.098649 277.828255 
L 273.178173 268.824546 
L 273.237816 272.53184 
L 273.496267 295.360718 
L 273.555909 295.487843 
L 273.615552 295.427684 
L 273.874003 295.225691 
L 274.351144 295.362557 
L 274.887927 295.487846 
L 275.206021 295.362089 
L 275.384949 295.363309 
L 275.663281 295.484156 
L 276.836252 295.414519 
L 277.213989 295.415032 
L 279.202075 295.371371 
L 279.639454 295.487651 
L 279.937667 295.382362 
L 280.295523 295.142323 
L 280.315404 295.178924 
L 280.414808 295.472446 
L 280.434689 295.322229 
L 280.494332 293.017389 
L 280.69314 268.909438 
L 280.772664 276.67926 
L 280.991353 295.304046 
L 281.050996 295.487945 
L 281.110639 295.426177 
L 281.349209 295.236211 
L 281.587779 295.314085 
L 281.985397 295.437389 
L 282.561942 295.437937 
L 282.919797 295.423511 
L 283.317415 295.427462 
L 283.655389 295.404313 
L 284.828361 295.364728 
L 285.225978 295.337675 
L 285.921808 295.354836 
L 286.160379 295.316736 
L 286.41883 295.312273 
L 286.895971 295.487184 
L 287.233945 295.35586 
L 287.492397 295.203391 
L 287.611682 295.24939 
L 287.691205 295.481931 
L 287.730967 295.352463 
L 287.79061 293.510971 
L 287.909895 278.342987 
L 287.989418 270.137653 
L 288.049061 273.821879 
L 288.307512 295.364532 
L 288.367155 295.487962 
L 288.426797 295.451094 
L 288.744891 295.288863 
L 289.023223 295.336458 
L 289.937743 295.464074 
L 290.375122 295.459628 
L 290.573931 295.460837 
L 290.971548 295.332691 
L 291.448689 295.43044 
L 292.144519 295.343574 
L 293.039158 295.308896 
L 293.377133 295.366312 
L 293.814512 295.48734 
L 294.132606 295.388549 
L 294.430819 295.219908 
L 294.589866 295.302181 
L 294.669389 295.477323 
L 294.68927 295.366817 
L 294.748913 293.580545 
L 294.868198 279.101603 
L 294.947721 271.617972 
L 294.987483 273.143324 
L 295.305577 295.486843 
L 295.404981 295.379729 
L 295.643552 295.199774 
L 296.97557 295.440174 
L 297.313545 295.473503 
L 297.571996 295.446118 
L 297.929851 295.342005 
L 298.665443 295.383425 
L 300.076985 295.433117 
L 300.395079 295.487262 
L 300.613768 295.372069 
L 301.031266 295.034546 
L 301.051147 295.057427 
L 301.170433 295.477804 
L 301.190313 295.340694 
L 301.249956 293.150751 
L 301.448765 270.43922 
L 301.528288 278.116905 
L 301.746978 295.346701 
L 301.80662 295.486787 
L 301.866263 295.410749 
L 302.104833 295.207625 
L 302.48257 295.277743 
L 302.999472 295.457331 
L 303.496494 295.461974 
L 304.510418 295.336642 
L 304.78875 295.346681 
L 305.086963 295.402255 
L 306.240053 295.40505 
L 306.717194 295.482938 
L 306.955765 295.333582 
L 307.214216 295.104421 
L 307.333501 295.105797 
L 307.432905 295.48047 
L 307.472667 295.303683 
L 307.53231 292.953858 
L 307.731118 268.565518 
L 307.810642 276.617618 
L 308.029331 295.35762 
L 308.088974 295.484278 
L 308.148617 295.399502 
L 308.347425 295.242041 
L 310.136703 295.481384 
L 310.9717 295.399847 
L 311.42896 295.370664 
L 311.9061 295.37074 
L 312.661573 295.272168 
L 312.82062 295.286271 
L 313.158595 295.475873 
L 313.456808 295.427149 
L 313.97371 295.113027 
L 314.053234 295.279135 
L 314.112876 295.487501 
L 314.152638 295.230475 
L 314.232162 290.77338 
L 314.411089 268.403022 
L 314.470732 273.906871 
L 314.709302 295.348372 
L 314.768945 295.486338 
L 314.828588 295.402998 
L 315.067158 295.182077 
L 315.226205 295.24197 
L 315.524418 295.378958 
L 316.04132 295.482397 
L 316.419057 295.428745 
L 320.872371 295.417214 
L 321.130822 295.481027 
L 321.826653 295.274133 
L 321.945938 295.295604 
L 322.025461 295.487416 
L 322.065223 295.298248 
L 322.124866 293.220492 
L 322.244151 276.599681 
L 322.323674 267.110965 
L 322.383317 270.789104 
L 322.641768 295.311299 
L 322.721292 295.486395 
L 322.761053 295.453337 
L 322.999624 295.326924 
L 324.152714 295.422017 
L 324.450927 295.402245 
L 325.027472 295.437187 
L 326.240205 295.368809 
L 326.498656 295.370581 
L 326.757107 295.301367 
L 327.095082 295.283153 
L 328.109006 295.323587 
L 328.4271 295.279172 
L 329.142811 295.444102 
L 329.659714 295.133593 
L 329.699476 295.252596 
L 329.759118 295.484405 
L 329.79888 295.28129 
L 329.858523 292.905107 
L 330.057331 267.382858 
L 330.136855 275.580571 
L 330.355544 295.306638 
L 330.435068 295.4849 
L 330.474829 295.449297 
L 330.812804 295.200324 
L 331.250183 295.320539 
L 331.62792 295.487908 
L 336.081234 295.425977 
L 336.498732 295.487932 
L 336.836707 295.388876 
L 337.194562 295.153959 
L 337.214443 295.179593 
L 337.313847 295.48793 
L 337.333728 295.426076 
L 337.393371 293.87065 
L 337.512656 279.291341 
L 337.61206 270.326021 
L 337.651822 273.21481 
L 337.930154 295.443091 
L 337.969916 295.487495 
L 338.029559 295.425518 
L 338.268129 295.27409 
L 338.645865 295.293011 
L 339.083244 295.454572 
L 339.480862 295.465971 
L 339.838717 295.444414 
L 340.13693 295.470791 
L 341.031569 295.41403 
L 341.647876 295.366459 
L 342.343707 295.337088 
L 343.397392 295.458711 
L 343.775129 295.46682 
L 344.172746 295.141734 
L 344.292031 295.035784 
L 344.311912 295.066991 
L 344.411317 295.483232 
L 344.451078 295.262633 
L 344.530602 290.950995 
L 344.689649 270.828287 
L 344.749291 273.76414 
L 345.027623 295.443513 
L 345.067385 295.48724 
L 345.127028 295.411577 
L 345.345717 295.233999 
L 346.180714 295.465127 
L 346.538569 295.472912 
L 347.035591 295.456684 
L 347.274161 295.445971 
L 347.731421 295.353525 
L 348.327847 295.376657 
L 348.566418 295.414226 
L 349.401414 295.341024 
L 349.600223 295.309249 
L 349.818912 295.319538 
L 350.057483 295.384554 
L 350.4551 295.486275 
L 350.892479 295.328911 
L 351.131049 295.171901 
L 351.170811 295.251441 
L 351.250335 295.48662 
L 351.270215 295.410823 
L 351.329858 293.781966 
L 351.449143 278.821823 
L 351.528667 269.860059 
L 351.588309 272.832497 
L 351.866641 295.444077 
L 351.906403 295.48714 
L 351.966046 295.430738 
L 352.264259 295.269449 
L 353.139017 295.487717 
L 353.516753 295.381606 
L 353.6758 295.417405 
L 353.954132 295.487993 
L 354.331869 295.380762 
L 354.530678 295.340373 
L 354.888533 295.367602 
L 355.087342 295.393345 
L 355.345793 295.420191 
L 356.777215 295.335239 
L 357.492927 295.451353 
L 358.049591 295.092572 
L 358.089353 295.209319 
L 358.168876 295.478862 
L 358.188757 295.349545 
L 358.248399 293.166398 
L 358.387566 272.748577 
L 358.447208 268.209834 
L 358.48697 270.702106 
L 358.785183 295.485767 
L 358.884587 295.363904 
L 359.143038 295.163252 
L 359.341847 295.190823 
L 359.679822 295.325982 
L 360.415414 295.47362 
L 362.284215 295.313595 
L 364.391587 295.388636 
L 364.769324 295.14802 
L 364.789204 295.182419 
L 364.888609 295.477543 
L 364.90849 295.346772 
L 364.968132 293.17976 
L 365.107298 273.091061 
L 365.166941 268.316365 
L 365.206703 270.374701 
L 365.524797 295.480307 
L 365.624201 295.414687 
L 365.862771 295.302547 
L 367.055623 295.408463 
L 367.43336 295.40293 
L 367.751454 295.475879 
L 368.327999 295.435203 
L 368.725616 295.440783 
L 371.409533 295.319294 
L 371.767389 295.053836 
L 371.787269 295.095885 
L 371.886674 295.486547 
L 371.906555 295.393267 
L 371.966197 293.471108 
L 372.105363 275.108701 
L 372.165006 270.715146 
L 372.204768 272.668537 
L 372.502981 295.487698 
L 372.622266 295.318934 
L 372.860836 295.16837 
L 373.218692 295.189856 
L 373.775356 295.456428 
L 374.669995 295.459207 
L 375.186898 295.252058 
L 375.544753 295.329057 
L 376.041775 295.30561 
L 376.339988 295.267229 
L 376.737605 295.308029 
L 377.393674 295.317644 
L 378.487121 295.372192 
L 378.805215 295.210731 
L 378.904619 295.41049 
L 378.944381 295.487375 
L 378.964262 295.429199 
L 379.023905 294.075087 
L 379.123309 283.661907 
L 379.242594 270.482977 
L 379.282356 272.571892 
L 379.580569 295.430521 
L 379.719735 295.457862 
L 380.117352 295.371956 
L 380.99211 295.467458 
L 381.230681 295.298654 
L 381.42949 295.228919 
L 381.866869 295.486428 
L 384.471262 295.345545 
L 384.968284 295.473659 
L 385.246616 295.259135 
L 385.544829 295.013996 
L 385.624352 295.097517 
L 385.723757 295.486762 
L 385.763518 295.251032 
L 385.843042 291.222865 
L 386.002089 272.640071 
L 386.061731 275.473174 
L 386.320183 295.444985 
L 386.359944 295.484573 
L 386.399706 295.425353 
L 386.7178 294.894373 
L 386.737681 294.904596 
L 387.41363 295.349177 
L 387.890771 295.481264 
L 388.586601 295.355424 
L 389.202908 295.259768 
L 389.521002 295.316742 
L 390.495165 295.325005 
L 390.872901 295.36747 
L 391.966349 295.292581 
L 392.2248 295.190288 
L 392.324204 295.431817 
L 392.363966 295.476459 
L 392.383847 295.369588 
L 392.443489 293.714185 
L 392.562775 279.1246 
L 392.662179 268.650137 
L 392.701941 270.948007 
L 393.000154 295.441726 
L 393.079677 295.475222 
L 393.119439 295.445967 
L 393.457414 295.31822 
L 394.650266 295.401709 
L 394.849074 295.43962 
L 395.187049 295.483398 
L 396.022045 295.417565 
L 396.678114 295.364645 
L 397.493229 295.305615 
L 398.487273 295.485928 
L 398.487273 295.485928 
" clip-path="url(#p9a3e1db97b)" style="fill: none; stroke: #1f77b4; stroke-width: 1.5; stroke-linecap: square"/>
   </g>
   <g id="patch_3">
    <path d="M 57.6 307.584 
L 57.6 41.472 
" style="fill: none; stroke: #000000; stroke-width: 0.8; stroke-linejoin: miter; stroke-linecap: square"/>
   </g>
   <g id="patch_4">
    <path d="M 414.72 307.584 
L 414.72 41.472 
" style="fill: none; stroke: #000000; stroke-width: 0.8; stroke-linejoin: miter; stroke-linecap: square"/>
   </g>
   <g id="patch_5">
    <path d="M 57.6 307.584 
L 414.72 307.584 
" style="fill: none; stroke: #000000; stroke-width: 0.8; stroke-linejoin: miter; stroke-linecap: square"/>
   </g>
   <g id="patch_6">
    <path d="M 57.6 41.472 
L 414.72 41.472 
" style="fill: none; stroke: #000000; stroke-width: 0.8; stroke-linejoin: miter; stroke-linecap: square"/>
   </g>
   <g id="text_19">
    <!-- Signal after matched filtering and squaring -->
    <g transform="translate(106.84125 35.472) scale(0.12 -0.12)">
     <defs>
      <path id="DejaVuSans-53" d="M 3425 4513 
L 3425 3897 
Q 3066 4069 2747 4153 
Q 2428 4238 2131 4238 
Q 1616 4238 1336 4038 
Q 1056 3838 1056 3469 
Q 1056 3159 1242 3001 
Q 1428 2844 1947 2747 
L 2328 2669 
Q 3034 2534 3370 2195 
Q 3706 1856 3706 1288 
Q 3706 609 3251 259 
Q 2797 -91 1919 -91 
Q 1588 -91 1214 -16 
Q 841 59 441 206 
L 441 856 
Q 825 641 1194 531 
Q 1563 422 1919 422 
Q 2459 422 2753 634 
Q 3047 847 3047 1241 
Q 3047 1584 2836 1778 
Q 2625 1972 2144 2069 
L 1759 2144 
Q 1053 2284 737 2584 
Q 422 2884 422 3419 
Q 422 4038 858 4394 
Q 1294 4750 2059 4750 
Q 2388 4750 2728 4690 
Q 3069 4631 3425 4513 
z
" transform="scale(0.015625)"/>
      <path id="DejaVuSans-67" d="M 2906 1791 
Q 2906 2416 2648 2759 
Q 2391 3103 1925 3103 
Q 1463 3103 1205 2759 
Q 947 2416 947 1791 
Q 947 1169 1205 825 
Q 1463 481 1925 481 
Q 2391 481 2648 825 
Q 2906 1169 2906 1791 
z
M 3481 434 
Q 3481 -459 3084 -895 
Q 2688 -1331 1869 -1331 
Q 1566 -1331 1297 -1286 
Q 1028 -1241 775 -1147 
L 775 -588 
Q 1028 -725 1275 -790 
Q 1522 -856 1778 -856 
Q 2344 -856 2625 -561 
Q 2906 -266 2906 331 
L 2906 616 
Q 2728 306 2450 153 
Q 2172 0 1784 0 
Q 1141 0 747 490 
Q 353 981 353 1791 
Q 353 2603 747 3093 
Q 1141 3584 1784 3584 
Q 2172 3584 2450 3431 
Q 2728 3278 2906 2969 
L 2906 3500 
L 3481 3500 
L 3481 434 
z
" transform="scale(0.015625)"/>
      <path id="DejaVuSans-6e" d="M 3513 2113 
L 3513 0 
L 2938 0 
L 2938 2094 
Q 2938 2591 2744 2837 
Q 2550 3084 2163 3084 
Q 1697 3084 1428 2787 
Q 1159 2491 1159 1978 
L 1159 0 
L 581 0 
L 581 3500 
L 1159 3500 
L 1159 2956 
Q 1366 3272 1645 3428 
Q 1925 3584 2291 3584 
Q 2894 3584 3203 3211 
Q 3513 2838 3513 2113 
z
" transform="scale(0.015625)"/>
      <path id="DejaVuSans-61" d="M 2194 1759 
Q 1497 1759 1228 1600 
Q 959 1441 959 1056 
Q 959 750 1161 570 
Q 1363 391 1709 391 
Q 2188 391 2477 730 
Q 2766 1069 2766 1631 
L 2766 1759 
L 2194 1759 
z
M 3341 1997 
L 3341 0 
L 2766 0 
L 2766 531 
Q 2569 213 2275 61 
Q 1981 -91 1556 -91 
Q 1019 -91 701 211 
Q 384 513 384 1019 
Q 384 1609 779 1909 
Q 1175 2209 1959 2209 
L 2766 2209 
L 2766 2266 
Q 2766 2663 2505 2880 
Q 2244 3097 1772 3097 
Q 1472 3097 1187 3025 
Q 903 2953 641 2809 
L 641 3341 
Q 956 3463 1253 3523 
Q 1550 3584 1831 3584 
Q 2591 3584 2966 3190 
Q 3341 2797 3341 1997 
z
" transform="scale(0.015625)"/>
      <path id="DejaVuSans-66" d="M 2375 4863 
L 2375 4384 
L 1825 4384 
Q 1516 4384 1395 4259 
Q 1275 4134 1275 3809 
L 1275 3500 
L 2222 3500 
L 2222 3053 
L 1275 3053 
L 1275 0 
L 697 0 
L 697 3053 
L 147 3053 
L 147 3500 
L 697 3500 
L 697 3744 
Q 697 4328 969 4595 
Q 1241 4863 1831 4863 
L 2375 4863 
z
" transform="scale(0.015625)"/>
      <path id="DejaVuSans-72" d="M 2631 2963 
Q 2534 3019 2420 3045 
Q 2306 3072 2169 3072 
Q 1681 3072 1420 2755 
Q 1159 2438 1159 1844 
L 1159 0 
L 581 0 
L 581 3500 
L 1159 3500 
L 1159 2956 
Q 1341 3275 1631 3429 
Q 1922 3584 2338 3584 
Q 2397 3584 2469 3576 
Q 2541 3569 2628 3553 
L 2631 2963 
z
" transform="scale(0.015625)"/>
      <path id="DejaVuSans-63" d="M 3122 3366 
L 3122 2828 
Q 2878 2963 2633 3030 
Q 2388 3097 2138 3097 
Q 1578 3097 1268 2742 
Q 959 2388 959 1747 
Q 959 1106 1268 751 
Q 1578 397 2138 397 
Q 2388 397 2633 464 
Q 2878 531 3122 666 
L 3122 134 
Q 2881 22 2623 -34 
Q 2366 -91 2075 -91 
Q 1284 -91 818 406 
Q 353 903 353 1747 
Q 353 2603 823 3093 
Q 1294 3584 2113 3584 
Q 2378 3584 2631 3529 
Q 2884 3475 3122 3366 
z
" transform="scale(0.015625)"/>
      <path id="DejaVuSans-68" d="M 3513 2113 
L 3513 0 
L 2938 0 
L 2938 2094 
Q 2938 2591 2744 2837 
Q 2550 3084 2163 3084 
Q 1697 3084 1428 2787 
Q 1159 2491 1159 1978 
L 1159 0 
L 581 0 
L 581 4863 
L 1159 4863 
L 1159 2956 
Q 1366 3272 1645 3428 
Q 1925 3584 2291 3584 
Q 2894 3584 3203 3211 
Q 3513 2838 3513 2113 
z
" transform="scale(0.015625)"/>
      <path id="DejaVuSans-71" d="M 947 1747 
Q 947 1113 1208 752 
Q 1469 391 1925 391 
Q 2381 391 2643 752 
Q 2906 1113 2906 1747 
Q 2906 2381 2643 2742 
Q 2381 3103 1925 3103 
Q 1469 3103 1208 2742 
Q 947 2381 947 1747 
z
M 2906 525 
Q 2725 213 2448 61 
Q 2172 -91 1784 -91 
Q 1150 -91 751 415 
Q 353 922 353 1747 
Q 353 2572 751 3078 
Q 1150 3584 1784 3584 
Q 2172 3584 2448 3432 
Q 2725 3281 2906 2969 
L 2906 3500 
L 3481 3500 
L 3481 -1331 
L 2906 -1331 
L 2906 525 
z
" transform="scale(0.015625)"/>
     </defs>
     <use xlink:href="#DejaVuSans-53"/>
     <use xlink:href="#DejaVuSans-69" x="63.476562"/>
     <use xlink:href="#DejaVuSans-67" x="91.259766"/>
     <use xlink:href="#DejaVuSans-6e" x="154.736328"/>
     <use xlink:href="#DejaVuSans-61" x="218.115234"/>
     <use xlink:href="#DejaVuSans-6c" x="279.394531"/>
     <use xlink:href="#DejaVuSans-20" x="307.177734"/>
     <use xlink:href="#DejaVuSans-61" x="338.964844"/>
     <use xlink:href="#DejaVuSans-66" x="400.244141"/>
     <use xlink:href="#DejaVuSans-74" x="433.699219"/>
     <use xlink:href="#DejaVuSans-65" x="472.908203"/>
     <use xlink:href="#DejaVuSans-72" x="534.431641"/>
     <use xlink:href="#DejaVuSans-20" x="575.544922"/>
     <use xlink:href="#DejaVuSans-6d" x="607.332031"/>
     <use xlink:href="#DejaVuSans-61" x="704.744141"/>
     <use xlink:href="#DejaVuSans-74" x="766.023438"/>
     <use xlink:href="#DejaVuSans-63" x="805.232422"/>
     <use xlink:href="#DejaVuSans-68" x="860.212891"/>
     <use xlink:href="#DejaVuSans-65" x="923.591797"/>
     <use xlink:href="#DejaVuSans-64" x="985.115234"/>
     <use xlink:href="#DejaVuSans-20" x="1048.591797"/>
     <use xlink:href="#DejaVuSans-66" x="1080.378906"/>
     <use xlink:href="#DejaVuSans-69" x="1115.583984"/>
     <use xlink:href="#DejaVuSans-6c" x="1143.367188"/>
     <use xlink:href="#DejaVuSans-74" x="1171.150391"/>
     <use xlink:href="#DejaVuSans-65" x="1210.359375"/>
     <use xlink:href="#DejaVuSans-72" x="1271.882812"/>
     <use xlink:href="#DejaVuSans-69" x="1312.996094"/>
     <use xlink:href="#DejaVuSans-6e" x="1340.779297"/>
     <use xlink:href="#DejaVuSans-67" x="1404.158203"/>
     <use xlink:href="#DejaVuSans-20" x="1467.634766"/>
     <use xlink:href="#DejaVuSans-61" x="1499.421875"/>
     <use xlink:href="#DejaVuSans-6e" x="1560.701172"/>
     <use xlink:href="#DejaVuSans-64" x="1624.080078"/>
     <use xlink:href="#DejaVuSans-20" x="1687.556641"/>
     <use xlink:href="#DejaVuSans-73" x="1719.34375"/>
     <use xlink:href="#DejaVuSans-71" x="1771.443359"/>
     <use xlink:href="#DejaVuSans-75" x="1834.919922"/>
     <use xlink:href="#DejaVuSans-61" x="1898.298828"/>
     <use xlink:href="#DejaVuSans-72" x="1959.578125"/>
     <use xlink:href="#DejaVuSans-69" x="2000.691406"/>
     <use xlink:href="#DejaVuSans-6e" x="2028.474609"/>
     <use xlink:href="#DejaVuSans-67" x="2091.853516"/>
    </g>
   </g>
  </g>
 </g>
 <defs>
  <clipPath id="p9a3e1db97b">
   <rect x="57.6" y="41.472" width="357.12" height="266.112"/>
  </clipPath>
 </defs>
</svg>
