<?xml version="1.0" encoding="utf-8" standalone="no"?>
<!DOCTYPE svg PUBLIC "-//W3C//DTD SVG 1.1//EN"
  "http://www.w3.org/Graphics/SVG/1.1/DTD/svg11.dtd">
<svg xmlns:xlink="http://www.w3.org/1999/xlink" width="460.8pt" height="345.6pt" viewBox="0 0 460.8 345.6" xmlns="http://www.w3.org/2000/svg" version="1.1">
 <metadata>
  <rdf:RDF xmlns:dc="http://purl.org/dc/elements/1.1/" xmlns:cc="http://creativecommons.org/ns#" xmlns:rdf="http://www.w3.org/1999/02/22-rdf-syntax-ns#">
   <cc:Work>
    <dc:type rdf:resource="http://purl.org/dc/dcmitype/StillImage"/>
    <dc:date>2025-11-08T17:27:20.292862</dc:date>
    <dc:format>image/svg+xml</dc:format>
    <dc:creator>
     <cc:Agent>
      <dc:title>Matplotlib v3.9.4, https://matplotlib.org/</dc:title>
     </cc:Agent>
    </dc:creator>
   </cc:Work>
  </rdf:RDF>
 </metadata>
 <defs>
  <style type="text/css">*{stroke-linejoin: round; stroke-linecap: butt}</style>
 </defs>
 <g id="figure_1">
  <g id="patch_1">
   <path d="M 0 345.6 
L 460.8 345.6 
L 460.8 0 
L 0 0 
z
" style="fill: #ffffff"/>
  </g>
  <g id="axes_1">
   <g id="patch_2">
    <path d="M 57.6 307.584 
L 414.72 307.584 
L 414.72 41.472 
L 57.6 41.472 
z
" style="fill: #ffffff"/>
   </g>
   <g id="matplotlib.axis_1">
    <g id="xtick_1">
     <g id="line2d_1">
      <path d="M 88.577212 307.584 
L 88.577212 41.472 
" clip-path="url(#p0dd1948d60)" style="fill: none; stroke: #b0b0b0; stroke-width: 0.8; stroke-linecap: square"/>
     </g>
     <g id="line2d_2">
      <defs>
       <path id="mc0abb24826" d="M 0 0 
L 0 3.5 
" style="stroke: #000000; stroke-width: 0.8"/>
      </defs>
      <g>
       <use xlink:href="#mc0abb24826" x="88.577212" y="307.584" style="stroke: #000000; stroke-width: 0.8"/>
      </g>
     </g>
     <g id="text_1">
      <!-- 10 -->
      <g transform="translate(82.214712 322.182437) scale(0.1 -0.1)">
       <defs>
        <path id="DejaVuSans-31" d="M 794 531 
L 1825 531 
L 1825 4091 
L 703 3866 
L 703 4441 
L 1819 4666 
L 2450 4666 
L 2450 531 
L 3481 531 
L 3481 0 
L 794 0 
L 794 531 
z
" transform="scale(0.015625)"/>
        <path id="DejaVuSans-30" d="M 2034 4250 
Q 1547 4250 1301 3770 
Q 1056 3291 1056 2328 
Q 1056 1369 1301 889 
Q 1547 409 2034 409 
Q 2525 409 2770 889 
Q 3016 1369 3016 2328 
Q 3016 3291 2770 3770 
Q 2525 4250 2034 4250 
z
M 2034 4750 
Q 2819 4750 3233 4129 
Q 3647 3509 3647 2328 
Q 3647 1150 3233 529 
Q 2819 -91 2034 -91 
Q 1250 -91 836 529 
Q 422 1150 422 2328 
Q 422 3509 836 4129 
Q 1250 4750 2034 4750 
z
" transform="scale(0.015625)"/>
       </defs>
       <use xlink:href="#DejaVuSans-31"/>
       <use xlink:href="#DejaVuSans-30" x="63.623047"/>
      </g>
     </g>
    </g>
    <g id="xtick_2">
     <g id="line2d_3">
      <path d="M 160.309327 307.584 
L 160.309327 41.472 
" clip-path="url(#p0dd1948d60)" style="fill: none; stroke: #b0b0b0; stroke-width: 0.8; stroke-linecap: square"/>
     </g>
     <g id="line2d_4">
      <g>
       <use xlink:href="#mc0abb24826" x="160.309327" y="307.584" style="stroke: #000000; stroke-width: 0.8"/>
      </g>
     </g>
     <g id="text_2">
      <!-- 15 -->
      <g transform="translate(153.946827 322.182437) scale(0.1 -0.1)">
       <defs>
        <path id="DejaVuSans-35" d="M 691 4666 
L 3169 4666 
L 3169 4134 
L 1269 4134 
L 1269 2991 
Q 1406 3038 1543 3061 
Q 1681 3084 1819 3084 
Q 2600 3084 3056 2656 
Q 3513 2228 3513 1497 
Q 3513 744 3044 326 
Q 2575 -91 1722 -91 
Q 1428 -91 1123 -41 
Q 819 9 494 109 
L 494 744 
Q 775 591 1075 516 
Q 1375 441 1709 441 
Q 2250 441 2565 725 
Q 2881 1009 2881 1497 
Q 2881 1984 2565 2268 
Q 2250 2553 1709 2553 
Q 1456 2553 1204 2497 
Q 953 2441 691 2322 
L 691 4666 
z
" transform="scale(0.015625)"/>
       </defs>
       <use xlink:href="#DejaVuSans-31"/>
       <use xlink:href="#DejaVuSans-35" x="63.623047"/>
      </g>
     </g>
    </g>
    <g id="xtick_3">
     <g id="line2d_5">
      <path d="M 232.041441 307.584 
L 232.041441 41.472 
" clip-path="url(#p0dd1948d60)" style="fill: none; stroke: #b0b0b0; stroke-width: 0.8; stroke-linecap: square"/>
     </g>
     <g id="line2d_6">
      <g>
       <use xlink:href="#mc0abb24826" x="232.041441" y="307.584" style="stroke: #000000; stroke-width: 0.8"/>
      </g>
     </g>
     <g id="text_3">
      <!-- 20 -->
      <g transform="translate(225.678941 322.182437) scale(0.1 -0.1)">
       <defs>
        <path id="DejaVuSans-32" d="M 1228 531 
L 3431 531 
L 3431 0 
L 469 0 
L 469 531 
Q 828 903 1448 1529 
Q 2069 2156 2228 2338 
Q 2531 2678 2651 2914 
Q 2772 3150 2772 3378 
Q 2772 3750 2511 3984 
Q 2250 4219 1831 4219 
Q 1534 4219 1204 4116 
Q 875 4013 500 3803 
L 500 4441 
Q 881 4594 1212 4672 
Q 1544 4750 1819 4750 
Q 2544 4750 2975 4387 
Q 3406 4025 3406 3419 
Q 3406 3131 3298 2873 
Q 3191 2616 2906 2266 
Q 2828 2175 2409 1742 
Q 1991 1309 1228 531 
z
" transform="scale(0.015625)"/>
       </defs>
       <use xlink:href="#DejaVuSans-32"/>
       <use xlink:href="#DejaVuSans-30" x="63.623047"/>
      </g>
     </g>
    </g>
    <g id="xtick_4">
     <g id="line2d_7">
      <path d="M 303.773556 307.584 
L 303.773556 41.472 
" clip-path="url(#p0dd1948d60)" style="fill: none; stroke: #b0b0b0; stroke-width: 0.8; stroke-linecap: square"/>
     </g>
     <g id="line2d_8">
      <g>
       <use xlink:href="#mc0abb24826" x="303.773556" y="307.584" style="stroke: #000000; stroke-width: 0.8"/>
      </g>
     </g>
     <g id="text_4">
      <!-- 25 -->
      <g transform="translate(297.411056 322.182437) scale(0.1 -0.1)">
       <use xlink:href="#DejaVuSans-32"/>
       <use xlink:href="#DejaVuSans-35" x="63.623047"/>
      </g>
     </g>
    </g>
    <g id="xtick_5">
     <g id="line2d_9">
      <path d="M 375.50567 307.584 
L 375.50567 41.472 
" clip-path="url(#p0dd1948d60)" style="fill: none; stroke: #b0b0b0; stroke-width: 0.8; stroke-linecap: square"/>
     </g>
     <g id="line2d_10">
      <g>
       <use xlink:href="#mc0abb24826" x="375.50567" y="307.584" style="stroke: #000000; stroke-width: 0.8"/>
      </g>
     </g>
     <g id="text_5">
      <!-- 30 -->
      <g transform="translate(369.14317 322.182437) scale(0.1 -0.1)">
       <defs>
        <path id="DejaVuSans-33" d="M 2597 2516 
Q 3050 2419 3304 2112 
Q 3559 1806 3559 1356 
Q 3559 666 3084 287 
Q 2609 -91 1734 -91 
Q 1441 -91 1130 -33 
Q 819 25 488 141 
L 488 750 
Q 750 597 1062 519 
Q 1375 441 1716 441 
Q 2309 441 2620 675 
Q 2931 909 2931 1356 
Q 2931 1769 2642 2001 
Q 2353 2234 1838 2234 
L 1294 2234 
L 1294 2753 
L 1863 2753 
Q 2328 2753 2575 2939 
Q 2822 3125 2822 3475 
Q 2822 3834 2567 4026 
Q 2313 4219 1838 4219 
Q 1578 4219 1281 4162 
Q 984 4106 628 3988 
L 628 4550 
Q 988 4650 1302 4700 
Q 1616 4750 1894 4750 
Q 2613 4750 3031 4423 
Q 3450 4097 3450 3541 
Q 3450 3153 3228 2886 
Q 3006 2619 2597 2516 
z
" transform="scale(0.015625)"/>
       </defs>
       <use xlink:href="#DejaVuSans-33"/>
       <use xlink:href="#DejaVuSans-30" x="63.623047"/>
      </g>
     </g>
    </g>
    <g id="text_6">
     <!-- Time (s) -->
     <g transform="translate(215.831094 335.860562) scale(0.1 -0.1)">
      <defs>
       <path id="DejaVuSans-54" d="M -19 4666 
L 3928 4666 
L 3928 4134 
L 2272 4134 
L 2272 0 
L 1638 0 
L 1638 4134 
L -19 4134 
L -19 4666 
z
" transform="scale(0.015625)"/>
       <path id="DejaVuSans-69" d="M 603 3500 
L 1178 3500 
L 1178 0 
L 603 0 
L 603 3500 
z
M 603 4863 
L 1178 4863 
L 1178 4134 
L 603 4134 
L 603 4863 
z
" transform="scale(0.015625)"/>
       <path id="DejaVuSans-6d" d="M 3328 2828 
Q 3544 3216 3844 3400 
Q 4144 3584 4550 3584 
Q 5097 3584 5394 3201 
Q 5691 2819 5691 2113 
L 5691 0 
L 5113 0 
L 5113 2094 
Q 5113 2597 4934 2840 
Q 4756 3084 4391 3084 
Q 3944 3084 3684 2787 
Q 3425 2491 3425 1978 
L 3425 0 
L 2847 0 
L 2847 2094 
Q 2847 2600 2669 2842 
Q 2491 3084 2119 3084 
Q 1678 3084 1418 2786 
Q 1159 2488 1159 1978 
L 1159 0 
L 581 0 
L 581 3500 
L 1159 3500 
L 1159 2956 
Q 1356 3278 1631 3431 
Q 1906 3584 2284 3584 
Q 2666 3584 2933 3390 
Q 3200 3197 3328 2828 
z
" transform="scale(0.015625)"/>
       <path id="DejaVuSans-65" d="M 3597 1894 
L 3597 1613 
L 953 1613 
Q 991 1019 1311 708 
Q 1631 397 2203 397 
Q 2534 397 2845 478 
Q 3156 559 3463 722 
L 3463 178 
Q 3153 47 2828 -22 
Q 2503 -91 2169 -91 
Q 1331 -91 842 396 
Q 353 884 353 1716 
Q 353 2575 817 3079 
Q 1281 3584 2069 3584 
Q 2775 3584 3186 3129 
Q 3597 2675 3597 1894 
z
M 3022 2063 
Q 3016 2534 2758 2815 
Q 2500 3097 2075 3097 
Q 1594 3097 1305 2825 
Q 1016 2553 972 2059 
L 3022 2063 
z
" transform="scale(0.015625)"/>
       <path id="DejaVuSans-20" transform="scale(0.015625)"/>
       <path id="DejaVuSans-28" d="M 1984 4856 
Q 1566 4138 1362 3434 
Q 1159 2731 1159 2009 
Q 1159 1288 1364 580 
Q 1569 -128 1984 -844 
L 1484 -844 
Q 1016 -109 783 600 
Q 550 1309 550 2009 
Q 550 2706 781 3412 
Q 1013 4119 1484 4856 
L 1984 4856 
z
" transform="scale(0.015625)"/>
       <path id="DejaVuSans-73" d="M 2834 3397 
L 2834 2853 
Q 2591 2978 2328 3040 
Q 2066 3103 1784 3103 
Q 1356 3103 1142 2972 
Q 928 2841 928 2578 
Q 928 2378 1081 2264 
Q 1234 2150 1697 2047 
L 1894 2003 
Q 2506 1872 2764 1633 
Q 3022 1394 3022 966 
Q 3022 478 2636 193 
Q 2250 -91 1575 -91 
Q 1294 -91 989 -36 
Q 684 19 347 128 
L 347 722 
Q 666 556 975 473 
Q 1284 391 1588 391 
Q 1994 391 2212 530 
Q 2431 669 2431 922 
Q 2431 1156 2273 1281 
Q 2116 1406 1581 1522 
L 1381 1569 
Q 847 1681 609 1914 
Q 372 2147 372 2553 
Q 372 3047 722 3315 
Q 1072 3584 1716 3584 
Q 2034 3584 2315 3537 
Q 2597 3491 2834 3397 
z
" transform="scale(0.015625)"/>
       <path id="DejaVuSans-29" d="M 513 4856 
L 1013 4856 
Q 1481 4119 1714 3412 
Q 1947 2706 1947 2009 
Q 1947 1309 1714 600 
Q 1481 -109 1013 -844 
L 513 -844 
Q 928 -128 1133 580 
Q 1338 1288 1338 2009 
Q 1338 2731 1133 3434 
Q 928 4138 513 4856 
z
" transform="scale(0.015625)"/>
      </defs>
      <use xlink:href="#DejaVuSans-54"/>
      <use xlink:href="#DejaVuSans-69" x="57.958984"/>
      <use xlink:href="#DejaVuSans-6d" x="85.742188"/>
      <use xlink:href="#DejaVuSans-65" x="183.154297"/>
      <use xlink:href="#DejaVuSans-20" x="244.677734"/>
      <use xlink:href="#DejaVuSans-28" x="276.464844"/>
      <use xlink:href="#DejaVuSans-73" x="315.478516"/>
      <use xlink:href="#DejaVuSans-29" x="367.578125"/>
     </g>
    </g>
   </g>
   <g id="matplotlib.axis_2">
    <g id="ytick_1">
     <g id="line2d_11">
      <path d="M 57.6 282.093027 
L 414.72 282.093027 
" clip-path="url(#p0dd1948d60)" style="fill: none; stroke: #b0b0b0; stroke-width: 0.8; stroke-linecap: square"/>
     </g>
     <g id="line2d_12">
      <defs>
       <path id="mbf6d3bc080" d="M 0 0 
L -3.5 0 
" style="stroke: #000000; stroke-width: 0.8"/>
      </defs>
      <g>
       <use xlink:href="#mbf6d3bc080" x="57.6" y="282.093027" style="stroke: #000000; stroke-width: 0.8"/>
      </g>
     </g>
     <g id="text_7">
      <!-- 0.00 -->
      <g transform="translate(28.334375 285.892246) scale(0.1 -0.1)">
       <defs>
        <path id="DejaVuSans-2e" d="M 684 794 
L 1344 794 
L 1344 0 
L 684 0 
L 684 794 
z
" transform="scale(0.015625)"/>
       </defs>
       <use xlink:href="#DejaVuSans-30"/>
       <use xlink:href="#DejaVuSans-2e" x="63.623047"/>
       <use xlink:href="#DejaVuSans-30" x="95.410156"/>
       <use xlink:href="#DejaVuSans-30" x="159.033203"/>
      </g>
     </g>
    </g>
    <g id="ytick_2">
     <g id="line2d_13">
      <path d="M 57.6 248.833026 
L 414.72 248.833026 
" clip-path="url(#p0dd1948d60)" style="fill: none; stroke: #b0b0b0; stroke-width: 0.8; stroke-linecap: square"/>
     </g>
     <g id="line2d_14">
      <g>
       <use xlink:href="#mbf6d3bc080" x="57.6" y="248.833026" style="stroke: #000000; stroke-width: 0.8"/>
      </g>
     </g>
     <g id="text_8">
      <!-- 0.25 -->
      <g transform="translate(28.334375 252.632245) scale(0.1 -0.1)">
       <use xlink:href="#DejaVuSans-30"/>
       <use xlink:href="#DejaVuSans-2e" x="63.623047"/>
       <use xlink:href="#DejaVuSans-32" x="95.410156"/>
       <use xlink:href="#DejaVuSans-35" x="159.033203"/>
      </g>
     </g>
    </g>
    <g id="ytick_3">
     <g id="line2d_15">
      <path d="M 57.6 215.573025 
L 414.72 215.573025 
" clip-path="url(#p0dd1948d60)" style="fill: none; stroke: #b0b0b0; stroke-width: 0.8; stroke-linecap: square"/>
     </g>
     <g id="line2d_16">
      <g>
       <use xlink:href="#mbf6d3bc080" x="57.6" y="215.573025" style="stroke: #000000; stroke-width: 0.8"/>
      </g>
     </g>
     <g id="text_9">
      <!-- 0.50 -->
      <g transform="translate(28.334375 219.372244) scale(0.1 -0.1)">
       <use xlink:href="#DejaVuSans-30"/>
       <use xlink:href="#DejaVuSans-2e" x="63.623047"/>
       <use xlink:href="#DejaVuSans-35" x="95.410156"/>
       <use xlink:href="#DejaVuSans-30" x="159.033203"/>
      </g>
     </g>
    </g>
    <g id="ytick_4">
     <g id="line2d_17">
      <path d="M 57.6 182.313024 
L 414.72 182.313024 
" clip-path="url(#p0dd1948d60)" style="fill: none; stroke: #b0b0b0; stroke-width: 0.8; stroke-linecap: square"/>
     </g>
     <g id="line2d_18">
      <g>
       <use xlink:href="#mbf6d3bc080" x="57.6" y="182.313024" style="stroke: #000000; stroke-width: 0.8"/>
      </g>
     </g>
     <g id="text_10">
      <!-- 0.75 -->
      <g transform="translate(28.334375 186.112243) scale(0.1 -0.1)">
       <defs>
        <path id="DejaVuSans-37" d="M 525 4666 
L 3525 4666 
L 3525 4397 
L 1831 0 
L 1172 0 
L 2766 4134 
L 525 4134 
L 525 4666 
z
" transform="scale(0.015625)"/>
       </defs>
       <use xlink:href="#DejaVuSans-30"/>
       <use xlink:href="#DejaVuSans-2e" x="63.623047"/>
       <use xlink:href="#DejaVuSans-37" x="95.410156"/>
       <use xlink:href="#DejaVuSans-35" x="159.033203"/>
      </g>
     </g>
    </g>
    <g id="ytick_5">
     <g id="line2d_19">
      <path d="M 57.6 149.053023 
L 414.72 149.053023 
" clip-path="url(#p0dd1948d60)" style="fill: none; stroke: #b0b0b0; stroke-width: 0.8; stroke-linecap: square"/>
     </g>
     <g id="line2d_20">
      <g>
       <use xlink:href="#mbf6d3bc080" x="57.6" y="149.053023" style="stroke: #000000; stroke-width: 0.8"/>
      </g>
     </g>
     <g id="text_11">
      <!-- 1.00 -->
      <g transform="translate(28.334375 152.852242) scale(0.1 -0.1)">
       <use xlink:href="#DejaVuSans-31"/>
       <use xlink:href="#DejaVuSans-2e" x="63.623047"/>
       <use xlink:href="#DejaVuSans-30" x="95.410156"/>
       <use xlink:href="#DejaVuSans-30" x="159.033203"/>
      </g>
     </g>
    </g>
    <g id="ytick_6">
     <g id="line2d_21">
      <path d="M 57.6 115.793022 
L 414.72 115.793022 
" clip-path="url(#p0dd1948d60)" style="fill: none; stroke: #b0b0b0; stroke-width: 0.8; stroke-linecap: square"/>
     </g>
     <g id="line2d_22">
      <g>
       <use xlink:href="#mbf6d3bc080" x="57.6" y="115.793022" style="stroke: #000000; stroke-width: 0.8"/>
      </g>
     </g>
     <g id="text_12">
      <!-- 1.25 -->
      <g transform="translate(28.334375 119.592241) scale(0.1 -0.1)">
       <use xlink:href="#DejaVuSans-31"/>
       <use xlink:href="#DejaVuSans-2e" x="63.623047"/>
       <use xlink:href="#DejaVuSans-32" x="95.410156"/>
       <use xlink:href="#DejaVuSans-35" x="159.033203"/>
      </g>
     </g>
    </g>
    <g id="ytick_7">
     <g id="line2d_23">
      <path d="M 57.6 82.533022 
L 414.72 82.533022 
" clip-path="url(#p0dd1948d60)" style="fill: none; stroke: #b0b0b0; stroke-width: 0.8; stroke-linecap: square"/>
     </g>
     <g id="line2d_24">
      <g>
       <use xlink:href="#mbf6d3bc080" x="57.6" y="82.533022" style="stroke: #000000; stroke-width: 0.8"/>
      </g>
     </g>
     <g id="text_13">
      <!-- 1.50 -->
      <g transform="translate(28.334375 86.33224) scale(0.1 -0.1)">
       <use xlink:href="#DejaVuSans-31"/>
       <use xlink:href="#DejaVuSans-2e" x="63.623047"/>
       <use xlink:href="#DejaVuSans-35" x="95.410156"/>
       <use xlink:href="#DejaVuSans-30" x="159.033203"/>
      </g>
     </g>
    </g>
    <g id="ytick_8">
     <g id="line2d_25">
      <path d="M 57.6 49.273021 
L 414.72 49.273021 
" clip-path="url(#p0dd1948d60)" style="fill: none; stroke: #b0b0b0; stroke-width: 0.8; stroke-linecap: square"/>
     </g>
     <g id="line2d_26">
      <g>
       <use xlink:href="#mbf6d3bc080" x="57.6" y="49.273021" style="stroke: #000000; stroke-width: 0.8"/>
      </g>
     </g>
     <g id="text_14">
      <!-- 1.75 -->
      <g transform="translate(28.334375 53.072239) scale(0.1 -0.1)">
       <use xlink:href="#DejaVuSans-31"/>
       <use xlink:href="#DejaVuSans-2e" x="63.623047"/>
       <use xlink:href="#DejaVuSans-37" x="95.410156"/>
       <use xlink:href="#DejaVuSans-35" x="159.033203"/>
      </g>
     </g>
    </g>
    <g id="text_15">
     <!-- Amplitude -->
     <g transform="translate(22.254687 200.150656) rotate(-90) scale(0.1 -0.1)">
      <defs>
       <path id="DejaVuSans-41" d="M 2188 4044 
L 1331 1722 
L 3047 1722 
L 2188 4044 
z
M 1831 4666 
L 2547 4666 
L 4325 0 
L 3669 0 
L 3244 1197 
L 1141 1197 
L 716 0 
L 50 0 
L 1831 4666 
z
" transform="scale(0.015625)"/>
       <path id="DejaVuSans-70" d="M 1159 525 
L 1159 -1331 
L 581 -1331 
L 581 3500 
L 1159 3500 
L 1159 2969 
Q 1341 3281 1617 3432 
Q 1894 3584 2278 3584 
Q 2916 3584 3314 3078 
Q 3713 2572 3713 1747 
Q 3713 922 3314 415 
Q 2916 -91 2278 -91 
Q 1894 -91 1617 61 
Q 1341 213 1159 525 
z
M 3116 1747 
Q 3116 2381 2855 2742 
Q 2594 3103 2138 3103 
Q 1681 3103 1420 2742 
Q 1159 2381 1159 1747 
Q 1159 1113 1420 752 
Q 1681 391 2138 391 
Q 2594 391 2855 752 
Q 3116 1113 3116 1747 
z
" transform="scale(0.015625)"/>
       <path id="DejaVuSans-6c" d="M 603 4863 
L 1178 4863 
L 1178 0 
L 603 0 
L 603 4863 
z
" transform="scale(0.015625)"/>
       <path id="DejaVuSans-74" d="M 1172 4494 
L 1172 3500 
L 2356 3500 
L 2356 3053 
L 1172 3053 
L 1172 1153 
Q 1172 725 1289 603 
Q 1406 481 1766 481 
L 2356 481 
L 2356 0 
L 1766 0 
Q 1100 0 847 248 
Q 594 497 594 1153 
L 594 3053 
L 172 3053 
L 172 3500 
L 594 3500 
L 594 4494 
L 1172 4494 
z
" transform="scale(0.015625)"/>
       <path id="DejaVuSans-75" d="M 544 1381 
L 544 3500 
L 1119 3500 
L 1119 1403 
Q 1119 906 1312 657 
Q 1506 409 1894 409 
Q 2359 409 2629 706 
Q 2900 1003 2900 1516 
L 2900 3500 
L 3475 3500 
L 3475 0 
L 2900 0 
L 2900 538 
Q 2691 219 2414 64 
Q 2138 -91 1772 -91 
Q 1169 -91 856 284 
Q 544 659 544 1381 
z
M 1991 3584 
L 1991 3584 
z
" transform="scale(0.015625)"/>
       <path id="DejaVuSans-64" d="M 2906 2969 
L 2906 4863 
L 3481 4863 
L 3481 0 
L 2906 0 
L 2906 525 
Q 2725 213 2448 61 
Q 2172 -91 1784 -91 
Q 1150 -91 751 415 
Q 353 922 353 1747 
Q 353 2572 751 3078 
Q 1150 3584 1784 3584 
Q 2172 3584 2448 3432 
Q 2725 3281 2906 2969 
z
M 947 1747 
Q 947 1113 1208 752 
Q 1469 391 1925 391 
Q 2381 391 2643 752 
Q 2906 1113 2906 1747 
Q 2906 2381 2643 2742 
Q 2381 3103 1925 3103 
Q 1469 3103 1208 2742 
Q 947 2381 947 1747 
z
" transform="scale(0.015625)"/>
      </defs>
      <use xlink:href="#DejaVuSans-41"/>
      <use xlink:href="#DejaVuSans-6d" x="68.408203"/>
      <use xlink:href="#DejaVuSans-70" x="165.820312"/>
      <use xlink:href="#DejaVuSans-6c" x="229.296875"/>
      <use xlink:href="#DejaVuSans-69" x="257.080078"/>
      <use xlink:href="#DejaVuSans-74" x="284.863281"/>
      <use xlink:href="#DejaVuSans-75" x="324.072266"/>
      <use xlink:href="#DejaVuSans-64" x="387.451172"/>
      <use xlink:href="#DejaVuSans-65" x="450.927734"/>
     </g>
    </g>
    <g id="text_16">
     <!-- 1e−9 -->
     <g transform="translate(57.6 38.472) scale(0.1 -0.1)">
      <defs>
       <path id="DejaVuSans-2212" d="M 678 2272 
L 4684 2272 
L 4684 1741 
L 678 1741 
L 678 2272 
z
" transform="scale(0.015625)"/>
       <path id="DejaVuSans-39" d="M 703 97 
L 703 672 
Q 941 559 1184 500 
Q 1428 441 1663 441 
Q 2288 441 2617 861 
Q 2947 1281 2994 2138 
Q 2813 1869 2534 1725 
Q 2256 1581 1919 1581 
Q 1219 1581 811 2004 
Q 403 2428 403 3163 
Q 403 3881 828 4315 
Q 1253 4750 1959 4750 
Q 2769 4750 3195 4129 
Q 3622 3509 3622 2328 
Q 3622 1225 3098 567 
Q 2575 -91 1691 -91 
Q 1453 -91 1209 -44 
Q 966 3 703 97 
z
M 1959 2075 
Q 2384 2075 2632 2365 
Q 2881 2656 2881 3163 
Q 2881 3666 2632 3958 
Q 2384 4250 1959 4250 
Q 1534 4250 1286 3958 
Q 1038 3666 1038 3163 
Q 1038 2656 1286 2365 
Q 1534 2075 1959 2075 
z
" transform="scale(0.015625)"/>
      </defs>
      <use xlink:href="#DejaVuSans-31"/>
      <use xlink:href="#DejaVuSans-65" x="63.623047"/>
      <use xlink:href="#DejaVuSans-2212" x="125.146484"/>
      <use xlink:href="#DejaVuSans-39" x="208.935547"/>
     </g>
    </g>
   </g>
   <g id="line2d_27">
    <path d="M 57.588939 247.41015 
L 57.789789 133.389556 
L 57.847174 142.767508 
L 58.220181 282.054238 
L 58.248874 281.635453 
L 58.650574 274.144857 
L 58.765345 274.003378 
L 58.794038 274.031549 
L 59.224431 274.890438 
L 59.970445 280.012294 
L 60.372145 281.339908 
L 60.745152 281.994822 
L 60.974694 282.028765 
L 61.290316 281.902226 
L 61.462473 281.402472 
L 61.749401 280.720122 
L 61.921558 280.68351 
L 62.409337 281.105677 
L 62.724958 281.107713 
L 63.040579 281.641825 
L 63.930058 281.667076 
L 64.274372 281.484725 
L 64.733457 281.746162 
L 64.934307 281.899738 
L 65.249929 282.020923 
L 65.594243 281.987881 
L 66.024635 282.065121 
L 66.254178 282.049596 
L 66.455028 281.814726 
L 66.741956 281.274752 
L 66.770649 281.299416 
L 67.430585 282.065969 
L 67.602742 281.92364 
L 67.68882 281.847141 
L 67.717513 281.884769 
L 67.803592 282.0863 
L 67.832285 281.884474 
L 67.88967 279.576246 
L 67.975749 263.366018 
L 68.119213 166.952911 
L 68.29137 58.515315 
L 68.320063 64.636207 
L 68.49222 196.355386 
L 68.69307 275.120903 
L 68.865227 281.841682 
L 69.008691 282.091102 
L 69.381698 282.006047 
L 69.69732 282.032892 
L 70.099019 282.039999 
L 70.357255 281.884869 
L 70.701569 281.41101 
L 70.816341 281.149474 
L 71.074576 280.536881 
L 71.246733 280.40191 
L 71.390198 280.313339 
L 71.41889 280.343997 
L 71.591047 280.817891 
L 71.992747 281.998873 
L 72.250983 282.078194 
L 72.710068 281.894583 
L 73.197847 282.031685 
L 73.341311 281.913184 
L 73.599547 281.65773 
L 73.800397 281.605457 
L 74.116018 281.456391 
L 74.374253 281.278204 
L 74.775953 280.594655 
L 74.862032 280.657144 
L 75.206346 280.813755 
L 75.923667 280.107852 
L 76.067131 279.973891 
L 76.210596 279.874754 
L 76.239288 279.897081 
L 76.727067 280.469439 
L 76.784453 280.406693 
L 77.071381 279.734981 
L 77.300924 279.017413 
L 77.329617 279.047201 
L 77.473081 279.682152 
L 77.760009 280.736698 
L 78.219095 281.850161 
L 78.276481 281.790478 
L 78.448638 281.304767 
L 79.137266 278.131463 
L 79.194652 278.362222 
L 79.338116 282.014344 
L 79.395501 280.35953 
L 79.48158 259.34743 
L 79.739816 90.994457 
L 79.825894 119.545242 
L 80.141515 279.422562 
L 80.256287 282.066899 
L 80.28498 281.890933 
L 80.715372 278.738257 
L 80.772758 278.666194 
L 80.801451 278.695323 
L 80.916222 279.223988 
L 81.231844 280.586088 
L 81.461386 280.965794 
L 81.633543 280.993265 
L 82.322172 282.091156 
L 82.465636 282.030212 
L 82.781257 281.776442 
L 83.383807 282.024058 
L 83.8142 281.478998 
L 83.842893 281.502776 
L 84.043743 281.57502 
L 84.301978 281.284613 
L 84.359364 281.358467 
L 84.703678 281.785048 
L 85.191456 281.851348 
L 85.363613 281.633217 
L 85.507078 281.53837 
L 85.53577 281.561038 
L 85.822699 281.714854 
L 86.453942 281.5789 
L 86.654791 281.364974 
L 87.199956 281.740387 
L 87.372113 281.562693 
L 87.54427 281.509797 
L 87.802505 281.647212 
L 88.032048 281.605714 
L 88.376362 281.764531 
L 88.835448 281.444158 
L 88.978912 281.56715 
L 89.380612 282.085487 
L 89.495383 282.043028 
L 89.66754 281.835958 
L 89.696233 281.861833 
L 89.925776 282.077579 
L 89.954469 282.052082 
L 90.097933 281.731004 
L 90.528326 280.488516 
L 90.585711 280.486857 
L 90.67179 281.086837 
L 90.757868 282.087664 
L 90.786561 281.88311 
L 90.843947 278.380129 
L 90.930025 255.492671 
L 91.130875 93.840408 
L 91.216954 64.127964 
L 91.245647 71.30119 
L 91.733425 282.050394 
L 91.762118 282.092077 
L 91.790811 282.0425 
L 92.077739 281.423327 
L 92.479439 280.99726 
L 92.508132 281.025339 
L 92.737675 281.500469 
L 92.967218 281.69197 
L 93.684539 282.060581 
L 93.828003 281.805422 
L 94.086239 281.391657 
L 94.344474 281.518916 
L 94.631403 281.88121 
L 94.832253 282.080609 
L 95.00441 281.774048 
L 95.492188 280.805137 
L 95.721731 280.624457 
L 95.922581 280.71534 
L 96.467745 281.310191 
L 97.098987 280.553801 
L 97.242452 280.454663 
L 97.271144 280.471864 
L 97.758923 280.799097 
L 97.787616 280.763844 
L 98.447551 279.870418 
L 98.562322 280.076748 
L 98.705787 280.278459 
L 98.73448 280.263194 
L 98.906637 280.154542 
L 98.935329 280.190713 
L 99.222258 280.57895 
L 99.250951 280.562414 
L 99.595265 280.207759 
L 99.767422 279.934302 
L 99.796115 279.963902 
L 100.140429 280.834468 
L 100.714286 282.087515 
L 100.886443 281.989983 
L 101.087293 281.359158 
L 101.66115 279.350743 
L 101.718536 279.642144 
L 101.862 282.078101 
L 101.890693 281.386247 
L 101.976771 266.880025 
L 102.120235 166.044904 
L 102.2637 66.491764 
L 102.292392 68.482887 
L 102.407164 146.708932 
L 102.636707 274.369979 
L 102.808864 282.092975 
L 102.894942 281.708454 
L 103.124485 280.805803 
L 103.325335 280.519834 
L 103.354028 280.541841 
L 103.526185 281.028061 
L 103.927885 281.954406 
L 104.358277 282.076284 
L 104.673899 281.983204 
L 104.903441 281.261168 
L 105.333834 280.068796 
L 105.419913 280.006761 
L 105.448605 280.046144 
L 105.563377 280.585864 
L 105.878998 282.066139 
L 106.079848 282.074645 
L 106.280698 281.89996 
L 106.481548 281.751502 
L 106.883248 281.818047 
L 107.887497 281.917563 
L 108.231812 281.6419 
L 108.461354 281.459701 
L 109.264754 281.597948 
L 109.379525 281.490549 
L 109.637761 281.086331 
L 109.666454 281.106783 
L 109.838611 281.162008 
L 110.096846 280.897094 
L 110.125539 280.921515 
L 110.240311 280.951989 
L 110.269004 280.915579 
L 110.527239 280.316813 
L 110.613318 280.417084 
L 111.101096 281.278673 
L 111.129789 281.254713 
L 111.359332 280.983727 
L 111.388025 281.026393 
L 111.933189 282.031349 
L 112.076653 281.833829 
L 112.507046 280.440521 
L 112.736588 279.741756 
L 112.85136 279.562162 
L 112.880053 279.639558 
L 112.966131 280.785646 
L 113.05221 282.033661 
L 113.080902 281.09633 
L 113.166981 264.827609 
L 113.310445 166.071506 
L 113.453909 86.767187 
L 113.482602 91.788167 
L 113.654759 214.438596 
L 113.855609 279.717277 
L 113.970381 282.089266 
L 113.999074 281.995279 
L 114.429466 279.92766 
L 114.515545 280.02456 
L 115.118094 281.389404 
L 115.950187 282.070456 
L 116.122344 281.858652 
L 116.495351 281.189842 
L 116.667508 281.37272 
L 117.011822 282.085584 
L 117.069208 282.0331 
L 117.327444 281.485235 
L 117.643065 281.01591 
L 117.901301 280.845085 
L 118.044765 281.126919 
L 118.274308 281.474298 
L 118.446465 281.277598 
L 118.647315 281.185449 
L 118.934243 281.269196 
L 119.221171 281.13855 
L 119.5081 281.293795 
L 119.680257 280.964339 
L 119.995878 280.372951 
L 120.11065 280.574037 
L 120.454964 281.223618 
L 120.655814 281.235851 
L 120.827971 280.749713 
L 120.942742 280.562573 
L 120.971435 280.57925 
L 121.229671 280.72843 
L 121.344442 280.758287 
L 121.63137 281.194684 
L 121.688756 281.145929 
L 121.889606 281.079143 
L 122.119149 281.13453 
L 122.291306 281.152155 
L 122.492156 281.759439 
L 122.693006 282.089688 
L 123.03732 282.043155 
L 123.209477 281.785797 
L 123.381634 280.966147 
L 123.754641 279.171578 
L 123.812027 279.488892 
L 123.955491 282.058423 
L 124.012877 280.706954 
L 124.098955 263.903954 
L 124.242419 164.778115 
L 124.385884 80.597562 
L 124.414577 84.485554 
L 124.558041 182.891964 
L 124.787584 277.964136 
L 124.902355 282.077435 
L 124.931048 282.056415 
L 125.275362 280.270862 
L 125.304055 280.291825 
L 125.476212 280.705639 
L 125.705755 281.032278 
L 125.849219 281.295001 
L 126.107454 281.703081 
L 126.394383 281.848739 
L 126.623926 282.084981 
L 126.652618 282.060639 
L 126.882161 281.576381 
L 127.341247 280.661467 
L 127.36994 280.680897 
L 127.714254 281.222749 
L 128.001182 282.089829 
L 128.058568 282.057593 
L 128.632425 281.633882 
L 128.833275 281.191484 
L 128.89066 281.234946 
L 129.177589 281.553334 
L 129.349746 281.579871 
L 129.636674 281.828013 
L 129.89491 281.782601 
L 130.09576 281.812363 
L 130.640924 281.318046 
L 130.841774 281.38865 
L 131.042624 281.376641 
L 131.731252 280.872213 
L 132.018181 281.260843 
L 132.075566 281.182832 
L 132.41988 280.759237 
L 132.62073 280.618366 
L 132.649423 280.647031 
L 133.079816 281.471311 
L 133.42413 282.092874 
L 133.653673 282.018979 
L 133.854523 281.358208 
L 134.284915 279.42385 
L 134.457073 278.253346 
L 134.485765 278.322079 
L 134.571844 279.7568 
L 134.657922 282.03748 
L 134.686615 281.881109 
L 134.744001 276.830333 
L 134.858772 227.364177 
L 135.088315 80.148105 
L 135.117008 88.028628 
L 135.576094 282.087256 
L 135.633479 281.900437 
L 136.035179 279.002922 
L 136.092565 279.072567 
L 136.867272 281.296002 
L 137.1542 281.503959 
L 137.527207 282.093008 
L 137.670671 281.950302 
L 138.215835 281.35089 
L 138.3593 281.637955 
L 138.617535 282.08728 
L 138.760999 281.896463 
L 139.047928 281.057673 
L 139.277471 280.561937 
L 139.707863 280.788211 
L 140.138256 281.135935 
L 140.597342 280.871007 
L 141.113813 280.788613 
L 141.48682 280.299714 
L 142.031984 280.071934 
L 142.232834 279.750936 
L 142.376298 279.770819 
L 142.548455 279.473169 
L 142.605841 279.589052 
L 143.036233 281.000873 
L 143.265776 281.663393 
L 143.524012 282.083628 
L 143.753555 282.004194 
L 143.954405 281.563712 
L 144.41349 279.769757 
L 144.470876 279.948806 
L 144.585647 281.440181 
L 144.643033 282.091057 
L 144.671726 281.655237 
L 144.729111 276.647736 
L 144.843883 229.255991 
L 145.073425 51.979551 
L 145.130811 65.650826 
L 145.561204 281.314949 
L 145.647282 282.092556 
L 145.704668 281.924195 
L 145.934211 281.314961 
L 146.680225 281.474451 
L 146.852382 281.478496 
L 147.368853 282.089354 
L 147.569703 282.011779 
L 147.74186 281.609794 
L 148.028789 280.846917 
L 148.057481 280.866369 
L 148.258331 281.361577 
L 148.688724 282.092066 
L 148.832188 281.939863 
L 149.377352 281.024689 
L 149.520817 281.247884 
L 149.750359 281.484354 
L 150.209445 281.456368 
L 150.611145 281.642383 
L 150.86938 281.500636 
L 151.07023 281.519592 
L 151.443237 281.209331 
L 151.902323 281.424495 
L 152.07448 281.244876 
L 152.447487 280.914565 
L 152.590951 281.011783 
L 152.906572 281.294554 
L 153.250887 281.413989 
L 153.423044 281.478006 
L 153.910822 281.089984 
L 154.341215 281.187539 
L 154.484679 281.191289 
L 154.685529 281.558744 
L 155.00115 282.086887 
L 155.374157 282.05392 
L 155.632393 281.567458 
L 155.80455 280.891671 
L 156.148864 279.330938 
L 156.177557 279.364937 
L 156.263635 280.21629 
L 156.378407 282.068576 
L 156.4071 281.367729 
L 156.493178 267.377056 
L 156.607949 194.532066 
L 156.780107 58.181649 
L 156.837492 68.083829 
L 157.296578 282.055981 
L 157.325271 282.083205 
L 157.353963 281.980403 
L 157.640892 280.901795 
L 157.899128 280.59338 
L 158.272135 280.973111 
L 158.53037 281.535683 
L 158.73122 281.626198 
L 159.104227 282.075303 
L 159.218998 282.059586 
L 159.93632 281.168477 
L 160.079784 281.290012 
L 160.395405 282.088128 
L 160.481484 281.992159 
L 160.883184 281.180678 
L 161.141419 280.75363 
L 161.342269 280.846094 
L 161.629198 281.276967 
L 161.85874 281.481315 
L 162.26044 281.324535 
L 162.547369 281.606001 
L 162.576061 281.580821 
L 162.891683 281.33572 
L 163.06384 281.221942 
L 163.494232 280.880025 
L 163.695082 280.975417 
L 163.982011 281.203263 
L 164.125475 281.220337 
L 164.498482 280.747424 
L 164.555868 280.798049 
L 164.756718 280.861767 
L 164.98626 280.883538 
L 165.531425 281.138075 
L 165.847046 280.951533 
L 166.076589 281.156186 
L 166.621753 282.088567 
L 166.99476 282.038504 
L 167.367767 281.414553 
L 167.826852 279.545688 
L 167.855545 279.691681 
L 167.999009 282.093015 
L 168.027702 281.600105 
L 168.085088 275.475365 
L 168.199859 220.189663 
L 168.429402 57.414193 
L 168.458095 66.45018 
L 168.91718 282.007958 
L 168.945873 282.092833 
L 168.974566 282.018723 
L 169.290187 280.337422 
L 169.347573 280.412617 
L 169.835351 281.374532 
L 170.007508 281.447505 
L 170.638751 282.08994 
L 170.810908 281.917213 
L 171.183915 280.983028 
L 171.470844 280.193946 
L 171.499536 280.223538 
L 171.643001 280.659478 
L 172.073393 282.091018 
L 172.188165 282.023387 
L 172.704636 281.360224 
L 172.934179 281.353503 
L 173.106336 281.351689 
L 173.393264 281.576186 
L 173.536729 281.270187 
L 173.708886 280.951523 
L 173.737578 280.978364 
L 174.225357 281.628617 
L 174.397514 281.67148 
L 174.540978 281.419413 
L 174.856599 280.651905 
L 174.885292 280.672497 
L 175.229606 280.969246 
L 175.430456 280.981482 
L 175.602613 280.918787 
L 176.17647 280.569122 
L 176.348627 280.655327 
L 176.37732 280.625474 
L 176.635556 280.200471 
L 176.692942 280.258271 
L 177.008563 280.731143 
L 177.037256 280.704368 
L 177.38157 280.434289 
L 177.525034 280.722745 
L 177.98412 282.031854 
L 178.213662 282.071119 
L 178.328434 281.925322 
L 178.500591 281.244285 
L 178.959676 279.204299 
L 179.045755 279.095094 
L 179.074448 279.157532 
L 179.160526 280.159584 
L 179.246605 282.012014 
L 179.275298 281.976303 
L 179.332683 277.906085 
L 179.418762 250.148731 
L 179.676998 67.465254 
L 179.763076 103.520228 
L 180.078697 278.75947 
L 180.193469 282.090345 
L 180.222162 282.044985 
L 180.595169 280.691666 
L 180.853404 280.692038 
L 181.11164 281.106395 
L 181.51334 281.666461 
L 182.001118 282.05145 
L 182.316739 281.664745 
L 182.574975 281.111737 
L 182.804518 280.402256 
L 182.833211 280.427112 
L 182.947982 280.885455 
L 183.23491 282.050762 
L 183.378375 282.070796 
L 183.579225 281.77014 
L 183.952232 281.227119 
L 184.210467 281.370972 
L 184.583474 281.729535 
L 184.899095 281.715958 
L 185.157331 281.56739 
L 185.530338 281.665062 
L 185.731188 281.50796 
L 185.759881 281.536526 
L 185.989424 281.689849 
L 186.305045 281.462335 
L 186.419816 281.394939 
L 186.678052 281.097773 
L 186.706745 281.124172 
L 187.079752 281.416874 
L 187.395373 281.339811 
L 187.883151 281.200751 
L 188.141387 281.36176 
L 188.342237 281.252312 
L 188.629165 280.920148 
L 188.657858 280.940848 
L 188.858708 280.965644 
L 189.002172 280.952807 
L 189.174329 281.348064 
L 189.518644 282.092042 
L 190.006422 281.860402 
L 190.178579 281.255289 
L 190.637665 279.465806 
L 190.69505 279.628078 
L 190.809822 281.182933 
L 190.867207 282.068849 
L 190.8959 281.911178 
L 190.953286 278.019694 
L 191.039364 252.441169 
L 191.2976 83.055736 
L 191.383679 117.301839 
L 191.6993 279.365062 
L 191.785378 282.068996 
L 191.842764 281.875096 
L 192.158385 279.868911 
L 192.244464 279.903834 
L 192.617471 280.47414 
L 192.732242 280.515256 
L 192.904399 280.954855 
L 193.220021 281.61679 
L 193.851263 282.04475 
L 193.879956 282.008326 
L 194.052113 281.553833 
L 194.367735 280.594855 
L 194.396427 280.612557 
L 194.539892 281.036402 
L 194.884206 282.077405 
L 195.056363 282.034111 
L 195.458063 281.802245 
L 195.601527 281.655188 
L 195.888455 281.213608 
L 195.917148 281.235806 
L 196.491005 281.750474 
L 196.691855 281.694974 
L 197.064862 281.799875 
L 197.237019 281.519705 
L 197.466562 281.199221 
L 197.667412 281.100064 
L 197.868262 281.006328 
L 198.183883 281.098228 
L 198.729047 280.979236 
L 199.15944 280.431066 
L 199.216825 280.495596 
L 199.475061 280.786009 
L 199.503754 280.76713 
L 199.675911 280.698093 
L 199.790682 281.043836 
L 200.106304 282.042416 
L 200.393232 282.090631 
L 200.565389 282.012325 
L 200.708853 281.629632 
L 201.340096 279.094219 
L 201.368789 279.12722 
L 201.454867 280.275725 
L 201.540946 282.089161 
L 201.569639 281.676974 
L 201.627025 275.771366 
L 201.741796 223.499396 
L 201.942646 82.460032 
L 202.000032 93.217223 
L 202.430424 281.830769 
L 202.48781 282.074892 
L 202.516503 281.940189 
L 202.860817 280.135199 
L 203.09036 280.277225 
L 203.635524 281.250601 
L 203.865067 281.755635 
L 204.151995 281.807605 
L 204.381538 282.088481 
L 204.410231 282.070993 
L 204.582388 281.762806 
L 204.840623 281.348918 
L 204.869316 281.361678 
L 205.586637 282.060588 
L 205.644023 281.969479 
L 206.246573 280.840475 
L 206.562194 280.95843 
L 206.676965 280.980322 
L 206.935201 281.348604 
L 206.992587 281.300182 
L 207.222129 281.176488 
L 207.566444 281.338037 
L 207.738601 281.100502 
L 207.910758 280.922965 
L 207.939451 280.940816 
L 208.427229 281.367956 
L 208.455922 281.334974 
L 208.771543 280.761037 
L 208.857622 280.851244 
L 209.087164 280.949571 
L 209.259322 280.810433 
L 209.460171 280.640385 
L 209.488864 280.663416 
L 210.120107 281.54915 
L 210.407035 282.038967 
L 210.665271 282.090962 
L 210.923507 281.984204 
L 211.038278 281.754302 
L 211.181742 280.77554 
L 211.439978 279.331304 
L 211.583442 278.94687 
L 211.640828 279.078633 
L 211.755599 281.048033 
L 211.812985 282.085383 
L 211.841678 281.758637 
L 211.899063 276.589589 
L 212.013835 227.981755 
L 212.243377 77.422483 
L 212.27207 84.357995 
L 212.759849 282.056717 
L 212.788542 282.08821 
L 212.817234 282.011368 
L 213.104163 280.154883 
L 213.247627 279.628074 
L 213.27632 279.675168 
L 214.051027 281.656553 
L 214.424034 282.033257 
L 214.825734 282.000317 
L 215.342205 281.305411 
L 215.571748 281.624098 
L 215.80129 282.089043 
L 215.858676 282.004323 
L 216.375147 280.800676 
L 216.432533 280.855861 
L 216.80554 281.303604 
L 217.035083 281.525999 
L 217.178547 281.509899 
L 217.580247 281.096346 
L 217.80979 280.957957 
L 217.838482 280.996627 
L 218.125411 281.336816 
L 218.383646 281.151972 
L 218.785346 280.656043 
L 219.043582 280.688131 
L 219.244432 280.941762 
L 219.273125 280.916923 
L 219.588746 280.655762 
L 219.846982 280.732044 
L 220.076524 281.655149 
L 220.277374 282.008594 
L 220.73646 282.024783 
L 220.879924 281.699019 
L 221.13816 280.563027 
L 221.53986 278.484017 
L 221.568552 278.490867 
L 221.625938 278.995216 
L 221.769402 282.056995 
L 221.798095 281.13364 
L 221.884174 264.200757 
L 222.027638 157.431847 
L 222.171102 62.832755 
L 222.199795 66.933247 
L 222.343259 178.759356 
L 222.544109 277.157136 
L 222.65888 282.088792 
L 222.687573 282.026789 
L 223.06058 279.959522 
L 223.089273 279.96383 
L 223.204045 280.20845 
L 223.376202 280.586622 
L 223.404894 280.568551 
L 223.66313 280.157675 
L 223.720516 280.255404 
L 224.495223 282.087257 
L 224.638687 282.027927 
L 225.241237 281.479599 
L 225.384701 281.476712 
L 225.528165 281.768357 
L 225.700322 282.092717 
L 225.729015 282.07669 
L 225.872479 281.73477 
L 226.159408 281.167919 
L 226.360258 281.090331 
L 227.048886 281.495479 
L 227.221043 281.511372 
L 227.507971 281.589676 
L 227.852286 281.476377 
L 227.99575 281.636605 
L 228.024443 281.618994 
L 228.1966 281.19918 
L 228.282678 281.125569 
L 228.311371 281.153328 
L 228.512221 281.340442 
L 228.540914 281.308187 
L 228.827842 280.941479 
L 228.856535 280.967132 
L 229.143464 281.244452 
L 229.172156 281.219471 
L 229.401699 281.090927 
L 229.573856 281.106391 
L 229.860785 280.960616 
L 230.11902 281.029174 
L 230.377256 281.074525 
L 230.635492 281.43665 
L 231.094577 282.086696 
L 231.410198 282.027826 
L 231.611048 281.530292 
L 232.213598 279.359471 
L 232.242291 279.43369 
L 232.32837 280.620876 
L 232.414448 282.085375 
L 232.443141 281.461396 
L 232.529219 267.354931 
L 232.672684 165.668033 
L 232.816148 62.708074 
L 232.873534 75.002377 
L 233.303926 281.719968 
L 233.361312 282.091733 
L 233.418698 281.829241 
L 233.734319 279.997354 
L 233.84909 279.945516 
L 233.877783 279.974974 
L 234.04994 280.480521 
L 234.279483 280.928672 
L 234.480333 280.999725 
L 234.996804 281.868457 
L 235.341118 282.06541 
L 235.541968 281.752016 
L 235.886282 280.726933 
L 235.972361 280.933316 
L 236.316675 282.093009 
L 236.488832 281.960568 
L 237.062689 281.095081 
L 237.17746 281.281132 
L 237.435696 281.659566 
L 237.751317 281.475077 
L 238.009553 281.380095 
L 238.439946 281.680069 
L 238.78426 281.433208 
L 239.58766 281.127758 
L 239.731124 281.165965 
L 239.931974 281.115134 
L 240.132824 281.237053 
L 240.448445 280.990547 
L 240.620602 280.965619 
L 240.792759 280.952492 
L 241.251845 281.174298 
L 241.452694 281.021116 
L 241.481387 281.065332 
L 242.026551 282.092247 
L 242.31348 282.000781 
L 242.485637 281.572911 
L 242.91603 279.55025 
L 243.030801 279.110037 
L 243.088187 279.248823 
L 243.202958 281.452557 
L 243.231651 282.005849 
L 243.260344 281.965046 
L 243.317729 277.527829 
L 243.403808 247.691822 
L 243.662044 63.406556 
L 243.719429 82.529598 
L 244.092436 280.579471 
L 244.178515 282.092573 
L 244.235901 281.835781 
L 244.522829 280.112149 
L 244.723679 280.007736 
L 244.867143 280.351455 
L 245.268843 281.390102 
L 246.04355 282.040448 
L 246.187014 282.058528 
L 246.703485 281.506356 
L 246.875642 281.562414 
L 247.162571 282.086147 
L 247.248649 281.973936 
L 247.707735 281.121007 
L 247.793813 281.223388 
L 248.023356 281.409301 
L 248.224206 281.451211 
L 248.425056 281.55392 
L 248.56852 281.280495 
L 248.76937 280.984859 
L 249.027606 281.307673 
L 249.37192 281.4533 
L 249.515384 281.316244 
L 249.888391 280.836614 
L 250.232705 280.834481 
L 250.433555 280.793089 
L 250.921334 281.010379 
L 251.122184 280.860967 
L 251.150876 280.896096 
L 251.351726 281.128511 
L 251.380419 281.101302 
L 251.810812 280.403597 
L 251.868197 280.489089 
L 252.069047 281.245473 
L 252.355976 282.062334 
L 252.585519 282.091462 
L 252.757676 281.96089 
L 253.015911 281.486292 
L 253.50369 279.699413 
L 253.561075 279.643143 
L 253.589768 279.695752 
L 253.675847 280.551898 
L 253.761925 282.043094 
L 253.790618 281.972111 
L 253.848004 278.452815 
L 253.934082 254.224344 
L 254.192318 73.512221 
L 254.278397 103.825765 
L 254.594018 277.902611 
L 254.737482 282.092713 
L 254.823561 281.789365 
L 255.110489 280.754139 
L 255.397418 280.373629 
L 255.512189 280.498664 
L 256.401667 282.090573 
L 256.860753 282.031294 
L 257.061603 281.805022 
L 257.43461 281.266634 
L 257.463302 281.294877 
L 257.63546 281.859581 
L 257.778924 282.092891 
L 257.807617 282.082311 
L 257.922388 281.869533 
L 258.352781 280.586273 
L 258.381473 280.60253 
L 258.553631 280.961637 
L 258.75448 281.173622 
L 258.869252 281.318563 
L 259.098795 281.709492 
L 259.127487 281.6923 
L 259.529187 281.415068 
L 259.988273 281.129029 
L 260.189123 280.904704 
L 260.504744 281.14002 
L 260.705594 281.391176 
L 261.681151 280.532394 
L 261.824615 280.72315 
L 262.541936 282.076165 
L 262.828865 282.049434 
L 262.972329 281.701893 
L 263.374029 279.833305 
L 263.4888 279.887186 
L 263.632264 279.834567 
L 263.718343 280.564125 
L 263.804421 282.022716 
L 263.833114 282.005175 
L 263.8905 278.683271 
L 263.976578 255.09864 
L 264.234814 85.69218 
L 264.320893 114.750637 
L 264.636514 278.457037 
L 264.751285 282.08351 
L 264.779978 282.057914 
L 265.210371 279.702516 
L 265.296449 279.82525 
L 265.640763 280.41589 
L 265.898999 280.571038 
L 266.530242 282.019402 
L 266.81717 282.082162 
L 267.01802 281.939069 
L 267.362334 281.606625 
L 267.534491 281.744351 
L 267.82142 282.078574 
L 267.993577 281.833446 
L 268.337891 280.690647 
L 268.452662 280.791009 
L 268.940441 281.212278 
L 269.514298 281.20463 
L 269.686455 281.189748 
L 270.14554 280.86457 
L 270.34639 281.023577 
L 270.375083 280.982329 
L 270.633319 280.356121 
L 270.690704 280.437258 
L 270.862861 280.67979 
L 270.891554 280.661841 
L 271.235868 280.154368 
L 271.321947 280.29469 
L 271.55149 281.295858 
L 271.809725 282.004252 
L 272.039268 282.092333 
L 272.182732 282.018931 
L 272.326197 281.561829 
L 272.986132 278.345656 
L 273.043518 278.550305 
L 273.215675 282.009136 
L 273.244368 280.881004 
L 273.330446 262.862308 
L 273.502603 131.443561 
L 273.617375 75.993493 
L 273.646067 81.94274 
L 273.846917 230.753259 
L 274.047767 280.930432 
L 274.133846 282.083045 
L 274.162539 281.952275 
L 274.535546 279.823632 
L 274.621624 279.773863 
L 274.650317 279.800816 
L 274.965938 280.095678 
L 275.052017 280.19807 
L 275.740645 281.704917 
L 276.199731 282.092851 
L 276.429273 281.969426 
L 276.658816 281.878123 
L 276.917052 281.979946 
L 277.089209 282.072437 
L 277.232673 281.739709 
L 277.462216 281.380256 
L 277.749144 281.204964 
L 278.00738 280.905243 
L 278.265616 280.602115 
L 278.380387 280.763204 
L 278.724701 281.525643 
L 278.753394 281.503579 
L 279.01163 281.377447 
L 279.155094 281.283576 
L 279.442022 281.005082 
L 279.815029 281.064836 
L 280.216729 280.638505 
L 280.331501 280.811762 
L 280.905357 282.051556 
L 281.1349 282.089413 
L 281.307057 281.956869 
L 281.450522 281.598409 
L 281.622679 280.268384 
L 281.852221 279.120106 
L 281.995686 278.738165 
L 282.053071 278.638451 
L 282.081764 278.719428 
L 282.167843 279.967973 
L 282.253921 282.03107 
L 282.282614 281.919864 
L 282.34 277.252213 
L 282.426078 247.02258 
L 282.684314 60.576805 
L 282.7417 80.798524 
L 283.114707 281.020269 
L 283.172092 282.069374 
L 283.229478 281.894245 
L 283.545099 280.04857 
L 284.004185 280.471811 
L 284.205035 280.873332 
L 284.405885 280.828132 
L 285.180591 282.080605 
L 285.582291 281.888696 
L 285.955298 282.028068 
L 286.127455 282.066817 
L 286.385691 281.660688 
L 286.701312 280.9847 
L 286.873469 280.758321 
L 287.131705 281.039496 
L 287.562098 281.405912 
L 288.021183 281.127592 
L 288.135955 281.055753 
L 288.164647 281.078909 
L 288.422883 281.358874 
L 288.451576 281.3365 
L 288.79589 281.118989 
L 289.140204 280.818013 
L 289.427133 280.442626 
L 289.484518 280.528242 
L 289.627983 280.747797 
L 289.656675 280.733328 
L 289.771447 280.426824 
L 289.914911 280.071412 
L 289.943604 280.103991 
L 290.087068 280.759897 
L 290.373997 281.803564 
L 290.660925 282.07164 
L 290.833082 281.971606 
L 290.976546 281.455933 
L 291.464325 279.560157 
L 291.665175 278.986246 
L 291.72256 279.126442 
L 291.837332 281.066806 
L 291.894717 282.088918 
L 291.92341 281.709695 
L 291.980796 276.10348 
L 292.095567 223.399108 
L 292.32511 59.239803 
L 292.353803 66.820722 
L 292.841581 282.079353 
L 292.985046 280.796487 
L 293.214588 279.703224 
L 293.358053 279.516969 
L 293.386745 279.564481 
L 294.161452 281.563679 
L 294.821388 282.064796 
L 295.337859 281.613332 
L 295.538709 281.829098 
L 295.796944 282.075089 
L 295.997794 281.70439 
L 296.342108 281.334934 
L 296.542958 281.325311 
L 296.944658 281.536668 
L 297.116815 281.466499 
L 297.375051 281.710179 
L 297.403744 281.679518 
L 297.633287 281.452058 
L 297.661979 281.473504 
L 298.006294 281.650167 
L 298.235836 281.582692 
L 298.407993 281.598988 
L 298.551458 281.614802 
L 298.694922 281.257368 
L 298.809693 281.022476 
L 298.838386 281.037565 
L 299.1827 281.413521 
L 299.297472 281.471314 
L 299.469629 281.57974 
L 299.727864 281.165557 
L 299.78525 281.264379 
L 299.957407 281.432414 
L 300.158257 281.362399 
L 300.359107 281.49816 
L 300.818192 281.021011 
L 301.105121 281.080658 
L 301.277278 281.1918 
L 301.305971 281.168166 
L 301.478128 280.977109 
L 301.535514 281.058575 
L 301.937213 282.090036 
L 301.965906 282.078163 
L 302.166756 282.029073 
L 302.281528 282.075038 
L 302.31022 282.028169 
L 303.11362 280.157782 
L 303.142313 280.172551 
L 303.228391 280.875222 
L 303.31447 282.088218 
L 303.343163 281.823791 
L 303.400549 277.563054 
L 303.486627 250.691456 
L 303.744863 48.608852 
L 303.830941 78.872312 
L 304.175255 279.200107 
L 304.31872 282.079825 
L 304.462184 281.191733 
L 304.634341 280.714614 
L 304.806498 280.863784 
L 305.63859 281.812588 
L 306.155062 281.967714 
L 306.499376 281.26582 
L 306.64284 281.133752 
L 306.671533 281.159155 
L 307.302776 282.086292 
L 307.388854 281.948385 
L 307.618397 281.666906 
L 307.790554 281.610116 
L 308.106175 281.334493 
L 308.278332 281.152237 
L 308.450489 281.052818 
L 308.622646 281.25837 
L 308.909575 281.583897 
L 309.397353 281.112334 
L 309.56951 280.89873 
L 309.942517 281.109347 
L 309.97121 281.057742 
L 310.258139 280.439844 
L 310.315524 280.480272 
L 310.487681 280.482446 
L 310.659839 280.431267 
L 310.889381 280.655642 
L 310.918074 280.632768 
L 311.319774 280.103273 
L 311.37716 280.200011 
L 311.692781 280.682831 
L 311.864938 280.746746 
L 312.037095 280.844578 
L 312.180559 280.467985 
L 312.352716 280.125748 
L 312.381409 280.136759 
L 312.582259 280.438849 
L 312.754416 281.188436 
L 312.983959 281.967484 
L 313.270887 282.045731 
L 313.471737 281.964964 
L 313.643894 281.549534 
L 314.275137 278.936766 
L 314.332523 279.17699 
L 314.475987 282.063449 
L 314.50468 281.850139 
L 314.562066 276.962569 
L 314.648144 246.600289 
L 314.90638 50.845964 
L 314.992458 91.840262 
L 315.279387 276.195797 
L 315.422851 282.083572 
L 315.480237 281.95032 
L 315.939322 279.762292 
L 316.082786 279.770786 
L 316.283636 279.811367 
L 316.398408 279.863986 
L 316.541872 280.310026 
L 317.000957 281.907969 
L 317.201807 282.086201 
L 317.460043 281.894439 
L 317.947821 281.181677 
L 318.119978 281.236517 
L 318.579064 282.078773 
L 318.63645 282.009357 
L 319.152921 281.169254 
L 319.181614 281.186399 
L 320.042399 281.793371 
L 320.386713 281.627267 
L 320.673642 281.741788 
L 320.874492 281.672582 
L 321.649198 281.259711 
L 321.821356 281.209517 
L 322.16567 281.313393 
L 322.538677 281.210869 
L 322.796912 281.499238 
L 322.825605 281.480139 
L 323.313384 281.102831 
L 323.428155 281.181915 
L 324.059397 282.086262 
L 324.432404 281.987056 
L 324.604562 281.639228 
L 325.178418 279.28679 
L 325.235804 279.555474 
L 325.379268 282.092452 
L 325.407961 281.583519 
L 325.49404 268.785586 
L 325.637504 175.743908 
L 325.809661 75.062097 
L 325.838354 83.23664 
L 326.297439 282.034038 
L 326.326132 282.088875 
L 326.354825 281.988806 
L 326.699139 280.421018 
L 326.928682 280.262312 
L 327.129532 280.189695 
L 327.215611 280.243193 
L 327.41646 280.929938 
L 327.732082 281.638504 
L 328.334632 282.039882 
L 328.506789 281.911771 
L 328.793717 281.222072 
L 328.879796 281.348175 
L 329.281495 282.08568 
L 329.539731 281.84583 
L 329.855352 281.159415 
L 330.170974 280.407923 
L 330.199666 280.422572 
L 330.457902 280.751841 
L 330.859602 281.500125 
L 331.14653 281.334194 
L 331.404766 281.137581 
L 331.576923 281.149279 
L 332.122087 280.797295 
L 332.437708 281.002859 
L 332.724637 280.891323 
L 332.95418 281.055582 
L 333.241108 280.566935 
L 333.327187 280.671675 
L 333.585422 280.84961 
L 333.814965 281.164177 
L 334.474901 282.090944 
L 334.67575 281.980627 
L 334.819215 281.447517 
L 335.421764 278.307383 
L 335.47915 278.628994 
L 335.622614 282.053795 
L 335.68 280.238721 
L 335.766079 259.41238 
L 336.024314 79.194709 
L 336.139086 124.259547 
L 336.426014 277.48566 
L 336.569478 282.086773 
L 336.68425 281.160831 
L 336.8851 279.991929 
L 337.028564 280.056206 
L 337.258107 280.525526 
L 337.659806 281.149677 
L 338.090199 281.693715 
L 338.348435 282.072487 
L 338.635363 282.038941 
L 339.237913 281.527747 
L 339.381377 281.765892 
L 339.582227 282.091444 
L 339.61092 282.072215 
L 339.81177 281.609077 
L 340.328241 280.886658 
L 340.643862 281.031557 
L 340.787327 281.109245 
L 341.102948 281.42828 
L 341.246412 281.233337 
L 341.389876 281.069408 
L 341.418569 281.096564 
L 341.676805 281.478582 
L 341.705498 281.446298 
L 341.963733 281.152626 
L 341.992426 281.171909 
L 342.164583 281.163168 
L 342.451512 280.824152 
L 342.480204 280.859194 
L 342.709747 281.175923 
L 342.73844 281.139716 
L 342.996676 280.372258 
L 343.082754 280.529829 
L 343.283604 280.9177 
L 343.54184 280.702848 
L 343.570533 280.746688 
L 343.857461 281.544569 
L 344.087004 282.090379 
L 344.402625 282.036059 
L 344.632168 281.592448 
L 345.005175 280.666193 
L 345.292103 279.389443 
L 345.320796 279.492191 
L 345.435568 281.341543 
L 345.492953 282.081669 
L 345.521646 281.458021 
L 345.607725 268.055905 
L 345.751189 172.407644 
L 345.894653 71.228199 
L 345.952039 79.774968 
L 346.411124 282.042516 
L 346.439817 282.085949 
L 346.46851 281.981518 
L 346.841517 280.411749 
L 346.927596 280.26831 
L 346.956288 280.294805 
L 347.415374 281.05678 
L 347.587531 281.314628 
L 347.903152 281.685082 
L 348.304852 282.063444 
L 348.649166 281.498327 
L 348.850016 281.081447 
L 348.907402 281.167243 
L 349.280409 282.066023 
L 349.538645 282.068329 
L 349.739494 281.96188 
L 349.882959 281.506434 
L 350.112501 280.679867 
L 350.141194 280.702422 
L 350.60028 281.244576 
L 350.715051 281.164824 
L 350.887208 280.885631 
L 350.915901 280.927484 
L 351.288908 281.586189 
L 351.518451 281.388406 
L 351.948844 280.563649 
L 351.977536 280.583774 
L 352.407929 281.246185 
L 352.551393 281.370047 
L 352.580086 281.345276 
L 352.780936 280.851352 
L 353.153943 280.263805 
L 353.268715 280.4221 
L 354.1295 282.055137 
L 354.387735 282.022427 
L 354.5312 281.701204 
L 355.105057 279.357894 
L 355.248521 278.605705 
L 355.277214 278.646121 
L 355.363292 279.800056 
L 355.478064 282.017838 
L 355.506756 280.953833 
L 355.592835 262.991054 
L 355.736299 150.618034 
L 355.879763 57.650262 
L 355.908456 63.554536 
L 356.080613 205.301761 
L 356.281463 279.61062 
L 356.367542 282.074654 
L 356.424928 281.883203 
L 356.769242 279.721519 
L 357.027477 279.279016 
L 357.142249 279.531819 
L 357.515256 280.680399 
L 357.65872 280.759954 
L 358.404734 282.09254 
L 358.691662 281.997012 
L 358.949898 281.911027 
L 359.294212 282.079315 
L 359.408983 281.910239 
L 359.78199 280.450086 
L 359.954148 280.11214 
L 359.98284 280.124021 
L 360.843626 280.895627 
L 361.446176 280.671266 
L 361.647025 280.907685 
L 361.847875 281.177858 
L 361.876568 281.162745 
L 362.020032 280.823401 
L 362.249575 280.424628 
L 362.565197 280.372785 
L 362.766046 280.401134 
L 363.052975 280.993484 
L 363.139053 280.903472 
L 363.253825 280.837291 
L 363.282518 280.876859 
L 363.942453 282.092909 
L 364.085917 282.019433 
L 364.487617 281.140812 
L 364.946703 279.18763 
L 364.975396 279.180088 
L 365.032781 279.578725 
L 365.176246 282.006991 
L 365.204938 280.931016 
L 365.291017 263.100993 
L 365.434481 152.69614 
L 365.577945 58.526798 
L 365.606638 62.795912 
L 365.750102 171.765152 
L 365.979645 277.453254 
L 366.123109 282.091172 
L 366.237881 281.489814 
L 366.496116 280.555307 
L 366.610888 280.596713 
L 366.955202 281.175318 
L 367.213438 281.618245 
L 367.988144 282.032657 
L 368.160301 281.760188 
L 368.619387 280.909713 
L 368.705466 280.946013 
L 369.221937 282.086651 
L 369.308015 281.993293 
L 369.767101 281.508865 
L 369.967951 281.495419 
L 370.140108 281.65862 
L 370.398343 281.925723 
L 370.627886 281.737681 
L 371.029586 281.625172 
L 371.201743 281.685414 
L 371.402593 281.732858 
L 371.7756 281.438221 
L 371.947757 281.119891 
L 371.97645 281.133841 
L 372.205993 281.279308 
L 372.234686 281.251375 
L 372.406843 281.217999 
L 372.665078 281.384299 
L 373.095471 280.94422 
L 373.267628 280.785921 
L 373.296321 280.807129 
L 373.439785 281.157829 
L 373.755406 281.884132 
L 374.042335 282.090547 
L 374.214492 281.997874 
L 374.415342 281.426484 
L 374.931813 279.148291 
L 375.075277 278.379108 
L 375.10397 278.52076 
L 375.218742 281.079873 
L 375.276127 282.081073 
L 375.30482 281.313572 
L 375.390899 265.498186 
L 375.534363 164.803664 
L 375.677827 78.263792 
L 375.70652 82.354046 
L 375.849984 185.30531 
L 376.050834 277.29628 
L 376.165605 282.090546 
L 376.194298 282.019151 
L 376.624691 279.537506 
L 376.997698 279.080093 
L 377.026391 279.114724 
L 377.198548 279.639923 
L 377.743712 281.396414 
L 378.088026 281.892379 
L 378.461033 282.075926 
L 379.006197 282.06354 
L 379.207047 282.04248 
L 379.350511 281.633415 
L 379.83829 279.737554 
L 379.924368 279.790741 
L 380.326068 280.508408 
L 380.871232 280.761885 
L 381.215546 280.736301 
L 381.55986 280.082774 
L 381.588553 280.096876 
L 381.789403 280.449373 
L 381.96156 280.517614 
L 382.133717 280.550913 
L 382.305874 280.587068 
L 382.707574 280.220284 
L 382.851039 280.430132 
L 383.080581 280.722165 
L 383.281431 280.746393 
L 383.482281 280.877761 
L 383.654438 280.890016 
L 384.285681 282.082571 
L 384.486531 282.007599 
L 384.687381 281.608518 
L 384.974309 280.271784 
L 385.203852 279.771448 
L 385.261238 279.811674 
L 385.347316 280.485241 
L 385.462087 282.08788 
L 385.49078 281.609216 
L 385.576859 270.467679 
L 385.69163 209.222979 
L 385.89248 76.353517 
L 385.921173 81.124779 
L 386.064637 184.00779 
L 386.29418 278.173817 
L 386.466337 282.092909 
L 386.581108 281.845051 
L 386.839344 281.409866 
L 387.154965 281.138227 
L 387.212351 281.236364 
L 387.527972 281.807015 
L 387.700129 282.005975 
L 387.843594 282.076897 
L 388.159215 281.960337 
L 388.388758 281.955623 
L 388.532222 281.649216 
L 388.962615 279.735252 
L 389.048693 279.961327 
L 389.536472 282.023267 
L 389.679936 282.08009 
L 390.196407 281.918647 
L 390.397257 281.915855 
L 390.6268 281.849967 
L 390.885035 281.901569 
L 391.200657 281.778875 
L 391.602356 281.786448 
L 392.147521 281.510723 
L 392.290985 281.424177 
L 392.663992 280.933138 
L 392.692685 280.953592 
L 392.922227 281.008679 
L 393.438699 280.920918 
L 393.95517 282.083623 
L 394.127327 282.01919 
L 394.299484 281.566596 
L 394.529027 280.432882 
L 394.902034 278.394535 
L 395.016805 278.20027 
L 395.045498 278.293484 
L 395.131576 279.425701 
L 395.246348 282.082843 
L 395.275041 281.758215 
L 395.332426 276.558827 
L 395.447198 229.429303 
L 395.648048 94.10193 
L 395.705433 102.566823 
L 396.135826 282.060449 
L 396.164519 282.064828 
L 396.27929 280.809328 
L 396.623604 277.232634 
L 396.652297 277.188502 
L 396.709683 277.292821 
L 397.369618 280.10469 
L 397.48439 280.170223 
L 398.316482 282.05058 
L 398.660797 282.077162 
L 399.005111 282.04378 
L 399.148575 281.685649 
L 399.636353 280.290313 
L 399.80851 279.994047 
L 399.837203 280.004763 
L 400.038053 280.011924 
L 400.181517 280.012811 
L 400.61191 280.7726 
L 400.697989 280.705311 
L 400.870146 280.70289 
L 401.099688 280.868243 
L 401.128381 280.837149 
L 401.444003 280.442843 
L 401.472695 280.469565 
L 401.81701 280.976518 
L 401.874395 280.895033 
L 402.046552 280.621044 
L 402.075245 280.644205 
L 402.304788 280.952914 
L 402.333481 280.917587 
L 402.476945 280.733207 
L 402.505638 280.755218 
L 402.706488 281.104332 
L 402.763873 281.015094 
L 402.936031 280.487001 
L 402.993416 280.568972 
L 403.452502 282.089109 
L 403.481195 282.068668 
L 403.653352 281.936953 
L 403.682045 281.969896 
L 403.825509 282.085766 
L 403.854202 282.062126 
L 404.055052 281.650862 
L 404.600216 279.594677 
L 404.628908 279.643477 
L 404.714987 280.528089 
L 404.801066 282.033385 
L 404.829758 281.99807 
L 404.887144 278.857093 
L 404.973223 256.976644 
L 405.14538 120.298809 
L 405.260151 61.273044 
L 405.288844 66.644203 
L 405.432308 177.673287 
L 405.661851 278.118026 
L 405.805315 282.089739 
L 405.862701 281.98789 
L 406.293094 280.614534 
L 406.522636 280.783549 
L 406.666101 280.966003 
L 407.125186 281.832359 
L 407.412114 281.887617 
L 407.699043 282.091635 
L 407.842507 281.972034 
L 408.244207 281.284916 
L 408.301593 281.372346 
L 408.6746 282.051589 
L 408.904142 282.055164 
L 409.047607 281.739748 
L 409.277149 281.309977 
L 409.736235 281.507333 
L 410.080549 281.493533 
L 410.252706 281.484486 
L 410.539635 281.260197 
L 410.826563 281.468819 
L 411.19957 281.049901 
L 411.256956 281.133547 
L 411.515191 281.460485 
L 411.687349 281.179244 
L 412.117741 280.608136 
L 412.261205 280.610736 
L 412.662905 281.022145 
L 412.835062 281.0826 
L 413.007219 281.091446 
L 413.236762 281.745159 
L 413.466305 282.082428 
L 413.667155 282.075976 
L 413.667155 282.075976 
" clip-path="url(#p0dd1948d60)" style="fill: none; stroke: #1f77b4; stroke-width: 1.5; stroke-linecap: square"/>
   </g>
   <g id="patch_3">
    <path d="M 57.6 307.584 
L 57.6 41.472 
" style="fill: none; stroke: #000000; stroke-width: 0.8; stroke-linejoin: miter; stroke-linecap: square"/>
   </g>
   <g id="patch_4">
    <path d="M 414.72 307.584 
L 414.72 41.472 
" style="fill: none; stroke: #000000; stroke-width: 0.8; stroke-linejoin: miter; stroke-linecap: square"/>
   </g>
   <g id="patch_5">
    <path d="M 57.6 307.584 
L 414.72 307.584 
" style="fill: none; stroke: #000000; stroke-width: 0.8; stroke-linejoin: miter; stroke-linecap: square"/>
   </g>
   <g id="patch_6">
    <path d="M 57.6 41.472 
L 414.72 41.472 
" style="fill: none; stroke: #000000; stroke-width: 0.8; stroke-linejoin: miter; stroke-linecap: square"/>
   </g>
   <g id="text_17">
    <!-- Signal after matched filtering and squaring -->
    <g transform="translate(106.84125 35.472) scale(0.12 -0.12)">
     <defs>
      <path id="DejaVuSans-53" d="M 3425 4513 
L 3425 3897 
Q 3066 4069 2747 4153 
Q 2428 4238 2131 4238 
Q 1616 4238 1336 4038 
Q 1056 3838 1056 3469 
Q 1056 3159 1242 3001 
Q 1428 2844 1947 2747 
L 2328 2669 
Q 3034 2534 3370 2195 
Q 3706 1856 3706 1288 
Q 3706 609 3251 259 
Q 2797 -91 1919 -91 
Q 1588 -91 1214 -16 
Q 841 59 441 206 
L 441 856 
Q 825 641 1194 531 
Q 1563 422 1919 422 
Q 2459 422 2753 634 
Q 3047 847 3047 1241 
Q 3047 1584 2836 1778 
Q 2625 1972 2144 2069 
L 1759 2144 
Q 1053 2284 737 2584 
Q 422 2884 422 3419 
Q 422 4038 858 4394 
Q 1294 4750 2059 4750 
Q 2388 4750 2728 4690 
Q 3069 4631 3425 4513 
z
" transform="scale(0.015625)"/>
      <path id="DejaVuSans-67" d="M 2906 1791 
Q 2906 2416 2648 2759 
Q 2391 3103 1925 3103 
Q 1463 3103 1205 2759 
Q 947 2416 947 1791 
Q 947 1169 1205 825 
Q 1463 481 1925 481 
Q 2391 481 2648 825 
Q 2906 1169 2906 1791 
z
M 3481 434 
Q 3481 -459 3084 -895 
Q 2688 -1331 1869 -1331 
Q 1566 -1331 1297 -1286 
Q 1028 -1241 775 -1147 
L 775 -588 
Q 1028 -725 1275 -790 
Q 1522 -856 1778 -856 
Q 2344 -856 2625 -561 
Q 2906 -266 2906 331 
L 2906 616 
Q 2728 306 2450 153 
Q 2172 0 1784 0 
Q 1141 0 747 490 
Q 353 981 353 1791 
Q 353 2603 747 3093 
Q 1141 3584 1784 3584 
Q 2172 3584 2450 3431 
Q 2728 3278 2906 2969 
L 2906 3500 
L 3481 3500 
L 3481 434 
z
" transform="scale(0.015625)"/>
      <path id="DejaVuSans-6e" d="M 3513 2113 
L 3513 0 
L 2938 0 
L 2938 2094 
Q 2938 2591 2744 2837 
Q 2550 3084 2163 3084 
Q 1697 3084 1428 2787 
Q 1159 2491 1159 1978 
L 1159 0 
L 581 0 
L 581 3500 
L 1159 3500 
L 1159 2956 
Q 1366 3272 1645 3428 
Q 1925 3584 2291 3584 
Q 2894 3584 3203 3211 
Q 3513 2838 3513 2113 
z
" transform="scale(0.015625)"/>
      <path id="DejaVuSans-61" d="M 2194 1759 
Q 1497 1759 1228 1600 
Q 959 1441 959 1056 
Q 959 750 1161 570 
Q 1363 391 1709 391 
Q 2188 391 2477 730 
Q 2766 1069 2766 1631 
L 2766 1759 
L 2194 1759 
z
M 3341 1997 
L 3341 0 
L 2766 0 
L 2766 531 
Q 2569 213 2275 61 
Q 1981 -91 1556 -91 
Q 1019 -91 701 211 
Q 384 513 384 1019 
Q 384 1609 779 1909 
Q 1175 2209 1959 2209 
L 2766 2209 
L 2766 2266 
Q 2766 2663 2505 2880 
Q 2244 3097 1772 3097 
Q 1472 3097 1187 3025 
Q 903 2953 641 2809 
L 641 3341 
Q 956 3463 1253 3523 
Q 1550 3584 1831 3584 
Q 2591 3584 2966 3190 
Q 3341 2797 3341 1997 
z
" transform="scale(0.015625)"/>
      <path id="DejaVuSans-66" d="M 2375 4863 
L 2375 4384 
L 1825 4384 
Q 1516 4384 1395 4259 
Q 1275 4134 1275 3809 
L 1275 3500 
L 2222 3500 
L 2222 3053 
L 1275 3053 
L 1275 0 
L 697 0 
L 697 3053 
L 147 3053 
L 147 3500 
L 697 3500 
L 697 3744 
Q 697 4328 969 4595 
Q 1241 4863 1831 4863 
L 2375 4863 
z
" transform="scale(0.015625)"/>
      <path id="DejaVuSans-72" d="M 2631 2963 
Q 2534 3019 2420 3045 
Q 2306 3072 2169 3072 
Q 1681 3072 1420 2755 
Q 1159 2438 1159 1844 
L 1159 0 
L 581 0 
L 581 3500 
L 1159 3500 
L 1159 2956 
Q 1341 3275 1631 3429 
Q 1922 3584 2338 3584 
Q 2397 3584 2469 3576 
Q 2541 3569 2628 3553 
L 2631 2963 
z
" transform="scale(0.015625)"/>
      <path id="DejaVuSans-63" d="M 3122 3366 
L 3122 2828 
Q 2878 2963 2633 3030 
Q 2388 3097 2138 3097 
Q 1578 3097 1268 2742 
Q 959 2388 959 1747 
Q 959 1106 1268 751 
Q 1578 397 2138 397 
Q 2388 397 2633 464 
Q 2878 531 3122 666 
L 3122 134 
Q 2881 22 2623 -34 
Q 2366 -91 2075 -91 
Q 1284 -91 818 406 
Q 353 903 353 1747 
Q 353 2603 823 3093 
Q 1294 3584 2113 3584 
Q 2378 3584 2631 3529 
Q 2884 3475 3122 3366 
z
" transform="scale(0.015625)"/>
      <path id="DejaVuSans-68" d="M 3513 2113 
L 3513 0 
L 2938 0 
L 2938 2094 
Q 2938 2591 2744 2837 
Q 2550 3084 2163 3084 
Q 1697 3084 1428 2787 
Q 1159 2491 1159 1978 
L 1159 0 
L 581 0 
L 581 4863 
L 1159 4863 
L 1159 2956 
Q 1366 3272 1645 3428 
Q 1925 3584 2291 3584 
Q 2894 3584 3203 3211 
Q 3513 2838 3513 2113 
z
" transform="scale(0.015625)"/>
      <path id="DejaVuSans-71" d="M 947 1747 
Q 947 1113 1208 752 
Q 1469 391 1925 391 
Q 2381 391 2643 752 
Q 2906 1113 2906 1747 
Q 2906 2381 2643 2742 
Q 2381 3103 1925 3103 
Q 1469 3103 1208 2742 
Q 947 2381 947 1747 
z
M 2906 525 
Q 2725 213 2448 61 
Q 2172 -91 1784 -91 
Q 1150 -91 751 415 
Q 353 922 353 1747 
Q 353 2572 751 3078 
Q 1150 3584 1784 3584 
Q 2172 3584 2448 3432 
Q 2725 3281 2906 2969 
L 2906 3500 
L 3481 3500 
L 3481 -1331 
L 2906 -1331 
L 2906 525 
z
" transform="scale(0.015625)"/>
     </defs>
     <use xlink:href="#DejaVuSans-53"/>
     <use xlink:href="#DejaVuSans-69" x="63.476562"/>
     <use xlink:href="#DejaVuSans-67" x="91.259766"/>
     <use xlink:href="#DejaVuSans-6e" x="154.736328"/>
     <use xlink:href="#DejaVuSans-61" x="218.115234"/>
     <use xlink:href="#DejaVuSans-6c" x="279.394531"/>
     <use xlink:href="#DejaVuSans-20" x="307.177734"/>
     <use xlink:href="#DejaVuSans-61" x="338.964844"/>
     <use xlink:href="#DejaVuSans-66" x="400.244141"/>
     <use xlink:href="#DejaVuSans-74" x="433.699219"/>
     <use xlink:href="#DejaVuSans-65" x="472.908203"/>
     <use xlink:href="#DejaVuSans-72" x="534.431641"/>
     <use xlink:href="#DejaVuSans-20" x="575.544922"/>
     <use xlink:href="#DejaVuSans-6d" x="607.332031"/>
     <use xlink:href="#DejaVuSans-61" x="704.744141"/>
     <use xlink:href="#DejaVuSans-74" x="766.023438"/>
     <use xlink:href="#DejaVuSans-63" x="805.232422"/>
     <use xlink:href="#DejaVuSans-68" x="860.212891"/>
     <use xlink:href="#DejaVuSans-65" x="923.591797"/>
     <use xlink:href="#DejaVuSans-64" x="985.115234"/>
     <use xlink:href="#DejaVuSans-20" x="1048.591797"/>
     <use xlink:href="#DejaVuSans-66" x="1080.378906"/>
     <use xlink:href="#DejaVuSans-69" x="1115.583984"/>
     <use xlink:href="#DejaVuSans-6c" x="1143.367188"/>
     <use xlink:href="#DejaVuSans-74" x="1171.150391"/>
     <use xlink:href="#DejaVuSans-65" x="1210.359375"/>
     <use xlink:href="#DejaVuSans-72" x="1271.882812"/>
     <use xlink:href="#DejaVuSans-69" x="1312.996094"/>
     <use xlink:href="#DejaVuSans-6e" x="1340.779297"/>
     <use xlink:href="#DejaVuSans-67" x="1404.158203"/>
     <use xlink:href="#DejaVuSans-20" x="1467.634766"/>
     <use xlink:href="#DejaVuSans-61" x="1499.421875"/>
     <use xlink:href="#DejaVuSans-6e" x="1560.701172"/>
     <use xlink:href="#DejaVuSans-64" x="1624.080078"/>
     <use xlink:href="#DejaVuSans-20" x="1687.556641"/>
     <use xlink:href="#DejaVuSans-73" x="1719.34375"/>
     <use xlink:href="#DejaVuSans-71" x="1771.443359"/>
     <use xlink:href="#DejaVuSans-75" x="1834.919922"/>
     <use xlink:href="#DejaVuSans-61" x="1898.298828"/>
     <use xlink:href="#DejaVuSans-72" x="1959.578125"/>
     <use xlink:href="#DejaVuSans-69" x="2000.691406"/>
     <use xlink:href="#DejaVuSans-6e" x="2028.474609"/>
     <use xlink:href="#DejaVuSans-67" x="2091.853516"/>
    </g>
   </g>
  </g>
 </g>
 <defs>
  <clipPath id="p0dd1948d60">
   <rect x="57.6" y="41.472" width="357.12" height="266.112"/>
  </clipPath>
 </defs>
</svg>
